<ttFont>
          <CharString index="0">
            11 43 18 36 22 38 24 40 80 129 42 0 4 0 1 -1 1 0 rrcurveto
            1 1 1 3 9 -24 3 -6 hvcurveto
            -11 0 -16 -4 -5 -5 -35 -38 -49 -78 -25 -50 -21 -40 -32 -81 0 -5 0 -5 4 -2 4 0 rrcurveto
            6 0 4 4 1 3 rrcurveto
            return
          </CharString>
          <CharString index="1">
            -12 8 -6 12 14 27 25 21 12 -6 6 -11 -23 -21 -25 -21 vhcurveto
            return
          </CharString>
          <CharString index="2">
            4 0 3 7 13 21 76 127 26 25 0 4 0 2 -1 1 -2 0 -3 0 -4 -3 -5 -2 -9 -4 -17 -6 -2 -4 rrcurveto
            -73 -138 rlineto
            -10 -19 -2 -3 0 -2 0 -4 3 -2 3 0 rrcurveto
            return
          </CharString>
          <CharString index="3">
            31 26 54 54 34 28 -24 -37 -31 -25 -54 -54 -34 -29 24 37 vhcurveto
            return
          </CharString>
          <CharString index="4">
            -38 29 -26 38 55 76 55 63 38 -29 26 -38 -55 -76 -55 -63 vhcurveto
            return
          </CharString>
          <CharString index="5">
            -335 -206 rlineto
            -9 -5 -5 -8 2 -2 2 -2 9 4 9 5 rrcurveto
            335 206 rlineto
            9 5 5 7 -2 2 -2 2 -9 -2 -9 -6 rrcurveto
            return
          </CharString>
          <CharString index="6">
            -20 -38 -47 -67 -43 0 -17 0 -11 13 0 14 0 43 71 30 67 5 rrcurveto
            return
          </CharString>
          <CharString index="7">
            20 -21 9 -12 -59 -48 -37 -5 -2 1 0 1 vhcurveto
            5 0 25 27 45 0 18 0 10 -13 0 -12 0 -22 -14 -30 -12 -26 -114 -11 -41 -53 0 -38 0 -14 12 -16 23 0 29 0 64 15 50 98 rrcurveto
            21 1 24 1 49 0 3 0 10 7 9 5 7 4 4 6 0 2 0 1 0 0 -1 0 -58 -2 -26 -2 -31 -2 14 28 13 29 0 32 rrcurveto
            return
          </CharString>
          <CharString index="8">
            -4 -24 -9 -8 hvcurveto
            0 -8 11 -18 0 -27 0 -35 -30 -32 -28 -21 -17 -13 -2 0 0 -3 0 -1 1 -1 2 0 7 0 103 68 1 64 rrcurveto
            16 -3 28 -17 vhcurveto
            return
          </CharString>
          <CharString index="9">
            -57 0 -59 2 -24 0 -3 0 -1 -6 -4 -7 -3 -5 -5 -5 0 -2 0 -1 1 0 1 0 8 0 36 2 29 0 48 0 57 -4 13 0 rrcurveto
            3 0 0 7 3 7 3 7 2 3 0 2 0 1 -1 0 -1 0 -7 0 -29 -1 -10 0 rrcurveto
            return
          </CharString>
          <CharString index="10">
            52 18 -22 -33 -62 -84 -79 -86 -31 -26 23 34 hvcurveto
            0 13 1 13 4 14 72 85 50 14 30 0 rrcurveto
            return
          </CharString>
          <CharString index="11">
            -69 0 -76 -60 -27 -25 56 116 163 118 142 47 12 4 23 23 0 4 0 1 -1 0 -1 0 -1 0 -2 0 -2 -1 -203 -63 -246 -204 0 -145 rrcurveto
            -35 31 -24 29 123 124 112 75 46 -34 11 -41 vhcurveto
            return
          </CharString>
          <CharString index="12">
            -57 0 -100 4 -24 0 -3 0 -1 -6 -4 -7 -3 -5 -5 -4 0 -2 0 -1 1 0 1 0 8 0 51 2 29 0 48 0 127 -4 13 0 rrcurveto
            3 0 0 6 3 7 3 7 2 2 0 2 0 1 -1 0 -1 0 -7 0 -58 -2 -25 0 rrcurveto
            return
          </CharString>
          <CharString index="13">
            34 25 -23 -29 hvcurveto
            0 -49 -54 -16 -34 -19 -49 -27 -66 -37 -1 -47 0 -22 26 -40 6 0 4 0 4 1 9 3 8 3 15 1 0 7 0 2 -37 39 0 21 rrcurveto
            0 42 59 30 31 17 44 24 74 28 0 55 0 39 -26 21 -36 0 -53 0 -40 -29 -35 -30 -3 -3 0 -1 0 -1 0 -1 1 -1 3 0 rrcurveto
            8 0 40 42 43 0 rrcurveto
            return
          </CharString>
          <CharString index="14">
            -17 -11 -23 -14 -17 0 rrcurveto
            -16 -5 20 11 50 56 79 50 hvcurveto
            17 0 13 -9 5 -15 rrcurveto
            -30 -35 -21 -36 -12 -40 rrcurveto
            return
          </CharString>
          <CharString index="15">
            186 219 rlineto
            5 7 7 7 2 0 1 0 0 -1 0 -2 0 -2 -37 -136 -13 -103 rrcurveto
            return
          </CharString>
          <CharString index="16">
            -8 -1 -7 0 -5 0 rrcurveto
            return
          </CharString>
          <CharString index="17">
            -35 0 -40 12 -39 0 rrcurveto
            return
          </CharString>
          <CharString index="18">
            3 1 3 0 4 0 rrcurveto
            return
          </CharString>
          <CharString index="19">
            21 0 37 -11 37 0 12 0 12 1 36 4 -3 -21 -2 -26 0 -24 0 -53 6 -28 41 0 19 0 25 7 26 15 46 27 33 28 37 49 rrcurveto
            1 2 0 0 0 1 0 1 -1 1 -1 0 -1 0 -1 0 -2 -3 -4 -6 -19 -24 -26 -23 -29 -25 -47 -33 -27 0 -19 0 -13 18 0 58 rrcurveto
            0 19 2 23 3 26 36 9 40 30 0 5 0 3 -1 0 -2 0 -5 0 -23 -27 -44 -11 12 90 27 111 18 48 1 5 10 17 0 9 rrcurveto
            1 vlineto
            2 -2 2 -2 vhcurveto
            -5 0 -11 -7 -6 -2 -27 -11 -2 3 -36 -42 -174 -203 -100 -94 -84 -73 rrcurveto
            return
          </CharString>
          <CharString index="20">
            -9 -8 -14 -7 -9 -3 -4 -1 -4 -2 0 -4 0 -3 3 -1 3 0 10 0 9 3 8 1 19 2 12 3 12 9 29 24 50 54 56 64 rrcurveto
            return
          </CharString>
          <CharString index="21">
            116 234 67 58 44 0 27 0 21 -15 0 -25 0 -57 -61 -65 -48 -16 -9 -3 -23 1 0 -7 0 -3 3 -1 1 -2 2 -3 2 -4 3 0 rrcurveto
            16 0 13 17 38 0 rrcurveto
            return
          </CharString>
          <CharString index="22">
            33 0 17 -24 1 -29 rrcurveto
            -114 -98 -71 -56 -47 -36 37 36 vhcurveto
            0 3 3 1 0 2 0 1 -1 1 -1 0 -2 0 -2 -3 -11 -6 -9 -5 -12 -1 0 -4 0 -36 39 -38 52 0 70 0 45 28 32 27 rrcurveto
            33 28 46 49 0 50 0 59 -40 17 -42 0 -9 0 -19 -2 -10 -1 rrcurveto
            return
          </CharString>
          <CharString index="23">
            55 17 78 67 0 71 0 34 -31 11 -26 0 -94 0 -95 -123 -98 -190 -99 -191 -2 -3 0 -5 0 -3 2 -1 2 0 5 0 6 4 8 3 rrcurveto
            11 4 9 0 2 7 rrcurveto
            19 55 15 38 45 91 rrcurveto
            return
          </CharString>
          <CharString index="24">
            8 14 16 9 0 9 0 6 -20 33 -52 0 -45 0 -45 -12 -45 -26 -112 -63 -97 -117 0 -108 rrcurveto
            -74 56 -55 75 137 69 89 20 7 -9 16 -7 vhcurveto
            -2 0 -2 -5 -2 -7 -17 -53 -46 -51 -104 0 -58 0 -42 49 0 61 0 118 82 106 86 56 17 10 30 17 49 0 rrcurveto
            35 37 -27 -22 -2 1 -2 2 hvcurveto
            2 0 1 1 2 3 rrcurveto
            return
          </CharString>
          <CharString index="25">
            -40 -59 -43 -21 -24 0 rrcurveto
            -30 -10 13 19 36 45 67 42 hvcurveto
            22 0 18 -27 20 -28 rrcurveto
            return
          </CharString>
          <CharString index="26">
            67 94 106 213 0 0 84 -17 49 -52 0 -100 rrcurveto
            return
          </CharString>
          <CharString index="27">
            -115 -77 -140 -119 vhcurveto
            -69 0 -16 73 -25 44 rrcurveto
            return
          </CharString>
          <CharString index="28">
            63 101 64 83 vhcurveto
            11 0 10 0 10 -1 -24 -61 -56 -120 -64 -114 -15 21 -18 17 -20 0 rrcurveto
            -57 -92 -93 -55 hvcurveto
            return
          </CharString>
          <CharString index="29">
            -26 24 -10 24 vhcurveto
            22 0 37 16 32 27 15 13 15 16 15 17 rrcurveto
            return
          </CharString>
          <CharString index="30">
            42 -54 24 -37 75 0 130 0 108 116 0 128 0 114 -57 70 -116 19 3 9 2 9 0 8 rrcurveto
            43 -46 9 -27 -49 -38 -33 -2 -2 1 -1 2 vhcurveto
            4 0 29 26 34 0 35 0 15 -11 0 -28 0 -7 -2 -8 -3 -7 -10 1 -11 0 -11 0 -95 0 -120 -53 0 -72 0 -8 7 -2 7 -7 rrcurveto
            6 -6 4 -4 4 0 2 0 1 1 0 1 0 2 -3 2 0 10 rrcurveto
            return
          </CharString>
          <CharString index="31">
            125 69 97 37 hvcurveto
            0 6 -3 1 -5 4 -6 4 -5 4 -1 0 -2 0 0 -2 0 -1 0 -3 2 -4 0 -6 rrcurveto
            -55 -54 -61 -98 -44 -64 23 70 vhcurveto
            0 66 32 82 152 18 19 2 2 9 0 9 0 3 -5 2 -15 7 -23 13 -15 31 0 24 0 20 13 43 91 0 56 0 31 -39 6 -21 rrcurveto
            1 -3 0 -3 3 0 3 0 1 4 2 4 7 17 7 3 0 10 rrcurveto
            31 -84 9 -22 -100 -49 -61 -40 vhcurveto
            0 -19 8 -23 22 -15 6 -4 0 -3 0 -1 0 -9 -199 -28 0 -145 rrcurveto
            -67 75 -40 61 vhcurveto
            return
          </CharString>
          <CharString index="32">
            43 1 42 1 55 6 26 3 18 4 21 14 2 1 1 1 0 1 0 2 -5 0 -1 0 rrcurveto
            -4 hlineto
            -3 0 -6 0 -14 -2 -60 -7 -56 -3 -51 -1 4 13 1 11 0 9 0 54 -32 20 -51 0 -27 0 -24 -13 -18 -17 -3 -3 -5 -5 0 -2 rrcurveto
            -2 2 0 1 vhcurveto
            2 0 3 4 3 3 8 7 16 18 34 0 43 0 6 -35 0 -24 0 -10 -2 -13 -5 -16 -44 -1 -39 -2 -32 -6 -26 -5 -21 -12 -11 -11 rrcurveto
            -7 -7 -4 -5 0 -2 0 -2 1 -1 2 0 6 0 -1 25 123 6 16 1 16 1 14 0 -18 -51 -35 -70 -39 -72 -61 0 -11 -8 -15 -8 rrcurveto
            -10 -5 -9 -7 0 -3 0 -1 1 0 0 0 8 0 1 12 85 0 -40 -71 -45 -72 -36 -50 -12 -17 -13 1 0 -3 0 -2 1 -1 2 0 rrcurveto
            4 hlineto
            12 0 29 2 8 1 4 0 8 5 4 5 12 17 52 88 53 98 89 0 -1 5 12 9 rrcurveto
            return
          </CharString>
          <CharString index="33">
            5 4 3 3 0 2 0 1 -1 0 -1 0 0 0 0 -1 -95 -3 rrcurveto
            46 86 30 63 16 44 rrcurveto
            return
          </CharString>
          <CharString index="34">
            -35 -78 -54 -114 -43 -74 -24 -42 -40 -43 -59 0 -51 0 -16 45 0 52 0 81 40 88 111 45 41 16 61 12 69 12 rrcurveto
            return
          </CharString>
          <CharString index="35">
            -51 -9 -71 -13 -42 -14 -92 -31 -107 -76 -1 -107 0 -68 40 -52 64 0 93 0 64 102 38 62 47 81 25 66 30 58 42 12 40 19 38 22 rrcurveto
            46 27 33 28 37 49 1 2 0 0 0 1 0 1 -1 1 -1 0 -1 0 -1 0 -2 -3 -4 -6 -19 -24 -26 -23 -43 -37 -66 -40 -67 -19 rrcurveto
            79 152 rlineto
            20 38 21 47 30 35 33 38 29 52 0 22 0 12 -32 14 -5 0 -5 0 -3 -7 -4 -10 -38 -85 -64 -110 -23 -23 -58 -54 -123 -95 -77 0 rrcurveto
            -42 -27 33 51 hvcurveto
            1 69 53 93 55 54 70 70 105 62 59 0 38 0 17 -31 0 -23 0 -9 -1 -4 0 -4 0 -2 3 -1 3 0 3 0 3 13 5 11 rrcurveto
            5 11 7 8 0 5 0 25 -54 10 -17 0 -123 0 -142 -98 -70 -91 -38 -50 -25 -62 0 -51 0 -69 56 -32 53 0 81 0 130 97 54 45 rrcurveto
            -39 -72 -10 -18 -36 -75 rrcurveto
            return
          </CharString>
          <CharString index="36">
            53 32 29 23 37 49 1 2 0 0 0 1 0 1 -1 1 -1 0 -1 0 -1 0 -2 -3 -5 -6 -18 -24 -27 -23 -35 -28 -20 -10 -6 -4 rrcurveto
            -13 -7 -22 -10 -32 0 -27 0 -12 14 0 25 0 27 39 83 27 53 23 6 28 4 0 12 0 2 -1 1 -2 0 -4 0 -4 -4 -34 -8 rrcurveto
            20 36 39 72 45 67 6 8 20 23 0 7 0 2 -1 1 -2 0 -10 0 -7 -6 -12 -3 -16 -4 -11 0 -5 -9 rrcurveto
            -113 -205 rlineto
            -37 -8 -42 -6 -37 0 -27 0 -31 3 -32 16 46 85 33 56 0 31 0 27 -18 23 -42 0 -36 0 -34 -11 -33 -34 -7 -7 -4 -6 0 -2 rrcurveto
            -2 1 -1 2 vhcurveto
            2 0 3 5 6 6 30 30 23 8 29 0 29 0 10 -21 0 -17 0 -29 -43 -78 -27 -48 -7 0 -14 -6 0 -10 0 -4 2 -7 2 -4 rrcurveto
            -87 -152 rlineto
            -28 -49 -5 -8 0 -4 0 -1 1 -1 2 0 5 0 -3 2 14 3 15 3 17 -1 4 8 22 48 42 78 30 56 11 -2 13 -1 14 0 rrcurveto
            65 0 52 7 62 12 -33 -63 -35 -73 0 -31 0 -20 8 -28 45 0 32 0 28 7 40 23 rrcurveto
            return
          </CharString>
          <CharString index="37">
            -40 -44 0 29 36 38 12 26 22 17 -12 -22 hvcurveto
            0 -13 -10 -17 -9 -13 rrcurveto
            return
          </CharString>
          <CharString index="38">
            0 27 10 5 0 2 0 2 -2 0 -1 0 -2 0 -12 -18 -16 -16 -6 -6 -6 -5 0 -4 0 -47 44 -27 39 0 87 0 48 61 28 57 rrcurveto
            62 126 40 70 73 105 4 6 10 3 0 3 0 2 -1 1 -3 0 -13 0 -37 -5 -13 -5 -33 -12 -40 -5 -37 -2 11 17 17 26 0 17 rrcurveto
            21 -20 7 -22 -32 -80 -24 -41 -30 59 -4 45 vhcurveto
            -20 -25 -55 -56 -20 -16 -5 -4 -3 -4 0 -2 0 -1 1 -1 1 0 2 0 8 6 2 2 33 28 52 50 18 23 27 1 72 9 23 7 rrcurveto
            -58 -81 -57 -94 -60 -126 -29 -62 -27 -39 -38 0 -35 0 -33 42 0 36 rrcurveto
            return
          </CharString>
          <CharString index="39">
            -40 -98 -39 -101 -74 -110 -28 -41 -29 -31 -41 0 -34 0 -19 34 0 55 1 121 58 66 130 67 34 17 40 11 41 10 rrcurveto
            return
          </CharString>
          <CharString index="40">
            -33 -12 -40 -5 -37 -2 11 17 17 26 0 17 rrcurveto
            21 -20 7 -22 -32 -80 -24 -41 -30 59 -4 45 vhcurveto
            -20 -25 -55 -56 -20 -16 -5 -4 -3 -4 0 -2 0 -1 1 -1 1 0 2 0 8 6 2 2 33 28 52 50 18 23 27 1 72 9 23 7 rrcurveto
            -46 -70 rlineto
            -45 -68 -45 -87 -36 -76 -20 -40 -17 -39 -16 -40 -39 -8 -41 -10 -43 -19 -159 -70 -67 -108 0 -88 0 -72 29 -34 47 0 62 0 47 51 28 39 rrcurveto
            60 84 61 118 55 114 36 9 36 11 31 17 47 25 32 29 37 49 1 2 0 0 0 1 0 1 -1 1 -1 0 -1 0 -1 0 -2 -3 rrcurveto
            -4 -6 -19 -24 -26 -23 -18 -15 -24 -18 -23 -12 -29 -15 -31 -8 -33 -8 rrcurveto
            55 117 rlineto
            60 127 34 80 78 94 5 6 9 3 0 3 0 2 -1 1 -3 0 -13 0 -37 -5 -13 -5 rrcurveto
            return
          </CharString>
          <CharString index="41">
            -4 5 -3 4 -3 6 rrcurveto
            23 8 rlineto
            return
          </CharString>
          <CharString index="42">
            -36 0 -34 -11 -33 -34 -7 -7 -4 -6 0 -2 0 -2 1 -1 2 0 2 0 3 5 6 6 30 30 23 8 29 0 29 0 12 -18 0 -32 rrcurveto
            0 -36 -26 -48 -17 -31 -27 -9 -70 -25 0 -3 0 -2 2 -2 2 0 3 0 4 2 3 0 9 0 20 -26 9 -15 -37 -63 -46 -68 -39 -45 rrcurveto
            -14 -16 -12 0 0 -3 0 -3 1 0 6 0 55 0 5 7 5 6 29 38 34 56 32 57 30 -55 31 -51 30 -46 49 -74 34 -27 78 0 rrcurveto
            50 59 29 19 1 -1 0 0 hvcurveto
            -1 0 -2 -1 -1 -1 -30 -23 -27 -13 -36 0 -64 0 -38 61 -37 56 -46 70 -22 41 -33 56 rrcurveto
            41 75 179 80 rlineto
            71 29 61 54 0 6 0 1 -1 1 -1 0 -7 0 -28 -16 -11 -8 -39 -29 -143 -69 -73 -33 17 33 21 46 0 31 0 27 -22 23 -42 0 rrcurveto
            return
          </CharString>
          <CharString index="43">
            30 30 30 3 13 0 22 0 4 -18 0 -18 0 -29 -35 -103 -87 -137 -8 19 -10 17 -16 0 rrcurveto
            -45 -92 -99 -48 -17 16 -3 15 hvcurveto
            46 0 48 42 32 39 52 -169 138 -52 91 0 55 0 46 19 29 34 11 13 3 8 0 4 0 2 -1 1 -1 0 -5 0 -3 -10 -10 -10 rrcurveto
            -23 -22 -26 -14 -47 0 -116 0 -133 110 -38 114 39 54 114 187 0 60 0 36 -29 9 -21 0 -37 0 -32 -22 -22 -23 -7 -7 -4 -6 0 -2 rrcurveto
            -2 1 -1 2 vhcurveto
            2 0 3 5 6 6 rrcurveto
            return
          </CharString>
          <CharString index="44">
            -29 -41 -32 -39 -41 0 rrcurveto
            -13 -6 9 10 40 52 60 38 hvcurveto
            13 0 12 -18 6 -21 rrcurveto
            return
          </CharString>
          <CharString index="45">
            5 14 2 11 0 15 0 27 -16 23 -42 0 -19 0 -41 -11 -33 -34 -7 -7 -4 -5 0 -2 0 -2 1 -1 2 0 2 0 3 4 6 6 rrcurveto
            30 30 28 4 13 0 19 0 15 -13 0 -26 0 -46 -52 -83 -72 -133 -24 -45 -21 -42 -23 -29 -13 -17 -13 1 0 -3 0 -3 1 0 6 0 rrcurveto
            55 0 3 6 4 7 34 53 56 133 73 119 rrcurveto
            return
          </CharString>
          <CharString index="46">
            32 46 58 58 25 0 16 0 29 -7 0 -57 0 -11 -1 -9 -3 -8 -7 -7 -23 -22 0 -10 0 -2 2 0 2 0 9 0 31 16 7 10 rrcurveto
            7 10 5 12 5 12 rrcurveto
            return
          </CharString>
          <CharString index="47">
            67 67 34 23 31 1 rrcurveto
            3 hlineto
            18 26 -10 -30 hvcurveto
            0 -93 -158 -120 0 -179 rrcurveto
            -95 60 -50 75 77 57 74 19 1 -1 1 -1 vhcurveto
            -3 0 1 -2 -11 -14 -17 -21 -34 -34 -51 0 -54 0 -57 39 0 105 0 191 162 118 0 80 0 29 -28 15 -28 0 -32 0 -59 -25 -71 -65 rrcurveto
            return
          </CharString>
          <CharString index="48">
            58 -28 14 -30 vhcurveto
            -43 0 -44 -45 -33 -34 rrcurveto
            return
          </CharString>
          <CharString index="49">
            16 41 103 234 61 89 8 12 8 5 10 0 rrcurveto
            7 5 -5 -4 -1 1 -2 2 hvcurveto
            3 0 13 14 12 11 8 7 3 2 0 5 0 4 -11 7 -13 0 -26 0 -23 -27 -10 -9 -34 -33 -145 -293 -15 -38 rrcurveto
            3 369 rlineto
            23 -6 7 -11 vhcurveto
            -26 0 -17 -14 -7 -15 rrcurveto
            -154 -283 rlineto
            0 8 -2 8 -2 6 -4 11 -11 7 -7 0 -4 0 -5 -5 -7 -4 -8 -5 -8 -4 0 -1 0 -1 1 -2 1 0 4 0 4 5 5 0 rrcurveto
            5 3 -16 -16 hvcurveto
            0 -25 -11 -28 -9 -24 -10 -25 -12 -24 0 -3 0 -1 1 -1 2 0 6 0 -1 6 8 5 10 7 10 0 8 16 rrcurveto
            194 368 rlineto
            4 8 5 10 6 0 rrcurveto
            3 0 -2 -22 hvcurveto
            -2 -344 rlineto
            -27 4 -21 16 vhcurveto
            10 0 19 7 9 23 rrcurveto
            return
          </CharString>
          <CharString index="50">
            48 -17 81 -21 -8 -18 -24 -3 vhcurveto
            0 -1 33 -59 0 -60 rrcurveto
            -143 -138 -136 -130 -71 -47 55 80 vhcurveto
            0 58 29 60 31 46 45 67 61 42 79 0 rrcurveto
            27 50 -15 -58 -3 2 -2 3 hvcurveto
            3 0 4 11 5 9 5 10 6 7 0 4 0 27 -50 27 -34 0 -84 0 -82 -45 -59 -72 -41 -50 -41 -84 0 -68 rrcurveto
            -88 72 -48 74 123 189 148 179 vhcurveto
            return
          </CharString>
          <CharString index="51">
            45 83 90 150 93 0 37 0 18 -28 0 -27 0 -52 -79 -58 -64 -24 -48 -18 -34 -11 -58 -15 rrcurveto
            return
          </CharString>
          <CharString index="52">
            -4 -7 -13 -20 0 -3 0 -2 3 -1 2 0 4 0 0 3 10 4 24 9 19 -10 5 12 12 30 35 72 31 62 51 15 37 10 56 22 rrcurveto
            69 27 116 60 0 80 0 42 -30 21 -39 0 -61 0 -74 -57 -50 -61 -18 -23 -14 -22 -12 -22 16 32 19 38 0 4 rrcurveto
            3 -3 2 -4 -6 -60 -11 -5 -3 1 -1 4 10 17 3 -10 vhcurveto
            0 -21 -59 -108 -13 -25 -24 -44 -27 -46 -30 -49 rrcurveto
            return
          </CharString>
          <CharString index="53">
            -5 8 rlineto
            0 0 4 1 6 1 rrcurveto
            return
          </CharString>
          <CharString index="54">
            55 104 46 80 73 0 39 0 19 -29 0 -25 0 -78 -189 -43 -43 -9 rrcurveto
            return
          </CharString>
          <CharString index="55">
            4 0 0 3 10 4 24 9 19 -10 5 12 11 26 24 69 26 55 38 -66 52 -108 38 -57 27 -40 36 -14 44 0 51 0 42 25 31 29 rrcurveto
            3 vlineto
            2 -3 2 -4 vhcurveto
            -5 0 -7 -3 -4 -4 -17 -24 -29 -19 -38 0 -55 0 -35 39 -40 72 rrcurveto
            -111 183 28 54 rlineto
            202 43 74 55 0 65 0 35 -25 19 -35 0 -61 0 -90 -41 -47 -75 -25 -37 -12 -24 -19 -36 -22 -4 -13 -2 0 -2 0 -3 7 -16 7 -14 rrcurveto
            -37 -70 8 8 -59 -108 -4 -7 -16 -22 0 -3 0 -2 3 -1 2 0 rrcurveto
            return
          </CharString>
          <CharString index="56">
            -34 28 -51 82 88 117 76 84 vhcurveto
            0 74 -109 58 0 65 rrcurveto
            38 33 43 64 44 30 -25 -23 -2 1 -1 2 vhcurveto
            2 0 0 1 7 5 9 7 14 7 0 5 rrcurveto
            5 -21 43 -56 -67 -97 -54 -70 vhcurveto
            0 -70 103 -56 0 -79 rrcurveto
            -42 -46 -68 -84 -37 -71 18 73 vhcurveto
            0 9 9 9 0 2 0 2 -2 0 -1 0 -2 0 -12 -18 -16 -16 -6 -6 -6 -5 0 -4 rrcurveto
            return
          </CharString>
          <CharString index="57">
            25 36 149 259 46 121 37 1 39 2 44 5 26 3 18 4 21 14 7 5 -8 0 -2 0 -2 0 -2 -1 -23 -3 -51 -6 -50 -2 -47 -1 rrcurveto
            4 13 2 10 0 7 0 52 -32 34 -64 0 -24 0 -21 -6 -19 -9 -23 -10 -2 -4 0 -4 0 -3 2 0 3 0 7 0 12 12 6 3 rrcurveto
            19 9 13 4 22 0 54 0 4 -36 0 -25 0 -13 -3 -16 -5 -19 -56 -1 -49 -1 -38 -7 -26 -5 -21 -12 -11 -11 -7 -7 -4 -5 0 -2 rrcurveto
            -2 1 -1 2 vhcurveto
            6 0 -1 25 123 6 26 1 24 1 24 0 -41 -123 -119 -201 -62 -82 -12 -17 -13 1 0 -3 0 -3 1 0 6 0 55 0 5 7 5 6 rrcurveto
            return
          </CharString>
          <CharString index="58">
            27 -22 22 -42 vhcurveto
            -36 0 -34 -11 -33 -34 -7 -7 -4 -5 0 -2 0 -2 1 -1 2 0 2 0 3 4 6 6 30 30 23 8 29 0 29 0 11 -17 0 -22 rrcurveto
            0 -42 -148 -200 0 -78 0 -49 34 -29 48 0 75 0 68 64 57 54 -8 -18 -15 -33 0 -27 0 -20 10 -16 26 0 21 0 27 7 28 15 rrcurveto
            50 27 35 28 40 49 1 2 0 0 0 1 0 1 -1 1 -1 0 -1 0 -1 0 -2 -3 -4 -6 -21 -24 -28 -23 -31 -25 -50 -31 -30 0 rrcurveto
            -24 -6 8 13 hvcurveto
            0 48 51 110 25 38 13 20 99 145 0 28 0 2 -3 2 -3 0 -14 0 -18 -18 -9 -11 -45 -57 -25 -42 -70 -150 -44 -53 -80 -82 -69 0 rrcurveto
            -32 -26 19 44 hvcurveto
            0 75 143 177 0 63 rrcurveto
            return
          </CharString>
          <CharString index="59">
            31 69 63 143 0 82 0 32 -16 36 -42 0 -19 0 -41 -11 -33 -34 -7 -7 -4 -5 0 -2 0 -2 1 -1 2 0 2 0 3 4 6 6 rrcurveto
            30 30 28 4 13 0 19 0 14 -15 0 -34 0 -81 -45 -112 -47 -98 -13 -26 -34 -52 0 -18 0 -5 3 -1 6 0 4 0 15 6 7 3 rrcurveto
            9 5 13 5 4 7 12 21 -10 -15 31 44 62 87 80 90 100 89 rrcurveto
            return
          </CharString>
          <CharString index="60">
            84 75 43 21 26 14 8 4 8 3 0 2 0 2 -3 1 -2 0 rrcurveto
            return
          </CharString>
          <CharString index="61">
            -2 0 -6 -2 -5 -2 -40 -17 -50 -33 -65 -55 rrcurveto
            -101 -85 -80 -87 -62 -85 rrcurveto
            return
          </CharString>
          <CharString index="62">
            -24 0 -40 -12 -33 -34 -7 -7 -4 -5 0 -2 0 -2 1 -1 2 0 2 0 3 4 6 6 30 30 28 4 13 0 29 0 12 -18 0 -17 rrcurveto
            0 -42 -76 -120 -12 -23 -38 -66 -50 -85 -20 -39 -3 -6 -5 -9 0 -4 0 -6 2 -2 4 0 4 0 23 2 8 5 17 12 146 128 54 0 rrcurveto
            10 0 6 -6 4 -19 15 -77 9 -61 92 0 137 1 59 142 0 113 rrcurveto
            return
          </CharString>
          <CharString index="63">
            91 -37 128 -149 vhcurveto
            -37 0 -28 -10 -7 -3 -6 -3 -4 -4 1 -3 0 -3 4 -2 4 0 4 0 4 1 5 3 14 9 20 5 24 0 rrcurveto
            122 31 -156 -71 -48 -30 -180 -120 hvcurveto
            -58 0 5 59 -24 82 -4 14 -4 25 -38 0 -67 0 -120 -103 -40 -39 134 228 60 89 0 51 rrcurveto
            27 -12 29 -51 vhcurveto
            return
          </CharString>
          <CharString index="64">
            -5 0 -6 -10 -9 -7 -8 -6 -8 -5 0 -3 0 -3 20 -11 19 0 34 0 40 20 11 6 62 36 61 64 52 59 7 -73 7 -52 10 -35 rrcurveto
            17 -58 36 -16 34 0 rrcurveto
            53 43 34 9 1 -1 3 -3 hvcurveto
            -3 0 -3 -4 -3 -3 -13 -13 -21 -3 -15 0 -30 0 -31 14 -16 42 -14 36 -7 62 -9 99 82 91 52 53 38 31 20 17 7 3 12 0 rrcurveto
            19 10 -10 -8 hvcurveto
            0 -8 -4 0 0 -3 0 -1 1 -1 1 0 4 0 14 16 8 7 9 8 5 1 0 6 0 3 -5 14 -26 0 -32 0 -40 -27 -8 -5 rrcurveto
            -39 -28 -45 -42 -85 -93 -10 110 -10 85 -59 0 -22 0 -28 -15 -28 -30 -7 -7 -4 -5 0 -2 0 -2 1 -1 2 0 2 0 3 4 6 6 rrcurveto
            24 24 15 2 10 0 52 0 4 -87 11 -124 -80 -89 -54 -60 -43 -25 -5 -4 -18 -7 -22 0 -34 0 -1 20 -4 0 rrcurveto
            return
          </CharString>
          <CharString index="65">
            -33 -68 -16 -29 -68 -122 -39 -72 -65 -93 -87 0 -33 0 -13 21 0 28 0 152 232 123 122 60 rrcurveto
            return
          </CharString>
          <CharString index="66">
            13 20 85 145 0 28 0 2 -3 2 -3 0 -14 0 -6 -8 -9 -11 -45 -57 -21 -52 -70 -150 -44 -53 -74 -82 -69 0 -32 0 -26 17 0 44 rrcurveto
            0 84 136 188 0 44 0 27 -21 23 -42 0 -36 0 -34 -11 -33 -34 -7 -7 -4 -6 0 -2 0 -2 1 -1 2 0 2 0 3 5 6 6 rrcurveto
            30 30 23 8 29 0 29 0 12 -17 0 -22 0 -42 -143 -200 0 -80 0 -49 34 -27 48 0 75 0 62 64 57 54 rrcurveto
            -83 -175 rlineto
            -131 -61 -281 -138 0 -151 0 -40 25 -28 56 0 99 0 89 116 41 68 64 108 35 62 32 64 83 41 85 51 41 34 21 17 18 19 20 25 rrcurveto
            1 2 0 0 0 1 0 1 -1 1 -1 0 -1 0 -1 0 -2 -3 -4 -6 -21 -24 -28 -23 -59 -45 -76 -43 -66 -31 50 94 34 104 50 82 rrcurveto
            return
          </CharString>
          <CharString index="67">
            -42 0 -58 22 -28 0 -20 0 -35 -1 -31 -32 -7 -7 -4 -5 0 -2 0 -2 1 -1 2 0 2 0 3 4 6 6 15 14 15 5 23 0 rrcurveto
            70 0 5 -19 69 0 15 0 28 2 24 5 rrcurveto
            -415 -375 rlineto
            -1 -1 -8 -6 0 -4 0 -4 3 3 13 -6 6 -3 8 -4 6 0 rrcurveto
            return
          </CharString>
          <CharString index="68">
            16 0 18 17 66 0 96 0 123 -104 118 0 rrcurveto
            62 22 56 0 4 -9 19 -3 -3 0 -3 -2 -15 -39 -35 -64 hvcurveto
            -114 0 -91 110 -109 0 -14 0 -10 -1 -17 -2 rrcurveto
            364 335 rlineto
            38 34 3 -5 0 7 0 4 -9 7 -12 0 rrcurveto
            -20 0 2 -15 -79 0 rrcurveto
            return
          </CharString>
          <CharString index="69">
            0 1 -4 7 -1 3 rrcurveto
            -43 104 rlineto
            -2 4 -3 1 -2 0 -6 0 -4 -11 0 -8 0 -2 0 -3 1 -1 18 -28 10 -18 28 -46 1 -2 4 -2 2 0 1 0 0 0 0 1 rrcurveto
            return
          </CharString>
          <CharString index="70">
            15 29 23 43 9 0 2 0 2 -1 0 -3 0 -8 -12 -21 -39 -39 rrcurveto
            return
          </CharString>
          <CharString index="71">
            29 0 15 -20 9 -23 -16 -6 -22 -27 -12 -17 -14 -19 -21 -34 -8 -28 -15 -11 -27 -17 -27 0 rrcurveto
            -23 -5 18 17 66 71 101 66 hvcurveto
            return
          </CharString>
          <CharString index="72">
            -81 -93 -105 -75 -28 11 -23 31 hvcurveto
            25 0 34 14 34 21 0 -3 -1 -3 0 -3 0 -21 15 -11 25 0 20 0 26 8 28 16 46 27 33 28 37 49 1 2 0 0 0 1 rrcurveto
            1 -1 1 -1 vhcurveto
            -1 0 -1 0 -2 -3 -4 -6 -19 -24 -26 -23 -29 -25 -42 -33 -35 0 -28 0 -4 11 0 10 0 8 4 14 4 13 rrcurveto
            26 25 rlineto
            19 20 25 22 0 31 0 9 -8 2 -5 0 -9 32 -19 21 -35 0 rrcurveto
            return
          </CharString>
          <CharString index="73">
            43 31 41 23 35 0 rrcurveto
            16 29 -8 -35 -82 -86 -94 -59 -29 -26 28 34 hvcurveto
            0 21 8 35 28 47 rrcurveto
            return
          </CharString>
          <CharString index="74">
            -3 -2 0 -1 0 -1 0 -1 1 -1 1 0 1 0 1 1 3 2 rrcurveto
            97 70 rlineto
            -85 -144 -11 -23 0 -40 rrcurveto
            -46 29 -26 39 84 119 130 84 28 -22 17 -25 vhcurveto
            -49 0 -61 -36 -33 -23 rrcurveto
            64 118 rlineto
            134 109 161 136 0 139 0 6 -3 16 -14 0 -15 0 -23 -8 -24 -18 -82 -58 -41 -94 -48 -89 rrcurveto
            -87 -165 rlineto
            -21 -17 -76 -55 -11 -8 rrcurveto
            return
          </CharString>
          <CharString index="75">
            73 142 rlineto
            60 116 69 108 32 0 8 0 5 -9 0 -11 0 -127 -129 -121 -118 -98 rrcurveto
            return
          </CharString>
          <CharString index="76">
            52 60 102 42 9 14 -8 -19 vhcurveto
            0 -7 -2 -3 0 -1 0 -1 1 0 1 0 3 0 5 2 6 3 18 10 1 3 0 12 0 17 -10 12 -16 0 -54 0 -115 -95 -1 -94 rrcurveto
            -40 36 -16 38 vhcurveto
            72 0 64 53 29 26 18 16 17 18 15 20 1 2 0 0 0 1 0 1 -1 1 -1 0 -1 0 -1 0 -2 -3 -4 -6 -19 -24 -26 -23 rrcurveto
            -39 -34 -60 -36 -39 0 rrcurveto
            -52 -7 28 31 hvcurveto
            return
          </CharString>
          <CharString index="77">
            1 -2 1 -1 1 0 2 0 1 1 0 2 0 2 0 3 -1 4 rrcurveto
            116 239 rlineto
            30 62 92 178 50 0 6 0 3 -5 0 -9 0 -45 -68 -134 -32 -54 -48 -80 -119 -149 -62 -68 rrcurveto
            return
          </CharString>
          <CharString index="78">
            -30 -60 -22 -48 -6 -21 -30 -25 -38 -23 -27 0 rrcurveto
            -23 -5 18 17 66 71 101 66 hvcurveto
            21 0 14 -11 9 -14 rrcurveto
            return
          </CharString>
          <CharString index="79">
            -11 16 -16 10 -24 0 rrcurveto
            -81 -93 -105 -75 -28 11 -23 31 hvcurveto
            25 0 41 13 52 43 -2 -8 0 -4 0 -5 0 -26 18 -17 29 0 19 0 23 7 26 15 46 27 33 28 37 49 1 2 0 0 0 1 rrcurveto
            1 -1 1 -1 vhcurveto
            -1 0 -1 0 -2 -3 -4 -6 -19 -24 -26 -23 -30 -26 -44 -32 -35 0 -23 0 -12 12 0 20 0 14 3 13 7 18 57 57 145 172 46 67 rrcurveto
            55 79 54 91 0 84 0 16 -7 9 -11 0 -7 0 -9 -3 -12 -7 -93 -56 -55 -114 -44 -89 rrcurveto
            return
          </CharString>
          <CharString index="80">
            91 64 54 29 0 25 0 13 -9 7 -17 0 -31 0 -97 -60 -33 -102 -8 -6 -10 -8 -4 -4 -1 -1 0 -1 0 -1 0 -1 0 -1 1 0 rrcurveto
            1 0 12 11 7 5 -2 -9 -2 -8 0 -8 0 -37 33 -10 35 0 27 0 26 8 21 10 47 24 50 40 37 48 1 2 0 0 0 1 rrcurveto
            1 -1 1 -1 vhcurveto
            -1 0 -1 0 -2 -3 -4 -6 -19 -24 -26 -23 -36 -31 -54 -35 -44 0 -34 0 -15 13 0 32 0 12 3 16 6 17 rrcurveto
            return
          </CharString>
          <CharString index="81">
            21 54 42 61 35 0 9 0 2 -7 0 -4 0 -21 -36 -30 -73 -53 rrcurveto
            return
          </CharString>
          <CharString index="82">
            -98 -174 -97 -221 -76 -118 -25 -40 -69 -53 -29 0 -44 0 -10 98 0 27 0 40 5 116 443 325 rrcurveto
            return
          </CharString>
          <CharString index="83">
            -157 -107 142 282 rlineto
            141 276 48 81 65 0 21 0 19 -24 0 -28 0 -26 -5 -14 -15 -24 -2 -4 5 1 9 4 9 4 9 7 2 4 15 24 7 15 0 27 rrcurveto
            13 -9 41 -35 vhcurveto
            -90 0 -63 -69 -155 -294 rrcurveto
            -140 -267 -35 -70 rlineto
            -125 -91 -366 -244 0 -165 0 -54 12 -98 51 0 20 0 80 36 54 65 31 37 173 318 119 221 78 57 75 53 16 10 3 2 0 1 0 1 rrcurveto
            1 -1 1 -1 vhcurveto
            -1 0 -1 -1 -3 -2 rrcurveto
            return
          </CharString>
          <CharString index="84">
            -10 -19 -13 -25 -12 -12 -1 -1 -79 -87 -59 0 rrcurveto
            -16 -13 14 15 79 79 94 46 hvcurveto
            36 0 27 -31 15 -27 rrcurveto
            return
          </CharString>
          <CharString index="85">
            140 0 99 122 53 98 0 0 246 456 0 1 1 -2 2 -6 1 0 2 0 0 1 0 2 0 2 -2 6 -1 2 7 12 7 14 4 4 rrcurveto
            2 2 1 3 0 2 0 2 0 0 -1 0 -1 0 -1 0 -1 -1 -8 -6 -5 7 -8 -16 rrcurveto
            -3 -6 rlineto
            -16 35 -26 31 -39 0 rrcurveto
            -71 -92 -110 -70 -30 11 -22 29 hvcurveto
            52 0 65 44 42 45 rrcurveto
            -235 -406 rlineto
            -62 -111 -88 -86 -78 0 -77 0 -67 60 0 80 0 205 291 71 141 44 5 2 5 3 0 4 0 3 -2 2 -4 0 -3 0 -4 -1 -2 -1 rrcurveto
            -150 -46 -311 -95 0 -211 0 -89 81 -50 71 0 rrcurveto
            return
          </CharString>
          <CharString index="86">
            -21 -17 -76 -55 -11 -8 -3 -2 0 -1 0 -1 0 -1 1 -1 1 0 1 0 1 1 3 2 rrcurveto
            97 70 rlineto
            -30 -51 -27 -54 -21 -40 -20 -36 -40 -78 0 -7 0 -4 4 -3 5 0 5 0 0 3 19 0 4 0 3 0 1 4 7 36 32 52 25 37 rrcurveto
            17 26 78 80 40 0 14 0 8 -12 0 -11 0 -35 -74 -87 0 -56 0 -23 11 -14 23 0 15 0 21 7 26 15 46 27 33 28 37 49 rrcurveto
            1 2 0 0 0 1 0 1 -1 1 -1 0 -1 0 -1 0 -2 -3 -4 -6 -19 -24 -26 -23 -29 -25 -49 -33 -24 0 -11 0 -4 8 0 9 rrcurveto
            0 62 68 69 0 52 0 24 -15 17 -21 0 -54 0 -78 -78 -13 -11 rrcurveto
            71 143 rlineto
            134 109 161 136 0 139 0 6 -3 16 -14 0 -15 0 -23 -8 -24 -18 -82 -58 -42 -94 -47 -89 rrcurveto
            return
          </CharString>
          <CharString index="87">
            -11 6 -7 10 17 13 21 14 10 -7 8 -8 -16 -15 -21 -14 vhcurveto
            return
          </CharString>
          <CharString index="88">
            1 0 1 1 3 2 12 8 10 6 14 0 9 0 6 -9 0 -9 0 -31 -74 -77 0 -54 0 -23 18 -14 28 0 53 0 63 52 16 15 rrcurveto
            18 16 18 19 18 24 1 2 0 0 0 1 0 1 -1 1 -1 0 -1 0 -1 0 -2 -3 -7 -11 -24 -27 -23 -20 -29 -24 -44 -29 -25 0 rrcurveto
            -21 -14 6 20 hvcurveto
            0 43 68 83 0 28 0 22 -14 9 -20 0 -20 0 -19 -11 -16 -11 -3 -2 0 -1 0 -1 0 -1 1 -1 1 0 rrcurveto
            return
          </CharString>
          <CharString index="89">
            -156 -282 rlineto
            -39 -71 -84 -112 -86 0 -74 0 -44 61 0 66 0 151 160 103 138 46 57 19 65 7 63 12 rrcurveto
            return
          </CharString>
          <CharString index="90">
            -57 0 -20 -15 -9 -6 -3 -2 0 -1 0 -1 0 -1 1 -1 1 0 1 0 1 1 3 2 12 8 11 3 11 0 rrcurveto
            6 9 -1 -6 -25 -101 -190 0 hvcurveto
            -60 -11 -63 -5 -71 -21 -139 -41 -195 -97 0 -185 0 -75 60 -53 72 0 118 0 90 111 53 90 rrcurveto
            168 285 rlineto
            68 17 55 27 42 37 18 16 16 18 16 21 1 2 0 0 0 1 0 1 -1 1 -1 0 -1 0 -1 0 -2 -3 -4 -6 -14 -19 -30 -26 rrcurveto
            -51 -44 -71 -25 -35 -8 30 51 78 148 0 18 0 6 -3 4 -9 0 rrcurveto
            return
          </CharString>
          <CharString index="91">
            -44 25 -29 56 vhcurveto
            83 0 66 71 7 7 18 16 15 17 15 20 1 2 0 0 0 1 0 1 -1 1 -1 0 -1 0 -1 0 -2 -3 -4 -6 -19 -24 -26 -23 rrcurveto
            -39 -34 -44 -29 -47 0 rrcurveto
            -62 -5 52 22 63 88 60 51 hvcurveto
            9 0 4 -2 1 0 rrcurveto
            11 21 15 4 2 -10 1 -6 hvcurveto
            -33 0 -78 -29 -56 -59 rrcurveto
            86 171 rlineto
            134 109 161 136 0 139 0 6 -3 16 -14 0 -15 0 -23 -8 -24 -18 -82 -58 -42 -94 -47 -89 rrcurveto
            -87 -165 rlineto
            -21 -17 -76 -55 -11 -8 -3 -2 0 -1 0 -1 0 -1 1 -1 1 0 1 0 1 1 3 2 rrcurveto
            97 70 rlineto
            -26 -48 -51 -93 -3 -4 rrcurveto
            -49 -88 rlineto
            -2 -4 -16 -26 0 -7 0 -3 4 -1 4 0 6 0 7 3 4 1 6 2 7 0 3 6 5 13 16 27 13 25 rrcurveto
            0 -1 -5 -3 hvcurveto
            return
          </CharString>
          <CharString index="92">
            -77 -145 rlineto
            -24 -45 -13 -23 0 -26 0 -26 17 -15 29 0 23 0 41 9 35 20 46 27 33 28 37 49 1 2 0 0 0 1 0 1 -1 1 -1 0 rrcurveto
            -1 0 -1 0 -2 -3 -4 -6 -19 -24 -26 -23 -35 -30 -59 -38 -46 0 -18 0 -11 15 0 16 0 29 30 59 27 53 rrcurveto
            68 133 rlineto
            134 109 161 136 0 139 0 6 -3 16 -14 0 -15 0 -23 -8 -24 -18 -87 -58 -38 -94 -46 -89 rrcurveto
            -87 -165 rlineto
            -21 -17 -73 -55 -11 -8 -3 -2 0 -1 0 -1 0 -1 1 -1 1 0 1 0 1 1 3 2 rrcurveto
            return
          </CharString>
          <CharString index="93">
            16 11 11 8 11 0 8 0 7 -4 0 -13 0 -16 -15 -24 -20 -35 -21 -36 -36 -66 -14 -17 -3 -3 -1 -2 0 -2 0 -3 1 -2 3 0 rrcurveto
            4 0 8 5 7 4 9 5 8 1 5 7 11 15 41 79 21 23 14 15 37 38 19 0 rrcurveto
            6 2 -7 -6 -16 -20 -43 0 hvcurveto
            -4 -4 -6 2 0 -11 0 -2 2 -1 1 0 18 0 16 15 9 11 21 25 49 41 28 0 8 0 4 -4 0 -7 rrcurveto
            return
          </CharString>
          <CharString index="94">
            0 -35 -97 -95 0 -125 0 -62 42 -43 55 0 63 0 73 58 43 58 1 2 0 0 0 1 0 1 -1 1 -1 0 -1 0 -1 0 -2 -3 rrcurveto
            -30 -44 -79 -63 -51 0 -56 0 -22 55 0 45 0 119 110 106 0 38 rrcurveto
            15 -10 8 -16 -48 -78 -73 0 vhcurveto
            return
          </CharString>
          <CharString index="95">
            0 13 25 19 14 -5 12 -11 hvcurveto
            -31 0 -35 -37 -26 -24 9 15 13 21 0 20 0 17 -9 6 -20 0 -14 0 -19 -10 -12 -8 -6 -4 -12 -8 0 -2 0 -1 0 -1 2 0 rrcurveto
            1 0 1 0 2 1 rrcurveto
            return
          </CharString>
          <CharString index="96">
            8 4 -6 -7 hvcurveto
            0 -13 -27 -49 -8 -15 -22 -41 -10 -16 -14 -24 -16 -27 -10 -15 0 -4 0 -3 3 -2 3 0 5 0 0 1 8 3 11 4 6 -2 3 6 rrcurveto
            73 133 rlineto
            return
          </CharString>
          <CharString index="97">
            3 6 78 64 27 0 13 0 6 -7 0 -18 0 -39 -68 -81 0 -49 0 -18 14 -5 14 0 27 0 57 20 55 53 17 17 18 18 18 24 rrcurveto
            1 2 0 0 0 1 0 1 -1 1 -1 0 -1 0 -1 0 -2 -3 -7 -11 -23 -26 -24 -21 -31 -27 -39 -29 -39 0 -10 0 -6 9 0 10 rrcurveto
            0 36 68 89 0 36 0 16 -6 20 -23 0 -26 0 -44 -22 -55 -47 10 18 10 19 0 10 rrcurveto
            return
          </CharString>
          <CharString index="98">
            13 -10 11 -17 vhcurveto
            -29 0 -30 -23 -4 -3 -3 -2 0 -1 0 -1 0 -1 1 -1 1 0 1 0 1 1 3 2 rrcurveto
            12 8 14 7 14 0 rrcurveto
            return
          </CharString>
          <CharString index="99">
            -15 4 -13 14 0 14 1 0 1 -1 1 0 1 0 5 3 0 3 0 4 -5 5 -4 1 0 6 1 14 6 0 6 0 15 -26 1 -18 rrcurveto
            0 -7 0 -8 -1 -8 rrcurveto
            return
          </CharString>
          <CharString index="100">
            -15 -72 -71 -84 -62 0 rrcurveto
            -23 -9 22 15 71 65 98 62 hvcurveto
            2 -27 25 -22 26 -1 rrcurveto
            return
          </CharString>
          <CharString index="101">
            3 2 0 1 0 1 0 1 -1 1 -1 0 -1 0 -1 -1 -3 -2 -16 -11 -32 -23 -24 0 1 8 1 8 0 8 0 38 -15 28 -25 0 rrcurveto
            -18 0 -7 -25 -1 -12 rrcurveto
            -79 -85 -95 -84 -35 20 -16 34 hvcurveto
            80 0 77 87 16 82 30 3 26 22 21 14 rrcurveto
            return
          </CharString>
          <CharString index="102">
            42 51 81 70 26 0 9 0 13 -4 0 -25 0 -36 -96 -103 -112 -22 rrcurveto
            return
          </CharString>
          <CharString index="103">
            79 0 73 27 67 60 19 17 18 20 17 23 1 2 0 0 0 1 0 1 -1 1 -1 0 -1 0 -1 0 -2 -3 -4 -6 -23 -28 -27 -23 rrcurveto
            -35 -29 -55 -43 -94 0 -20 0 -24 7 -15 8 123 32 112 100 0 58 0 29 -16 5 -10 0 -33 0 -58 -36 -73 -72 7 15 5 16 0 16 rrcurveto
            16 -6 28 -12 vhcurveto
            -9 0 1 -4 -12 -9 -4 -3 -5 -2 0 -2 0 -1 1 -2 3 -1 9 -3 1 -18 0 -14 0 -21 -10 -35 -49 -90 -2 0 -9 -6 0 -4 rrcurveto
            0 -1 0 0 3 -3 -257 -474 -24 -22 -17 -13 -18 -14 -8 1 0 -6 0 -2 3 -1 3 0 4 0 60 7 29 52 99 177 32 89 107 197 rrcurveto
            16 -8 22 -6 21 0 rrcurveto
            return
          </CharString>
          <CharString index="104">
            15 -10 13 -20 vhcurveto
            -20 0 -18 -11 -16 -11 -3 -2 0 -1 0 -1 0 -1 1 -1 1 0 1 0 1 1 3 2 12 8 7 5 14 0 9 0 6 -7 0 -9 rrcurveto
            0 -15 -9 -16 -50 -94 -14 -19 -6 -2 -11 -17 -7 -11 -1 -2 0 -4 0 -6 4 -3 2 -3 6 -8 0 -5 6 0 8 0 14 27 39 72 rrcurveto
            44 59 44 39 28 16 -4 -5 -2 -4 0 -7 0 -10 12 -5 12 0 18 0 13 7 26 19 3 2 0 1 0 1 0 1 -1 1 -1 0 rrcurveto
            -1 0 -1 -1 -3 -2 -11 -8 -14 -9 -10 0 -6 0 -3 3 0 6 0 19 37 23 4 2 1 1 3 1 0 2 0 1 -1 1 -1 0 rrcurveto
            -2 0 -2 -1 -3 -1 -30 -12 -26 -12 -26 -18 -21 -15 -27 -21 -26 -30 4 8 24 39 0 15 rrcurveto
            return
          </CharString>
          <CharString index="105">
            10 14 61 79 43 0 rrcurveto
            24 2 -31 -16 -76 -94 -98 -53 -29 -13 24 24 hvcurveto
            0 7 1 3 0 3 0 2 -1 0 0 flex1
            -6 -25 -33 -9 hvcurveto
            1 -19 46 -10 21 0 rrcurveto
            73 117 103 78 32 -19 29 -32 hvcurveto
            -26 0 -44 -18 -62 -86 -1 -2 0 0 0 -1 0 -1 1 -1 1 0 1 0 1 0 2 3 rrcurveto
            return
          </CharString>
          <CharString index="106">
            -3 -2 0 -1 0 -1 0 -1 1 -1 1 0 1 0 1 1 3 2 4 3 41 7 20 4 rrcurveto
            -48 -89 rlineto
            -17 -30 -12 -27 0 -24 0 -37 29 -15 28 0 73 0 37 30 50 48 16 15 15 17 16 21 1 2 0 0 0 1 0 1 -1 1 -1 0 rrcurveto
            -1 0 -1 0 -2 -3 -4 -6 -26 -31 -26 -23 -43 -38 -28 -24 -57 0 -21 0 -16 17 0 23 0 18 13 30 14 31 rrcurveto
            48 100 rlineto
            31 5 44 8 10 0 rrcurveto
            4 14 8 4 1 -1 0 -2 hvcurveto
            -9 0 -10 -3 -75 -12 31 60 28 51 18 31 9 15 8 12 0 5 0 3 -3 1 -5 0 -17 -1 -15 -18 -7 -14 rrcurveto
            -81 -150 rlineto
            -30 -5 -26 -5 -6 -4 rrcurveto
            return
          </CharString>
          <CharString index="107">
            -20 -30 -71 -84 -72 0 -10 0 -6 9 0 10 0 19 6 20 11 24 42 54 33 64 0 9 0 2 -2 2 -2 0 -7 0 -11 -4 -14 -15 rrcurveto
            -9 -11 -50 -89 -15 -33 -16 -17 -51 -42 -39 0 -10 0 -17 4 0 17 0 26 76 107 0 29 0 22 -13 7 -20 0 -20 0 -19 -11 -16 -11 rrcurveto
            -3 -2 0 -1 0 -1 0 -1 1 -1 1 0 1 0 1 1 3 2 12 8 10 5 14 0 9 0 5 -4 0 -9 0 -31 -80 -108 0 -34 rrcurveto
            -29 25 -5 10 vhcurveto
            38 0 54 30 36 27 -5 -13 -3 -13 0 -10 0 -18 12 -5 14 0 71 0 86 76 35 56 1 2 0 0 0 1 0 1 -1 1 -1 0 rrcurveto
            -1 0 -1 0 -2 -3 rrcurveto
            return
          </CharString>
          <CharString index="108">
            -29 0 -26 -21 -4 -3 -3 -2 0 -1 0 -1 0 -1 1 -1 1 0 1 0 1 1 3 2 12 8 13 6 8 0 5 0 6 -3 0 -10 rrcurveto
            0 -13 -18 -41 -9 -22 -17 -39 -21 -52 0 -28 0 -6 3 -11 4 0 3 0 8 2 4 4 16 16 106 177 125 78 22 13 6 2 0 2 rrcurveto
            2 -1 1 -1 vhcurveto
            -4 0 -16 -8 -10 -6 -95 -55 -72 -98 -57 -73 17 46 42 75 0 32 0 13 -6 15 -18 0 rrcurveto
            return
          </CharString>
          <CharString index="109">
            3 2 0 1 0 1 0 1 -1 1 -1 0 -1 0 -1 -1 -3 -2 -17 -11 -25 -18 -27 0 -21 0 -17 10 -15 15 -7 18 -13 23 -5 0 rrcurveto
            -3 -26 -10 -9 hvcurveto
            0 -6 19 -21 1 -1 rrcurveto
            return
          </CharString>
          <CharString index="110">
            11 -27 9 -25 0 -37 rrcurveto
            -54 -20 -48 -37 -22 -1 27 25 27 -2 54 -24 vhcurveto
            -31 0 -83 -79 -20 -21 43 86 57 59 0 27 0 20 -13 10 -17 0 -29 0 -43 -33 -1 -1 -3 -2 0 -1 0 -1 0 -1 1 -1 1 0 rrcurveto
            1 0 1 1 3 2 12 8 21 14 20 0 6 0 5 -6 0 -4 0 -12 -37 -52 -14 -23 -19 -31 -33 -57 0 -26 rrcurveto
            return
          </CharString>
          <CharString index="111">
            -7 3 -5 5 vhcurveto
            9 0 17 20 17 16 13 12 75 65 14 0 rrcurveto
            13 0 -43 -23 hvcurveto
            return
          </CharString>
          <CharString index="112">
            -30 3 -27 38 26 74 27 101 vhcurveto
            0 15 -2 16 -3 14 7 -2 6 -1 7 0 rrcurveto
            38 0 41 30 17 11 rrcurveto
            return
          </CharString>
          <CharString index="113">
            -13 -19 -25 -25 -22 -19 -28 -23 -29 -20 -13 0 -18 0 -12 19 -10 23 64 85 14 35 22 27 2 2 2 0 0 2 0 2 -3 0 -2 0 rrcurveto
            -3 0 -7 -1 -7 -2 -4 -1 -4 -11 -7 -11 -15 -24 -27 -46 -31 -45 -16 45 -11 45 -6 46 -2 16 1 6 -4 0 -5 0 1 -5 -12 -8 rrcurveto
            -4 -3 -15 -8 0 -4 0 -24 30 -78 27 -51 -37 -46 -36 -36 -30 -29 -60 -60 -63 -45 -56 -38 -7 -5 -2 -1 0 -1 0 -1 1 -1 1 0 rrcurveto
            5 0 8 2 6 1 17 3 0 -4 13 9 47 36 52 48 48 48 24 23 43 49 32 38 13 -23 8 -19 20 0 16 0 28 17 44 39 rrcurveto
            41 37 16 25 5 7 1 2 0 0 0 1 0 1 -1 1 -1 0 -1 0 -1 0 -2 -3 rrcurveto
            return
          </CharString>
          <CharString index="114">
            -157 -296 -60 -106 -68 0 -43 0 -42 29 0 50 0 130 161 70 209 123 rrcurveto
            return
          </CharString>
          <CharString index="115">
            -24 0 -17 -11 -16 -11 -3 -2 0 -1 0 -1 0 -1 1 -1 1 0 1 0 1 1 3 2 12 8 11 6 14 0 8 0 4 -5 0 -9 rrcurveto
            0 -17 -20 -35 -12 -23 -20 -39 -23 -35 0 -24 0 -29 25 -5 10 0 23 0 44 13 46 37 rrcurveto
            -59 -110 rlineto
            -222 -130 -190 -70 0 -156 0 -34 26 -47 63 0 130 0 96 212 125 232 rrcurveto
            92 60 rlineto
            97 63 20 28 24 32 1 2 0 0 0 1 0 1 -1 1 -1 0 -1 0 -1 0 -2 -3 -39 -55 -59 -38 -42 -27 rrcurveto
            -80 -51 102 189 rlineto
            15 28 28 36 0 5 0 1 -1 1 -2 0 -5 0 -7 -1 -10 -1 -22 -2 3 -15 -15 -33 rrcurveto
            -55 -104 rlineto
            -25 -21 -38 -24 -28 0 -10 0 -17 4 0 13 0 21 17 28 16 32 17 34 21 37 0 16 0 15 -10 12 -20 0 rrcurveto
            return
          </CharString>
          <CharString index="116">
            -43 -98 -122 -247 -155 0 -21 0 -17 20 0 25 0 100 121 108 115 51 rrcurveto
            53 24 34 6 35 11 rrcurveto
            return
          </CharString>
          <CharString index="117">
            2 8 1 9 0 7 rrcurveto
            return
          </CharString>
          <CharString index="118">
            37 -44 3 -31 vhcurveto
            34 28 55 45 33 37 7 8 15 17 0 8 0 1 0 1 -2 0 -4 0 -8 -5 -15 -6 -24 -10 -30 -8 -21 0 -49 0 -12 15 0 5 rrcurveto
            0 7 6 1 0 3 0 0 0 1 -1 0 -2 0 -4 -4 -12 -7 -13 -8 -9 -5 0 -3 0 -9 18 -18 35 0 30 0 36 10 39 15 rrcurveto
            return
          </CharString>
          <CharString index="119">
            -13 -37 -71 -54 -33 -30 -13 -3 -34 -13 0 -15 0 -2 1 -1 4 0 rrcurveto
            return
          </CharString>
          <CharString index="120">
            19 0 20 19 12 11 rrcurveto
            return
          </CharString>
          <CharString index="121">
            34 10 -11 -19 hvcurveto
            0 -15 -4 -18 -5 -11 -47 -15 -54 -15 -45 -19 -87 -37 -168 -113 0 -117 0 -38 36 -16 31 0 166 0 161 245 46 130 39 19 34 25 20 18 rrcurveto
            18 16 17 20 18 23 1 2 0 0 0 1 0 1 -1 1 -1 0 -1 0 -1 0 -2 -3 -4 -6 -19 -24 -26 -23 -29 -26 -30 -20 -29 -13 rrcurveto
            return
          </CharString>
          <CharString index="122">
            12 -8 6 -12 -14 -27 -25 -21 -12 6 -6 11 23 21 25 21 vhcurveto
            return
          </CharString>
          <CharString index="123">
            20 11 23 24 34 18 -29 -26 -18 -12 -29 -24 -31 -20 22 37 vhcurveto
            return
          </CharString>
          <CharString index="124">
            -35 27 -24 27 42 40 34 39 41 -31 18 -22 -37 -46 -33 -40 vhcurveto
            return
          </CharString>
          <CharString index="125">
            1 0 1 -2 vhcurveto
            -6 0 -14 -15 -29 0 -37 0 -32 46 -54 0 76 35 78 34 2 49 rrcurveto
            15 -7 28 -50 -55 -22 -39 0 vhcurveto
            -1 -2 0 0 0 -1 0 -1 1 -1 1 0 1 0 1 0 2 3 5 6 14 15 25 0 26 0 26 -8 0 -34 0 -44 -72 -10 -124 -77 rrcurveto
            -8 -5 -4 -3 0 -2 0 -2 0 -1 3 0 12 0 22 27 28 0 31 0 48 -46 32 0 rrcurveto
            33 50 26 5 hvcurveto
            return
          </CharString>
          <CharString index="126">
            -55 -22 -39 0 hvcurveto
            -1 -2 0 0 0 -1 0 -1 1 -1 1 0 1 0 1 0 2 3 5 6 20 20 25 0 31 0 7 -17 0 -10 0 -14 -5 -20 -54 -12 rrcurveto
            -5 -1 -8 -4 -6 -5 -6 -5 -1 -3 4 0 rrcurveto
            return
          </CharString>
          <CharString index="127">
            40 14 -14 -23 -22 -16 -28 -56 -23 -27 18 23 1 -1 0 -1 -5 -23 -12 -6 -29 34 -13 22 56 68 39 43 hvcurveto
            0 21 -10 9 -20 7 rrcurveto
            return
          </CharString>
          <CharString index="128">
            27 9 39 14 0 33 rrcurveto
            15 -12 21 -41 vhcurveto
            return
          </CharString>
          <CharString index="129">
            -7 -4 -4 -2 0 -1 0 -1 2 0 1 0 4 0 83 41 40 17 5 2 5 11 0 5 0 2 0 2 -2 0 -2 0 -3 -1 -3 -2 rrcurveto
            return
          </CharString>
          <CharString index="130">
            -35 -1 28 7 hvcurveto
            61 94 35 69 0 6 0 6 -1 1 -5 0 -1 0 -12 -7 -1 0 -2 -1 -8 -5 -6 -6 -20 -20 -72 -127 0 -33 -264 -392 -168 -62 0 -9 rrcurveto
            -1 0 0 1 vhcurveto
            13 0 190 105 233 342 5 -8 10 -7 18 0 38 0 50 30 36 27 -5 -13 -3 -13 0 -10 0 -18 12 -5 14 0 28 0 60 20 54 56 rrcurveto
            27 29 24 26 0 4 0 1 -1 1 -1 0 -6 0 -80 -117 -81 0 -10 0 -6 9 0 10 0 19 6 20 11 24 42 54 33 64 0 9 rrcurveto
            2 -2 2 -2 vhcurveto
            -7 0 -11 -4 -14 -15 -9 -11 -50 -89 -15 -33 -16 -17 -47 -42 -39 0 rrcurveto
            return
          </CharString>
          <CharString index="131">
            1 -2 0 -1 vhcurveto
            -3 0 -3 0 -1 -1 -19 -34 -27 -40 0 -1 0 -2 4 0 2 0 3 0 -2 4 9 0 rrcurveto
            20 32 -1 -29 -19 -15 -18 -22 hvcurveto
            -27 0 -6 32 -4 0 rrcurveto
            -4 -9 -4 -2 -10 18 -21 29 35 24 28 26 18 -12 26 -46 hvcurveto
            8 14 19 32 0 1 rrcurveto
            return
          </CharString>
          <CharString index="132">
            -4 0 -3 2 -2 0 rrcurveto
            -1 -1 -1 -1 -3 15 -3 6 hvcurveto
            20 0 31 11 31 16 -33 -60 -26 -58 -23 -24 -6 -7 -3 -4 0 -3 0 -2 2 -1 4 0 4 0 5 1 5 1 22 4 -3 -5 6 13 rrcurveto
            8 16 45 101 27 39 15 14 9 15 0 8 0 3 -1 2 -3 0 -6 0 -7 -5 -5 -3 -10 -6 -9 -10 -6 -7 -34 -29 -36 -14 -33 0 rrcurveto
            return
          </CharString>
          <CharString index="133">
            -335 -206 rlineto
            -9 -5 -5 -8 2 -2 2 -2 9 4 9 5 rrcurveto
            335 206 rlineto
            9 5 5 7 -2 2 rrcurveto
            -2 2 -9 -2 -9 -6 rrcurveto
            return
          </CharString>
          <CharString index="134">
            -15 -9 -6 -16 -30 -57 -12 -2 -14 -1 -12 0 -16 0 -33 2 0 12 0 29 81 52 0 6 0 1 0 2 -3 0 -3 0 -20 -1 -6 -8 rrcurveto
            -6 -8 -13 -14 -7 -6 -33 -27 -18 -16 0 -21 0 -13 17 -7 15 0 14 0 41 4 22 4 -19 -36 -17 -31 -15 -16 -6 -7 -3 -4 0 -3 rrcurveto
            -2 2 -1 4 vhcurveto
            4 0 5 1 5 1 22 4 -3 -5 6 13 rrcurveto
            89 174 rlineto
            6 9 12 7 0 7 0 1 0 1 -3 0 -9 0 -6 -9 -17 -10 rrcurveto
            return
          </CharString>
          <CharString index="135">
            -5 0 -8 -5 -4 -3 -81 -54 -32 -16 0 -3 0 0 0 -1 1 0 1 0 5 0 9 5 rrcurveto
            96 53 rlineto
            11 -23 7 -16 8 -20 0 -1 0 1 1 0 2 0 5 6 4 2 6 3 5 2 -1 1 -14 27 -4 15 -8 23 -1 3 -1 1 -2 0 rrcurveto
            return
          </CharString>
          <CharString index="136">
            -36 -45 -53 -9 -1 1 -1 1 hvcurveto
            3 0 4 7 4 5 13 16 20 19 13 0 28 0 4 -48 34 0 rrcurveto
            36 45 53 9 1 -1 1 -1 hvcurveto
            -3 0 -4 -7 -4 -5 -13 -16 -20 -19 -13 0 -30 0 -4 48 -32 0 rrcurveto
            return
          </CharString>
          <CharString index="137">
            0 -11 5 -9 8 -6 rrcurveto
            -44 -50 rlineto
            -174 -203 -100 -94 -84 -73 rrcurveto
            return
          </CharString>
          <CharString index="138">
            -9 -8 -14 -7 -9 -3 -4 -1 -4 -2 0 -4 0 -3 3 -1 3 0 10 0 9 3 8 1 19 2 12 3 12 9 29 24 50 54 56 64 rrcurveto
            3 1 3 0 4 0 rrcurveto
            return
          </CharString>
          <CharString index="139">
            21 0 37 -11 37 0 12 0 12 1 36 4 -3 -21 -2 -26 0 -24 0 -53 6 -28 41 0 19 0 25 7 26 15 46 27 33 28 37 49 rrcurveto
            1 2 0 0 0 1 0 1 -1 1 -1 0 -1 0 -1 0 -2 -3 -4 -6 -19 -24 -26 -23 -29 -25 -47 -33 -27 0 -19 0 -13 18 0 58 rrcurveto
            0 19 2 23 3 26 36 9 40 30 0 5 0 3 -1 0 -2 0 -5 0 -23 -27 -44 -11 15 116 35 109 8 44 26 6 21 25 0 25 rrcurveto
            20 -16 14 -21 -32 -28 -26 -31 vhcurveto
            return
          </CharString>
          <CharString index="140">
            18 11 -18 -13 -22 -16 -15 -18 -14 -14 14 15 20 13 19 20 hvcurveto
            return
          </CharString>
          <CharString index="141">
            14 79 21 83 15 40 1 5 10 17 0 9 rrcurveto
            1 vlineto
            2 -2 2 -2 vhcurveto
            -5 0 -11 -7 -6 -2 -27 -11 -2 3 -36 -42 -174 -203 -100 -94 -84 -73 -9 -8 -14 -7 -9 -3 -4 -1 -4 -2 0 -4 0 -3 3 -1 3 0 rrcurveto
            10 0 9 3 8 1 19 2 12 3 12 9 29 24 50 54 56 64 3 1 3 0 4 0 rrcurveto
            return
          </CharString>
          <CharString index="142">
            21 0 37 -11 37 0 12 0 12 1 36 4 -2 -16 -1 -14 0 -14 rrcurveto
            -72 34 -44 96 125 69 97 37 vhcurveto
            0 6 -3 1 -5 4 -6 4 -5 4 -1 0 -2 0 0 -2 0 -1 0 -3 2 -4 0 -6 rrcurveto
            -55 -54 -61 -98 -44 -64 23 70 vhcurveto
            0 66 32 82 152 18 19 2 2 9 0 9 0 3 -5 2 -15 7 -23 13 -15 31 0 24 0 20 13 43 91 0 56 0 31 -39 6 -21 rrcurveto
            1 -3 0 -3 3 0 3 0 1 4 2 4 7 17 7 3 0 10 rrcurveto
            31 -84 9 -22 -100 -49 -61 -40 vhcurveto
            0 -19 8 -23 22 -15 6 -4 0 -3 0 -1 rrcurveto
            0 -6 -80 -12 -58 -46 rrcurveto
            return
          </CharString>
          <CharString index="143">
            -35 0 -119 -2 -44 -2 rrcurveto
            -8 -30 -18 -5 -1 1 0 1 hvcurveto
            84 4 39 -2 77 2 4 0 6 4 8 5 9 5 9 4 0 4 rrcurveto
            1 -1 1 -1 vhcurveto
            return
          </CharString>
          <CharString index="144">
            2 -2 1 -2 vhcurveto
            -16 0 -31 -22 -36 -22 rrcurveto
            -412 -257 rlineto
            -73 -44 -3 3 0 -5 0 -3 4 -2 2 0 6 0 26 15 39 25 rrcurveto
            413 256 rlineto
            83 51 2 -4 0 6 rrcurveto
            return
          </CharString>
          <CharString index="145">
            -20 17 -14 22 31 27 28 29 20 -16 14 -21 -32 -28 -26 -31 vhcurveto
            return
          </CharString>
          <CharString index="146">
            -10 27 -18 17 -32 0 rrcurveto
            -81 -94 -105 -75 -28 10 -23 31 hvcurveto
            37 0 54 42 23 20 -2 -9 0 -6 0 -8 rrcurveto
            return
          </CharString>
          <CharString index="147">
            -33 39 -10 16 vhcurveto
            49 0 42 4 76 67 19 17 18 18 15 20 1 2 0 0 0 1 0 1 -1 1 -1 0 -1 0 -1 0 -2 -3 -4 -6 -19 -24 -26 -23 rrcurveto
            -36 -31 -54 -34 -44 0 -34 0 -15 18 0 26 0 12 3 16 6 17 91 64 54 29 0 25 0 13 -9 7 -17 0 rrcurveto
            -16 0 -34 -16 -33 -30 rrcurveto
            return
          </CharString>
          <CharString index="148">
            -29 -27 -27 -36 -15 -46 rrcurveto
            return
          </CharString>
          <CharString index="149">
            -55 -46 -23 -8 -13 0 rrcurveto
            -23 -5 18 17 66 73 101 66 hvcurveto
            27 0 15 -18 9 -21 rrcurveto
            return
          </CharString>
          <CharString index="150">
            -13 -15 -14 -14 -9 7 -6 10 15 13 13 15 9 -7 6 -10 hvcurveto
            return
          </CharString>
          <CharString index="151">
            2 2 1 2 0 1 0 2 -2 2 -3 0 -3 0 -2 -2 -5 -5 rrcurveto
            -316 -346 rlineto
            -2 -2 -1 -2 0 -1 0 -1 1 0 1 0 5 0 6 3 3 3 rrcurveto
            return
          </CharString>
          <CharString index="152">
            -2 -2 -3 -3 -4 2 -4 5 hvcurveto
            113 0 -14 -1 42 0 rrcurveto
            15 14 1 8 3 -2 2 -6 hvcurveto
            -36 0 -75 1 -54 0 rrcurveto
            return
          </CharString>
          <CharString index="153">
            59 61 65 6 hvcurveto
            -1 hlineto
            -1 0 -3 -1 -5 -2 -7 -3 -6 -5 -2 -2 -26 -38 -31 -6 -15 0 -21 0 -18 12 0 23 0 11 5 10 0 1 0 0 0 1 -1 0 rrcurveto
            -6 0 -15 -8 -2 -5 -3 -8 -2 -7 0 -7 rrcurveto
            -17 8 -20 32 vhcurveto
            return
          </CharString>
          <CharString index="154">
            -1 0 -48 -25 -3 -2 -25 -14 -31 -18 0 -29 rrcurveto
            -24 25 -4 18 14 30 9 2 1 -2 0 -2 vhcurveto
            -2 0 -8 -4 -10 0 -18 0 -14 13 0 16 0 26 25 18 17 11 8 5 29 15 0 2 0 1 -1 1 -1 0 rrcurveto
            return
          </CharString>
          <CharString index="155">
            5 0 8 5 4 3 81 54 32 16 0 3 0 0 0 1 -1 0 -1 0 -5 0 -9 -5 rrcurveto
            -96 -53 rlineto
            -11 23 -7 16 -8 20 0 1 0 -1 -1 0 -2 0 -5 -6 -4 -2 -6 -3 -5 -2 1 -1 14 -27 4 -15 8 -23 1 -3 1 -1 2 0 rrcurveto
            return
          </CharString>
          <CharString index="156">
            -3 -22 -7 -7 hvcurveto
            0 -7 17 -13 0 -22 0 -33 -39 -32 -24 -16 -4 -3 -3 0 0 -3 0 -1 1 -1 2 0 6 0 84 56 1 53 rrcurveto
            13 -2 23 -14 vhcurveto
            return
          </CharString>
          <CharString index="157">
            -35 0 -72 -2 -44 -2 rrcurveto
            -8 -17 -14 -5 -1 1 0 1 hvcurveto
            84 4 -16 -2 76 2 rrcurveto
            15 17 17 1 1 -1 1 -1 hvcurveto
            return
          </CharString>
          <CharString index="158">
            -4 -3 -3 0 0 -3 rrcurveto
            -1 1 -1 2 4 60 41 39 14 -8 19 -10 -3 -20 -7 -7 vhcurveto
            0 -7 18 -16 0 -15 0 -23 -20 -19 -17 -11 rrcurveto
            return
          </CharString>
          <CharString index="159">
            -115 -76 -9 -5 0 -1 0 -1 1 -1 1 0 8 0 17 14 96 52 5 3 6 9 0 5 0 2 0 2 -2 0 rrcurveto
            -2 0 -3 -1 -3 -2 rrcurveto
            return
          </CharString>
          <CharString index="160">
            11 -9 15 -14 vhcurveto
            -15 0 -20 -8 -24 -18 -71 -50 -30 -62 -70 -128 rrcurveto
            -117 -218 rlineto
            -6 2 -6 1 -5 0 -14 0 -20 -13 -12 -8 -6 -4 -12 -8 0 -2 0 -1 0 -1 2 0 1 0 1 0 2 1 11 7 22 17 14 0 rrcurveto
            6 0 6 -1 9 -3 rrcurveto
            -161 -313 rlineto
            -58 -112 -83 -173 -68 0 -17 0 -17 13 0 22 0 2 2 1 0 1 0 1 -1 1 -1 0 -2 0 -1 -3 -15 -8 -6 -3 -10 -4 0 -3 rrcurveto
            -16 18 -20 26 vhcurveto
            113 0 84 181 67 122 101 182 82 181 92 171 67 124 67 126 42 0 8 0 13 -8 0 -15 0 -46 -36 -36 0 -4 0 -1 1 0 1 0 rrcurveto
            6 0 19 9 6 8 18 26 20 31 0 34 rrcurveto
            return
          </CharString>
          <CharString index="161">
            -88 72 -49 74 123 189 148 179 vhcurveto
            0 23 -4 31 -7 26 4 -1 4 0 5 0 rrcurveto
            40 34 27 31 2 -1 2 -2 -2 -1 -2 -2 -23 -32 -11 -26 hvcurveto
            -26 0 -7 26 -17 0 -8 0 -18 -24 0 -3 0 -9 10 -5 9 -24 8 -22 6 -31 0 -29 rrcurveto
            -143 -138 -136 -130 -71 -47 55 80 vhcurveto
            0 58 29 60 31 46 rrcurveto
            return
          </CharString>
          <CharString index="162">
            45 67 61 42 79 0 51 0 26 -39 0 -26 0 -8 -4 -8 0 -6 0 -3 2 -2 3 0 4 0 4 13 6 13 6 11 7 10 0 8 rrcurveto
            27 -50 27 -34 vhcurveto
            -84 0 -82 -45 -59 -72 rrcurveto
            -41 -50 -41 -83 0 -68 rrcurveto
            return
          </CharString>
          <CharString index="163">
            7 -2 8 -2 9 0 rrcurveto
            35 34 25 31 2 -1 2 -2 -2 -1 -2 -2 -23 -33 -14 -26 hvcurveto
            return
          </CharString>
          <CharString index="164">
            -15 0 -10 2 -7 4 -6 21 -13 13 -17 0 -6 0 -3 -4 0 -5 0 -12 13 -19 23 -11 rrcurveto
            return
          </CharString>
          <CharString index="165">
            2 -5 1 -5 0 -5 rrcurveto
            -91 -87 -97 -64 -23 -9 22 15 71 65 98 62 vhcurveto
            return
          </CharString>
          <CharString index="166">
            25 0 4 -10 1 0 rrcurveto
            1 5 3 3 hvcurveto
            return
          </CharString>
          <CharString index="167">
            4 -8 11 -28 -79 -85 -95 -84 -35 20 -16 34 88 88 106 95 vhcurveto
            return
          </CharString>
          <CharString index="168">
            64 6 8 40 0 12 rrcurveto
            2 -1 2 -2 -2 -1 -2 -2 vhcurveto
            0 -18 -22 -10 -25 -4 rrcurveto
            return
          </CharString>
          <CharString index="169">
            -10 -25 rlineto
            55 9 8 37 0 11 rrcurveto
            2 -1 2 -2 -2 -1 -2 -2 vhcurveto
            0 -18 -21 -10 -26 -4 rrcurveto
            return
          </CharString>
          <CharString index="170">
            -59 -61 -65 -6 hvcurveto
            1 hlineto
            1 0 3 1 5 2 7 3 6 5 2 2 26 38 31 6 15 0 21 0 18 -12 0 -23 0 -11 -5 -10 0 -1 0 0 0 -1 1 0 rrcurveto
            6 0 15 8 2 5 3 8 2 7 0 7 rrcurveto
            17 -8 20 -32 vhcurveto
            return
          </CharString>
          <CharString index="171">
            18 11 -18 -13 -22 -16 -15 -18 -4 -6 -6 -3 -1 1 -1 3 31 27 28 29 20 -16 14 -21 -6 -9 -6 -4 -1 2 -1 3 hvcurveto
            return
          </CharString>
          <CharString index="172">
            20 -16 14 -21 -6 -9 -6 -4 -1 2 -1 3 18 11 -18 -13 vhcurveto
            0 -35 -54 6 0 -36 rrcurveto
            -1 1 -1 2 5 10 6 4 vhcurveto
            1 26 53 -2 0 42 rrcurveto
            return
          </CharString>
          <CharString index="173">
            0 -59 -25 -37 -24 25 -5 18 14 30 10 2 1 -2 0 -2 hvcurveto
            -2 0 -8 -4 -10 0 -18 0 -14 13 0 16 0 30 31 14 0 6 rrcurveto
            1 0 2 -3 vhcurveto
            return
          </CharString>
          <CharString index="174">
            0 -3 -3 -1 -1 1 0 1 hvcurveto
            1 0 3 2 1 2 42 37 21 14 44 38 3 2 1 2 0 3 0 3 -4 11 -3 0 -1 0 -6 -5 -4 -4 rrcurveto
            return
          </CharString>
          <CharString index="175">
            -63 -116 -14 -5 -29 -3 rrcurveto
            -4 -2 -3 -2 -2 2 -2 6 hvcurveto
            3 0 15 3 17 1 66 4 -20 -3 44 88 70 140 39 71 78 129 5 8 38 1 0 6 rrcurveto
            return
          </CharString>
          <CharString index="176">
            1 -1 3 -4 vhcurveto
            -14 -26 -2 -22 -30 -16 -13 hflex
            -4 -4 -2 -2 hvcurveto
            0 -3 12 1 11 -3 8 -2 7 -4 0 -6 rrcurveto
            0 -14 -125 -229 -30 -55 rrcurveto
            return
          </CharString>
          <CharString index="177">
            -22 -1 -21 -1 -22 0 -19 0 -30 2 -9 flex1
            -3 0 -6 -6 -10 -6 -8 -5 -10 -4 0 -1 0 0 1 -1 1 0 105 0 42 -3 23 0 7 0 8 4 9 4 11 5 15 6 0 5 rrcurveto
            0 17 -76 34 0 115 rrcurveto
            84 88 171 196 80 85 -58 -105 vhcurveto
            0 -116 -90 -74 -88 -59 -19 -12 -33 -9 0 -17 rrcurveto
            return
          </CharString>
          <CharString index="178">
            -4 3 -2 2 vhcurveto
            7 0 23 14 16 12 40 -3 96 -49 59 0 rrcurveto
            33 21 23 3 1 -1 1 -1 hvcurveto
            -4 0 -4 -6 -14 0 -71 0 -70 47 -53 7 166 125 22 85 0 52 rrcurveto
            109 -102 50 -82 -223 -124 -178 -111 vhcurveto
            0 -57 19 -44 37 -44 rrcurveto
            return
          </CharString>
          <CharString index="179">
            2 -33 17 -29 33 0 23 0 20 5 26 15 46 27 33 28 37 49 1 2 0 0 0 1 0 1 -1 1 -1 0 -1 0 -1 0 -2 -3 rrcurveto
            -4 -6 -19 -24 -26 -23 -29 -25 -47 -31 -32 0 -37 0 -9 36 0 21 0 7 1 7 1 6 38 41 42 51 18 23 1 1 0 1 0 1 rrcurveto
            -1 1 0 0 -1 0 -2 0 -3 -1 -1 -2 -16 -20 -39 -45 -33 -35 rrcurveto
            return
          </CharString>
          <CharString index="180">
            8 28 15 22 0 33 rrcurveto
            22 -7 18 -34 -75 -105 -112 -69 -27 17 -25 27 vhcurveto
            37 0 42 22 41 40 rrcurveto
            return
          </CharString>
          <CharString index="181">
            -34 -32 -38 -24 -22 0 rrcurveto
            -25 -7 15 22 66 82 102 49 hvcurveto
            return
          </CharString>
          <CharString index="182">
            19 4 -13 -14 hvcurveto
            0 -41 -26 -35 -2 -46 rrcurveto
            return
          </CharString>
          <CharString index="183">
            -37 -28 17 38 33 51 32 11 hvcurveto
            4 0 1 -1 4 0 10 0 5 6 10 4 6 3 7 4 0 4 0 2 -5 1 -6 0 -5 0 -9 -2 -5 0 rrcurveto
            -8 -16 19 17 30 20 8 25 hvcurveto
            30 0 7 -28 4 0 rrcurveto
            2 23 13 2 11 -17 16 -25 -46 -49 -32 -36 hvcurveto
            0 -7 2 -15 10 -8 -20 -8 -59 -33 0 -46 0 -43 36 -16 42 0 27 0 32 10 21 10 47 24 50 40 37 48 1 2 0 0 0 1 rrcurveto
            1 -1 1 -1 vhcurveto
            -1 0 -1 0 -2 -3 -4 -6 -19 -24 -26 -23 -36 -31 -52 -35 -47 0 rrcurveto
            return
          </CharString>
          <CharString index="184">
            10 18 10 20 0 10 0 13 -10 11 -17 0 -29 0 -30 -23 -4 -3 -3 -2 0 -1 0 -1 0 -1 1 -1 1 0 1 0 1 1 3 2 rrcurveto
            12 8 14 7 14 0 8 0 4 -6 0 -7 0 -13 -27 -49 -8 -15 -22 -41 -10 -16 -14 -24 -16 -27 -10 -15 0 -4 0 -3 3 -2 3 0 rrcurveto
            5 0 0 1 8 3 11 4 5 -3 4 7 rrcurveto
            50 89 rlineto
            0 1 24 44 2 4 4 6 54 37 16 8 rrcurveto
            return
          </CharString>
          <CharString index="185">
            15 8 14 6 9 0 7 0 0 -7 0 -5 0 -22 -60 -90 -44 -123 -24 -68 -19 -75 0 -95 rrcurveto
            -101 22 -70 6 2 3 4 5 vhcurveto
            0 8 -16 80 0 68 0 23 0 80 51 134 51 133 64 87 0 34 0 16 -10 3 -7 0 -16 0 -22 -11 -12 -6 rrcurveto
            -28 -15 -30 -21 -24 -17 rrcurveto
            return
          </CharString>
          <CharString index="186">
            3 2 0 1 0 1 0 1 -1 1 -1 0 -1 0 -1 -1 -3 -2 -17 -12 -24 -9 -19 0 -21 0 -11 17 0 11 0 10 1 3 0 8 rrcurveto
            1 0 2 -3 -8 -25 -7 -10 vhcurveto
            return
          </CharString>
          <CharString index="187">
            0 -18 10 1 0 -27 rrcurveto
            -79 -44 -86 -75 -23 -30 9 42 vhcurveto
            0 15 4 18 11 19 16 27 26 33 0 29 0 19 -19 6 -16 0 -28 0 -25 -19 -4 -3 -3 -2 0 -1 0 -1 0 -1 1 -1 1 0 rrcurveto
            1 0 1 1 3 2 12 8 13 7 12 0 9 0 9 -5 0 -12 0 -20 -29 -37 -9 -16 -14 -25 -8 -23 0 -20 rrcurveto
            -20 10 -46 55 72 100 63 120 vhcurveto
            7 -2 8 -1 10 0 rrcurveto
            21 0 33 20 13 9 rrcurveto
            return
          </CharString>
          <CharString index="188">
            -66 -167 -131 -194 hvcurveto
            0 -60 11 -88 2 -10 -65 -14 -125 -60 0 -108 rrcurveto
            -34 18 -20 38 vhcurveto
            return
          </CharString>
          <CharString index="189">
            0 52 -24 126 0 76 rrcurveto
            127 114 127 71 40 26 -19 -67 vhcurveto
            0 -31 -9 -4 0 -9 rrcurveto
            -1 1 -1 1 10 23 69 24 vhcurveto
            36 -27 24 -47 vhcurveto
            return
          </CharString>
          <CharString index="190">
            2 -12 9 -33 0 -23 rrcurveto
            -52 -47 -96 -82 -32 -2 26 16 vhcurveto
            0 88 70 66 82 20 rrcurveto
            return
          </CharString>
          <CharString index="191">
            -29 0 -24 -19 -4 -3 -3 -2 0 -1 0 -1 0 -1 1 -1 1 0 1 0 1 1 3 2 12 8 11 7 14 0 5 0 13 -5 0 -12 rrcurveto
            0 -18 -22 -27 -16 -28 -15 -25 -9 -29 0 -20 0 -38 24 -16 24 0 70 0 73 69 69 105 5 -1 5 -1 5 0 34 0 25 12 28 19 rrcurveto
            3 2 0 1 0 1 0 1 -1 1 -1 0 -1 0 -1 -1 -3 -2 -10 -7 -24 -15 -30 0 -8 0 -7 3 -7 4 94 148 64 188 0 92 rrcurveto
            56 -8 23 -30 vhcurveto
            -23 0 -29 -21 -5 -4 -84 -67 -61 -210 0 -108 0 -50 23 -43 32 -16 -58 -90 -65 -74 -54 0 -21 0 -11 18 0 24 0 58 59 41 0 47 rrcurveto
            19 -19 6 -16 vhcurveto
            return
          </CharString>
          <CharString index="192">
            -23 21 -17 39 0 41 0 130 70 178 56 57 7 7 8 6 9 0 27 0 7 -20 0 -56 0 -85 -57 -175 -87 -143 rrcurveto
            return
          </CharString>
          <CharString index="193">
            -189 -289 -171 -478 0 -1 0 -1 1 0 0 0 2 0 11 6 7 4 9 5 17 -1 1 4 67 267 147 311 124 188 17 26 64 73 43 0 rrcurveto
            28 12 -25 -33 -66 -56 -83 -64 hvcurveto
            -38 0 -19 24 -4 0 -2 0 -7 -9 -8 -4 -8 -5 -6 0 0 -2 rrcurveto
            -7 20 -17 48 66 112 77 110 23 -9 39 -34 vhcurveto
            -36 0 -82 -39 -63 -97 rrcurveto
            return
          </CharString>
          <CharString index="194">
            -42 31 -14 19 vhcurveto
            28 0 32 18 19 16 2 -6 1 -4 3 -5 rrcurveto
            return
          </CharString>
          <CharString index="195">
            11 -20 19 -6 17 0 33 0 95 33 0 115 0 9 -1 10 -1 8 38 0 39 30 10 7 3 2 0 1 0 1 0 1 -1 1 -1 0 rrcurveto
            -1 0 -1 -1 -3 -2 -5 -3 -27 -19 -21 0 -45 0 7 36 -8 0 -8 0 -23 -14 0 -5 0 -16 20 -20 0 -44 0 -36 -21 -77 -54 0 rrcurveto
            -28 0 -18 33 -1 27 15 23 7 23 0 13 0 5 -2 4 -5 0 -2 0 -13 -5 -3 -2 0 0 -30 -13 0 -67 rrcurveto
            return
          </CharString>
          <CharString index="196">
            -21 -30 -20 -7 -14 0 -20 0 -16 22 0 32 0 84 85 41 0 27 0 8 -9 2 -26 0 -25 0 -17 -8 -21 -14 -3 -2 0 -1 0 -1 rrcurveto
            -1 1 -1 1 vhcurveto
            1 0 1 1 3 2 16 11 11 2 21 0 4 0 3 -3 0 -5 rrcurveto
            0 -24 -81 -41 0 -89 rrcurveto
            return
          </CharString>
          <CharString index="197">
            12 22 65 77 0 0 75 86 64 61 42 24 14 7 15 7 23 0 18 0 8 -16 0 -9 0 -21 -34 -2 0 -9 rrcurveto
            -1 1 -1 1 11 61 29 27 11 -12 16 -18 vhcurveto
            -31 0 -39 -18 -22 -13 -47 -27 -53 -39 -94 -111 rrcurveto
            -29 -35 rlineto
            21 51 13 57 0 27 0 78 -49 30 -49 0 -19 0 -41 -11 -33 -34 -7 -7 -4 -5 0 -2 0 -2 1 -1 2 0 2 0 3 4 6 6 rrcurveto
            30 30 28 3 13 0 29 0 52 -17 0 -74 0 -63 -30 -82 -104 -168 -10 -16 -14 -14 0 -3 0 -2 3 -1 2 0 4 0 0 3 10 4 rrcurveto
            24 9 9 -6 7 11 11 17 28 56 31 57 rrcurveto
            return
          </CharString>
          <CharString index="198">
            0 1 -16 13 0 21 0 38 47 14 0 11 rrcurveto
            6 -13 6 -3 -9 -35 -25 -35 -29 22 -24 3 3 1 2 1 vhcurveto
            return
          </CharString>
          <CharString index="199">
            -2 4 -3 1 -2 0 -6 0 -4 -11 0 -8 0 -6 3 -2 35 -60 1 -2 2 -1 2 0 3 0 3 2 0 3 0 2 -21 51 -11 27 rrcurveto
            return
          </CharString>
          <CharString index="200">
            -33 0 -33 -43 -18 -23 -2 -3 0 0 0 -1 0 0 1 -1 1 0 2 0 1 1 2 2 16 19 25 35 21 0 26 0 4 -55 29 0 rrcurveto
            45 31 63 2 0 0 1 -1 hvcurveto
            -1 0 -1 0 -5 -2 -5 -2 -3 -8 -1 -2 -17 -34 -15 -4 -6 0 -27 0 -8 55 -28 0 rrcurveto
            return
          </CharString>
          <CharString index="201">
            4 3 3 0 0 3 rrcurveto
            1 -1 1 -2 -4 -60 -41 -39 -14 8 -19 10 3 20 7 7 vhcurveto
            0 7 -18 16 0 15 0 23 20 19 17 11 rrcurveto
            return
          </CharString>
          <CharString index="202">
            0 44 22 39 29 29 31 31 13 0 0 3 0 1 -1 0 -1 0 -7 0 -21 -12 -21 -18 -51 -44 -24 -50 0 -42 0 -25 18 -21 4 0 rrcurveto
            4 0 5 4 8 5 8 5 8 4 0 1 0 2 -24 8 0 36 rrcurveto
            return
          </CharString>
          <CharString index="203">
            0 -44 -22 -39 -29 -29 -31 -31 -13 0 0 -3 0 -1 1 0 1 0 7 0 21 12 21 18 51 44 24 50 0 42 0 25 -18 21 -4 0 rrcurveto
            -4 0 -5 -4 -8 -5 -8 -5 -8 -4 0 -1 0 -2 24 -8 0 -36 rrcurveto
            return
          </CharString>
          <CharString index="204">
            1 48 65 89 38 0 22 0 6 -32 0 -8 -1 -55 -57 -83 -43 0 -21 0 -10 17 0 24 rrcurveto
            return
          </CharString>
          <CharString index="205">
            60 89 81 89 19 -10 22 -20 -62 -96 -89 -81 -25 17 -16 22 hvcurveto
            return
          </CharString>
          <CharString index="206">
            60 76 42 46 17 -9 24 -41 hvcurveto
            -16 0 -10 -2 -14 -5 10 16 8 14 14 28 5 0 13 -2 9 0 22 0 26 2 19 10 5 3 18 12 0 2 0 0 0 1 -1 0 rrcurveto
            -5 0 -3 -10 -55 0 -49 0 4 6 -8 0 -6 0 -2 -1 -1 -4 -21 -56 -24 -31 0 -2 0 0 0 -2 2 0 5 0 16 10 20 0 rrcurveto
            26 11 -16 -24 -32 -34 -33 -45 -22 -17 14 13 hvcurveto
            0 8 6 3 0 4 0 2 -1 1 -2 0 -2 0 -2 -1 -1 -1 -13 -11 -13 -4 0 -15 rrcurveto
            -17 25 -9 17 vhcurveto
            return
          </CharString>
          <CharString index="207">
            -11 -57 -17 -30 -24 25 -11 17 hvcurveto
            63 0 31 57 23 47 14 29 9 31 0 16 rrcurveto
            20 -22 7 -14 -43 -51 -24 -41 -27 27 -9 19 vhcurveto
            10 0 9 0 11 4 -28 -61 -22 -40 -34 0 -17 0 -11 15 0 12 0 13 7 13 12 6 17 9 21 2 0 2 rrcurveto
            1 -3 0 -2 vhcurveto
            return
          </CharString>
          <CharString index="208">
            -5 -5 -6 0 -4 0 rrcurveto
            -26 -22 13 24 26 39 20 29 15 1 -11 -7 hvcurveto
            0 -20 -17 -32 -4 -8 rrcurveto
            return
          </CharString>
          <CharString index="209">
            0 1 -20 10 0 24 0 53 32 55 34 36 21 22 10 8 39 24 2 1 1 1 0 1 0 2 -1 1 -3 0 -23 0 -46 -36 -16 -15 rrcurveto
            -41 -40 -41 -49 0 -57 rrcurveto
            -20 16 -35 23 3 10 10 3 vhcurveto
            return
          </CharString>
          <CharString index="210">
            -20 -29 -24 -44 -31 -43 -63 -88 -14 -12 0 -7 0 -11 21 0 108 -182 5 -9 2 -10 5 0 10 0 19 7 9 14 41 63 26 45 82 96 rrcurveto
            3 4 2 3 0 5 0 6 -15 6 -55 88 -67 104 1 19 -5 0 -9 0 -4 -5 -9 -6 -10 -7 -4 -2 -4 -5 rrcurveto
            return
          </CharString>
          <CharString index="211">
            -35 46 -22 21 0 9 0 11 1 -2 51 79 16 25 53 79 6 0 4 0 37 -59 24 -38 14 -21 53 -72 0 -9 0 -4 -2 -4 -4 -6 rrcurveto
            -72 -93 -48 -74 -4 0 -3 0 -32 61 -37 51 rrcurveto
            return
          </CharString>
          <CharString index="212">
            -49 70 -11 44 -5 0 -7 0 -2 -4 -5 -3 -13 -8 6 -10 -27 -45 -67 -113 -74 -16 0 -65 0 -43 36 -28 36 0 36 0 23 26 32 4 rrcurveto
            -7 -99 -59 -29 -8 -3 -6 -3 -11 2 0 -5 0 -3 2 -6 3 0 6 0 73 3 37 0 26 0 44 -3 5 0 3 0 2 8 0 3 rrcurveto
            0 5 -22 -6 -19 27 -16 23 -25 22 -4 62 25 -9 18 -25 32 0 38 0 58 35 0 53 0 57 -65 27 -39 55 rrcurveto
            return
          </CharString>
          <CharString index="213">
            -46 0 -53 -24 -32 -64 -21 53 -31 35 -57 0 -58 0 -78 -56 0 -79 0 -102 142 -69 64 -111 7 -13 6 -12 5 -14 1 -2 7 1 9 5 rrcurveto
            9 5 6 5 1 3 49 136 176 68 0 118 0 60 -46 57 -60 0 rrcurveto
            return
          </CharString>
          <CharString index="214">
            9 -33 30 -33 0 -6 rrcurveto
            -2 -53 -4 -13 -11 -8 1 3 vhcurveto
            0 1 36 32 10 41 rrcurveto
            return
          </CharString>
          <CharString index="215">
            -20 13 -7 20 0 7 1 0 1 -1 1 0 1 0 5 3 0 3 0 4 -5 5 -4 1 0 6 1 14 6 0 6 0 15 -26 1 -18 rrcurveto
            1 -10 -1 -10 -2 -11 rrcurveto
            return
          </CharString>
          <CharString index="216">
            -17 19 -6 25 0 9 1 0 1 -1 1 0 1 0 5 3 0 3 0 4 -5 5 -4 1 rrcurveto
            6 1 14 6 6 15 -21 -23 vhcurveto
            0 -13 -1 -16 -4 -15 rrcurveto
            return
          </CharString>
          <CharString index="217">
            -6 16 -2 16 0 14 0 70 63 73 83 74 -50 -99 -46 -95 -42 -69 rrcurveto
            return
          </CharString>
          <CharString index="218">
            -89 -172 rlineto
            -91 -68 -29 -17 -73 -59 rrcurveto
            -31 -25 106 195 rlineto
            return
          </CharString>
          <CharString index="219">
            0 0 -169 -334 -55 -91 -69 -115 -32 -5 -24 0 -35 0 -21 16 -13 20 35 55 76 136 78 142 rrcurveto
            69 56 rlineto
            61 49 38 26 61 45 rrcurveto
            return
          </CharString>
          <CharString index="220">
            -35 -63 -36 -68 -34 -68 -106 -90 -87 -89 0 -83 0 -19 5 -25 13 -21 -30 -38 -58 -42 -26 0 -44 0 -10 98 0 27 0 40 5 116 443 325 rrcurveto
            return
          </CharString>
          <CharString index="221">
            71 138 125 257 53 0 8 0 5 -9 0 -11 0 -54 -24 -54 -36 -50 -58 -80 -72 -73 -72 -64 rrcurveto
            return
          </CharString>
        <CharString name=".notdef">
          186 0 50 433 50 hstem
          50 50 300 50 vstem
          50 hmoveto
          400 533 -400 hlineto
          50 -483 rmoveto
          433 300 -433 vlineto
          endchar
        </CharString>
        <CharString name="A">
          -7 11 -8 17 130 16 -5 17 280 -20 hstemhm
          346 44 13 61 hintmask 00011110
          202 171 rmoveto
          -92 callsubr
          hintmask 00101110
          -91 callsubr
          hintmask 00011110
          -90 callsubr
          -33 -18 rmoveto
          -89 callsubr
          hintmask 01101110
          -88 callsubr
          hintmask 10011110
          -87 callsubr
          endchar
        </CharString>
        <CharString name="AE">
          366 -12 21 134 16 -5 17 280 -20 0 12 hstemhm
          348 44 11 61 41 34 2 56 55 20 64 24 hintmask 1011011111100000
          403 213 rmoveto
          34 callsubr
          hintmask 1100111111100000
          35 callsubr
          hintmask 1010011111100000
          -201 -42 rmoveto
          -92 callsubr
          hintmask 1100011111100000
          -91 callsubr
          hintmask 1010011111100000
          -90 callsubr
          endchar
        </CharString>
        <CharString name="AEacute">
          366 -12 21 134 16 -5 17 260 12 -12 20 49 80 hstemhm
          348 44 11 61 39 140 -138 34 2 56 55 20 64 24 hintmask 0000010010000000
          514 508 rmoveto
          22 callsubr
          hintmask 1010101101111000
          -230 -364 rmoveto
          34 callsubr
          hintmask 1101001101111000
          35 callsubr
          hintmask 1010001101111000
          -201 -42 rmoveto
          -92 callsubr
          hintmask 1100001101111000
          -91 callsubr
          hintmask 1010001101111000
          -90 callsubr
          endchar
        </CharString>
        <CharString name="Aacute">
          -7 11 -8 17 130 16 -5 17 260 20 49 80 hstemhm
          346 44 13 61 -42 140 hintmask 0000010010000000
          433 508 rmoveto
          22 callsubr
          hintmask 0001101100000000
          -350 -406 rmoveto
          -92 callsubr
          hintmask 0010101100000000
          -91 callsubr
          hintmask 0001101100000000
          -90 callsubr
          -33 -18 rmoveto
          -89 callsubr
          hintmask 0110101100000000
          -88 callsubr
          hintmask 1001101100000000
          -87 callsubr
          endchar
        </CharString>
        <CharString name="Abreve">
          -7 11 -8 17 130 16 -5 17 260 20 65 14 hstemhm
          346 44 13 61 -26 24 hintmask 0000010010000000
          478 516 rmoveto
          46 callsubr
          hintmask 0001101100000000
          -276 -345 rmoveto
          -92 callsubr
          hintmask 0010101100000000
          -91 callsubr
          hintmask 0001101100000000
          -90 callsubr
          -33 -18 rmoveto
          -89 callsubr
          hintmask 0110101100000000
          -88 callsubr
          hintmask 1001101100000000
          -87 callsubr
          endchar
        </CharString>
        <CharString name="Acircumflex">
          -7 11 -8 17 130 16 -5 17 260 20 49 83 hstemhm
          346 44 1 159 -147 61 hintmask 0000010100000000
          520 583 rmoveto
          28 callsubr
          hintmask 0001101010000000
          -318 -412 rmoveto
          -92 callsubr
          hintmask 0010101010000000
          -91 callsubr
          hintmask 0001101010000000
          -90 callsubr
          -33 -18 rmoveto
          -89 callsubr
          hintmask 0110101010000000
          -88 callsubr
          hintmask 1001101010000000
          -87 callsubr
          endchar
        </CharString>
        <CharString name="Adieresis">
          -7 11 -8 17 130 16 -5 17 260 20 58 53 hstemhm
          346 44 13 61 -36 46 30 46 hintmask 0000010011000000
          428 527 rmoveto
          -20 callsubr
          76 hmoveto
          -20 callsubr
          hintmask 0001101100000000
          -302 -356 rmoveto
          -92 callsubr
          hintmask 0010101100000000
          -91 callsubr
          hintmask 0001101100000000
          -90 callsubr
          -33 -18 rmoveto
          -89 callsubr
          hintmask 0110101100000000
          -88 callsubr
          hintmask 1001101100000000
          -87 callsubr
          endchar
        </CharString>
        <CharString name="Agrave">
          -7 11 -8 17 130 16 -5 17 260 20 49 121 hstemhm
          346 44 13 61 -51 65 hintmask 0000010010000000
          478 501 rmoveto
          -38 callsubr
          hintmask 0001101100000000
          -276 -330 rmoveto
          -92 callsubr
          hintmask 0010101100000000
          -91 callsubr
          hintmask 0001101100000000
          -90 callsubr
          -33 -18 rmoveto
          -89 callsubr
          hintmask 0110101100000000
          -88 callsubr
          hintmask 1001101100000000
          -87 callsubr
          endchar
        </CharString>
        <CharString name="Alpha">
          -7 11 -8 17 130 16 -5 17 260 20 hstemhm
          346 44 13 61 hintmask 00011110
          202 171 rmoveto
          -92 callsubr
          hintmask 00101110
          -91 callsubr
          hintmask 00011110
          -90 callsubr
          -33 -18 rmoveto
          -89 callsubr
          hintmask 01101110
          -88 callsubr
          hintmask 10011110
          -87 callsubr
          endchar
        </CharString>
        <CharString name="Alphatonos">
          -7 11 -8 17 130 16 -5 17 226 114 -80 20 hstemhm
          264 118 -36 44 13 61 hintmask 0000101000000000
          267 402 rmoveto
          67 callsubr
          hintmask 0001010110000000
          -162 -331 rmoveto
          -92 callsubr
          hintmask 0010010110000000
          -91 callsubr
          hintmask 0001010110000000
          -90 callsubr
          -33 -18 rmoveto
          -89 callsubr
          hintmask 0110010110000000
          -88 callsubr
          hintmask 1001010110000000
          -87 callsubr
          endchar
        </CharString>
        <CharString name="Amacron">
          -7 11 -8 17 130 16 -5 17 260 20 76 14 hstemhm
          346 44 12 177 -176 61 hintmask 0000010100000000
          406 541 rmoveto
          45 callsubr
          hintmask 0001101010000000
          -204 -370 rmoveto
          -92 callsubr
          hintmask 0010101010000000
          -91 callsubr
          hintmask 0001101010000000
          -90 callsubr
          -33 -18 rmoveto
          -89 callsubr
          hintmask 0110101010000000
          -88 callsubr
          hintmask 1001101010000000
          -87 callsubr
          endchar
        </CharString>
        <CharString name="Aogonek">
          -113 8 98 11 -8 17 130 16 -5 17 260 20 hstemhm
          290 31 25 44 13 61 hintmask 1000001000000000
          398 3 rmoveto
          47 callsubr
          hintmask 0000110110000000
          -196 168 rmoveto
          -92 callsubr
          hintmask 0001010110000000
          -91 callsubr
          hintmask 0000110110000000
          -90 callsubr
          -33 -18 rmoveto
          -89 callsubr
          hintmask 0011010110000000
          -88 callsubr
          hintmask 0100110110000000
          -87 callsubr
          endchar
        </CharString>
        <CharString name="Aring">
          -7 11 -8 17 130 16 -5 17 342 12 hstemhm
          346 44 14 17 62 18 hintmask 00011111
          202 171 rmoveto
          -92 callsubr
          hintmask 00101111
          -91 callsubr
          hintmask 00011111
          -90 callsubr
          185 297 rmoveto
          30 callsubr
          hintmask 10011111
          31 callsubr
          hintmask 01101111
          32 callsubr
          50 45 rmoveto
          33 callsubr
          endchar
        </CharString>
        <CharString name="Aringacute">
          -7 11 -8 17 130 16 -5 17 342 12 75 80 hstemhm
          346 44 14 17 42 140 -120 18 hintmask 0000010010000000
          474 608 rmoveto
          22 callsubr
          hintmask 0001101101000000
          -391 -506 rmoveto
          -92 callsubr
          hintmask 0010101101000000
          -91 callsubr
          hintmask 0001101101000000
          -90 callsubr
          185 297 rmoveto
          30 callsubr
          hintmask 1001101101000000
          31 callsubr
          hintmask 0110101101000000
          32 callsubr
          50 45 rmoveto
          33 callsubr
          endchar
        </CharString>
        <CharString name="Atilde">
          -7 11 -8 17 130 16 -5 17 260 20 48 17 31 17 hstemhm
          346 44 -3 206 -190 61 hintmask 0000011010000000
          468 564 rmoveto
          29 callsubr
          hintmask 0001100101000000
          -266 -393 rmoveto
          -92 callsubr
          hintmask 0010100101000000
          -91 callsubr
          hintmask 0001100101000000
          -90 callsubr
          -33 -18 rmoveto
          -89 callsubr
          hintmask 0110100101000000
          -88 callsubr
          hintmask 1001100101000000
          -87 callsubr
          endchar
        </CharString>
        <CharString name="B">
          136 -52 -21 61 12 238 8 175 22 hstemhm
          133 35 237 45 -33 46 hintmask 11111010
          142 129 rmoveto
          -86 callsubr
          hintmask 11111100
          -85 callsubr
          hintmask 11111010
          -84 callsubr
          endchar
        </CharString>
        <CharString name="Beta">
          136 -73 21 40 12 238 8 175 22 hstemhm
          133 35 237 45 -33 46 hintmask 11111010
          142 129 rmoveto
          -86 callsubr
          hintmask 11111100
          -85 callsubr
          hintmask 11111010
          -84 callsubr
          endchar
        </CharString>
        <CharString name="C">
          116 -12 16 417 22 hstem
          80 48 267 22 47 32 vstem
          472 372 rmoveto
          -83 callsubr
          endchar
        </CharString>
        <CharString name="Cacute">
          116 -12 16 417 22 57 80 hstemhm
          80 48 249 140 -122 22 47 32 hintmask 00101000
          388 508 rmoveto
          22 callsubr
          hintmask 11010110
          -35 -205 rmoveto
          -83 callsubr
          endchar
        </CharString>
        <CharString name="Ccaron">
          116 -12 16 417 22 hstem
          80 48 267 22 47 32 vstem
          hintmask 00000000
          421 514 rmoveto
          48 callsubr
          51 -142 rmoveto
          -83 callsubr
          endchar
        </CharString>
        <CharString name="Ccedilla">
          116 -145 5 67 26 35 16 417 22 hstem
          80 48 97 19 151 22 47 32 vstem
          213 hmoveto
          24 callsubr
          259 372 rmoveto
          -83 callsubr
          endchar
        </CharString>
        <CharString name="Ccircumflex">
          116 -12 16 417 22 57 83 hstemhm
          80 48 218 159 -110 22 47 32 hintmask 00101000
          475 583 rmoveto
          28 callsubr
          hintmask 11010110
          -3 -211 rmoveto
          -83 callsubr
          endchar
        </CharString>
        <CharString name="Cdotaccent">
          116 -12 16 417 22 66 53 hstemhm
          80 48 267 22 2 46 -1 32 hintmask 00100100
          419 527 rmoveto
          -20 callsubr
          hintmask 11011010
          53 -155 rmoveto
          -83 callsubr
          endchar
        </CharString>
        <CharString name="Chi">
          131 -53 24 25 25 396 26 hstem
          563 42 vstem
          26 41 rmoveto
          -43 callsubr
          endchar
        </CharString>
        <CharString name="D">
          283 -10 13 -11 21 135 28 258 9 60 12 hstemhm
          65 28 75 28 224 40 125 43 hintmask 0111111110000000
          240 93 rmoveto
          -82 callsubr
          39 27 rmoveto
          -81 callsubr
          hintmask 1011111110000000
          -80 callsubr
          -83 187 rmoveto
          -79 callsubr
          hintmask 0111111110000000
          -78 callsubr
          hintmask 1011111110000000
          -77 callsubr
          endchar
        </CharString>
        <CharString name="Dcaron">
          283 -10 13 -11 21 135 28 258 9 60 12 hstemhm
          65 28 75 28 224 40 125 43 hintmask 0111111110000000
          240 93 rmoveto
          -82 callsubr
          39 27 rmoveto
          -81 callsubr
          hintmask 1011111110000000
          -80 callsubr
          -83 187 rmoveto
          -79 callsubr
          hintmask 0111111110000000
          -78 callsubr
          hintmask 1011111110000000
          -77 callsubr
          258 237 rmoveto
          48 callsubr
          endchar
        </CharString>
        <CharString name="Dcroat">
          371 -10 13 -11 21 135 28 46 24 188 9 60 12 hstemhm
          65 28 75 28 224 40 125 43 hintmask 0011111111000000
          458 250 rmoveto
          36 callsubr
          hintmask 0110111111000000
          -218 -157 rmoveto
          -82 callsubr
          39 27 rmoveto
          -81 callsubr
          hintmask 1010111111000000
          -80 callsubr
          -83 187 rmoveto
          -79 callsubr
          hintmask 0110111111000000
          -78 callsubr
          hintmask 1010111111000000
          -77 callsubr
          endchar
        </CharString>
        <CharString name="Delta">
          0 16 432 -20 hstemhm
          11 46 355 50 -39 39 hintmask 11110000
          23 hmoveto
          382 hlineto
          37 26 9 41 hvcurveto
          0 1 -6 80 0 91 0 186 3 17 0 17 0 4 -2 2 -2 0 -5 0 -12 -5 -6 -2 -27 -11 -2 -4 -38 -40 -243 -256 -117 -93 0 -28 rrcurveto
          -5 3 -4 9 vhcurveto
          hintmask 11101000
          400 49 rmoveto
          -15 0 -18 -360 -4 -2 1 3 vhcurveto
          0 4 313 336 26 29 6 6 5 5 2 0 rrcurveto
          hintmask 11110000
          1 2 -1 -2 hvcurveto
          0 -35 11 -209 0 -104 rrcurveto
          endchar
        </CharString>
        <CharString name="E">
          103 -12 21 422 12 hstem
          79 50 113 34 2 56 55 20 64 24 vstem
          215 -12 rmoveto
          -76 callsubr
          endchar
        </CharString>
        <CharString name="Eacute">
          103 -12 21 422 12 57 80 hstemhm
          79 50 113 34 2 56 17 140 -102 20 64 24 hintmask 0010001000000000
          362 508 rmoveto
          22 callsubr
          hintmask 1101110110000000
          -266 -589 rmoveto
          -76 callsubr
          endchar
        </CharString>
        <CharString name="Ebreve">
          103 -12 21 422 12 73 14 hstemhm
          79 50 113 34 2 56 55 20 -19 24 59 24 hintmask 0010000100000000
          430 516 rmoveto
          46 callsubr
          hintmask 1101111010000000
          -215 -528 rmoveto
          -76 callsubr
          endchar
        </CharString>
        <CharString name="Ecaron">
          103 -12 21 422 12 hstem
          79 50 113 34 2 56 55 20 64 24 vstem
          hintmask 00000000
          418 514 rmoveto
          48 callsubr
          -203 -526 rmoveto
          -76 callsubr
          endchar
        </CharString>
        <CharString name="Ecircumflex">
          103 -12 21 422 12 57 83 hstemhm
          79 50 113 34 2 56 9 159 -113 20 64 24 hintmask 0010001000000000
          472 583 rmoveto
          28 callsubr
          hintmask 1101110110000000
          -257 -595 rmoveto
          -76 callsubr
          endchar
        </CharString>
        <CharString name="Edieresis">
          103 -12 21 422 12 66 53 hstemhm
          79 50 113 34 2 56 46 46 -37 20 47 46 -29 24 hintmask 0010001010000000
          380 527 rmoveto
          -20 callsubr
          76 hmoveto
          -20 callsubr
          hintmask 1101110101000000
          -241 -539 rmoveto
          -76 callsubr
          endchar
        </CharString>
        <CharString name="Edotaccent">
          103 -12 21 422 12 66 53 hstem
          79 50 113 34 2 56 55 20 7 46 11 24 vstem
          416 527 rmoveto
          -20 callsubr
          -201 -539 rmoveto
          -76 callsubr
          endchar
        </CharString>
        <CharString name="Egrave">
          103 -12 21 422 12 57 121 hstemhm
          79 50 113 34 2 56 31 65 -41 20 64 24 hintmask 0010001000000000
          430 501 rmoveto
          -38 callsubr
          hintmask 1101110110000000
          -215 -513 rmoveto
          -76 callsubr
          endchar
        </CharString>
        <CharString name="Emacron">
          103 -12 21 422 12 84 14 hstemhm
          79 50 113 34 2 56 20 177 -142 20 64 24 hintmask 0010001000000000
          358 541 rmoveto
          45 callsubr
          hintmask 1101110110000000
          -143 -553 rmoveto
          -76 callsubr
          endchar
        </CharString>
        <CharString name="Eng">
          141 -288 20 223 -20 70 -21 420 32 hstem
          17 34 34 35 177 41 vstem
          339 -15 rmoveto
          29 60 98 238 69 99 8 12 8 5 10 0 rrcurveto
          7 5 -5 -4 -1 1 -2 2 hvcurveto
          3 0 13 14 12 11 8 7 3 2 0 5 0 4 -11 7 -13 0 -26 0 -23 -27 -10 -9 -26 -26 -118 -219 -50 -108 rrcurveto
          3 358 rlineto
          23 -6 7 -11 vhcurveto
          -26 0 -17 -14 -7 -15 rrcurveto
          -154 -283 rlineto
          0 8 -2 8 -2 6 -4 11 -11 7 -7 0 -4 0 -5 -5 -7 -4 -8 -5 -8 -4 0 -1 0 -1 1 -2 1 0 4 0 4 5 5 0 rrcurveto
          5 3 -16 -16 hvcurveto
          0 -25 -11 -28 -9 -24 -10 -25 -12 -24 0 -3 0 -1 1 -1 2 0 6 0 -1 6 8 5 10 7 10 0 8 16 rrcurveto
          194 368 rlineto
          4 8 5 10 6 0 rrcurveto
          3 0 -2 -22 hvcurveto
          -2 -344 rlineto
          0 -27 3 -21 2 -16 -111 -223 -50 -17 -41 0 -39 0 -10 39 0 17 0 41 29 51 42 37 24 21 24 11 0 4 0 1 0 1 -2 0 rrcurveto
          -3 0 -36 -22 -13 -10 -81 -58 -18 -59 0 -41 0 -19 10 -34 40 0 90 0 92 87 90 186 rrcurveto
          endchar
        </CharString>
        <CharString name="Eogonek">
          103 -113 8 93 21 422 12 hstemhm
          79 50 -18 31 100 34 2 56 55 20 64 24 hintmask 1000100000000000
          219 3 rmoveto
          47 callsubr
          hintmask 0111011110000000
          -4 -15 rmoveto
          -76 callsubr
          endchar
        </CharString>
        <CharString name="Epsilon">
          103 -12 21 422 12 hstem
          79 50 113 34 2 56 55 20 64 24 vstem
          215 -12 rmoveto
          -76 callsubr
          endchar
        </CharString>
        <CharString name="Epsilontonos">
          103 -12 21 388 114 -80 12 hstemhm
          79 50 79 118 -84 34 2 56 55 20 64 24 hintmask 0100100000000000
          211 402 rmoveto
          67 callsubr
          hintmask 1011011110000000
          -93 -514 rmoveto
          -76 callsubr
          endchar
        </CharString>
        <CharString name="Eta">
          208 -12 24 172 18 17 20 190 14 hstem
          248 39 52 50 vstem
          492 18 rmoveto
          -71 callsubr
          endchar
        </CharString>
        <CharString name="Etatonos">
          208 -12 24 172 18 17 20 158 114 -82 14 hstemhm
          74 118 56 39 52 50 hintmask 00010100
          77 402 rmoveto
          67 callsubr
          hintmask 11101011
          318 -484 rmoveto
          -71 callsubr
          endchar
        </CharString>
        <CharString name="Eth">
          371 -10 13 -11 21 135 28 46 24 188 9 60 12 hstemhm
          65 28 75 28 224 40 125 43 hintmask 0011111111000000
          458 250 rmoveto
          36 callsubr
          hintmask 0110111111000000
          -218 -157 rmoveto
          -82 callsubr
          39 27 rmoveto
          -81 callsubr
          hintmask 1010111111000000
          -80 callsubr
          -83 187 rmoveto
          -79 callsubr
          hintmask 0110111111000000
          -78 callsubr
          hintmask 1010111111000000
          -77 callsubr
          endchar
        </CharString>
        <CharString name="Euro">
          159 -12 16 168 18 43 18 170 22 hstem
          106 50 337 32 vstem
          500 372 rmoveto
          5 15 20 8 0 9 0 6 -17 33 -55 0 -45 0 -45 -12 -45 -26 -63 -35 -59 -56 -40 -62 -20 1 -15 0 -7 0 -12 0 2 -5 -7 -7 rrcurveto
          -3 -3 -3 0 0 -2 0 -1 1 -1 3 0 15 0 18 0 18 1 -9 -16 -8 -15 -6 -16 -31 0 4 2 -14 0 rrcurveto
          -6 -16 -11 -4 -2 2 -1 3 hvcurveto
          10 0 19 1 23 0 -7 -23 -4 -22 0 -22 0 -74 59 -44 75 0 90 0 65 34 39 50 2 3 3 18 0 11 0 8 -1 7 -2 0 rrcurveto
          -2 0 -1 -1 -2 -3 -41 -54 -47 -57 -86 0 -58 0 -43 45 0 61 0 21 3 21 5 21 25 0 25 1 20 0 50 0 54 -3 15 0 rrcurveto
          5 0 5 3 4 4 4 4 4 1 0 3 0 2 -2 1 -2 0 -24 0 -85 -1 -94 0 5 16 6 16 7 16 70 0 67 -3 55 0 rrcurveto
          10 15 4 11 1 -1 2 -2 hvcurveto
          -16 -71 -1 -57 -21 -21 -20 hflex
          32 60 49 50 50 33 17 10 30 17 49 0 35 0 32 -25 5 -24 0 -2 1 -3 2 0 2 0 1 2 1 3 rrcurveto
          endchar
        </CharString>
        <CharString name="F">
          70 7 -21 215 20 193 21 98 10 hstemhm
          334 42 -10 2 hintmask 11111000
          363 415 rmoveto
          -75 callsubr
          hintmask 11110100
          -74 callsubr
          endchar
        </CharString>
        <CharString name="G">
          241 -404 9 384 12 432 9 hstem
          7 38 37 43 398 28 26 49 vstem
          367 -44 rmoveto
          -73 callsubr
          4 10 rmoveto
          -72 callsubr
          endchar
        </CharString>
        <CharString name="Gamma">
          32 8 -21 425 33 hstem
          150 378 rmoveto
          26 24 13 4 63 4 -23 -58 -59 -114 -5 -8 -39 -73 -51 -92 -36 -56 -12 -18 -14 2 0 -3 0 -3 1 0 6 0 12 0 29 2 8 1 rrcurveto
          4 0 9 4 3 6 rrcurveto
          113 219 rlineto
          60 119 17 35 21 39 64 2 44 -4 79 9 26 3 18 4 21 14 7 5 -8 0 -2 0 -2 0 -2 -1 -23 -3 -132 -16 -95 13 -78 -14 rrcurveto
          -40 -7 -17 -20 -11 -14 -2 -3 -2 -2 3 -2 3 -2 1 2 2 2 rrcurveto
          endchar
        </CharString>
        <CharString name="Gbreve">
          241 -404 9 384 12 432 9 74 14 hstem
          7 38 37 43 358 24 16 28 26 49 vstem
          523 516 rmoveto
          46 callsubr
          -156 -560 rmoveto
          -73 callsubr
          4 10 rmoveto
          -72 callsubr
          endchar
        </CharString>
        <CharString name="Gcaron">
          241 -404 9 384 12 432 9 hstem
          7 38 37 43 398 28 26 49 vstem
          hintmask 00000000
          511 514 rmoveto
          48 callsubr
          -144 -558 rmoveto
          -73 callsubr
          4 10 rmoveto
          -72 callsubr
          endchar
        </CharString>
        <CharString name="Gcircumflex">
          241 -404 9 384 12 432 9 58 83 hstemhm
          7 38 37 43 311 159 -72 28 26 49 hintmask 0001001000000000
          565 583 rmoveto
          28 callsubr
          hintmask 1110110110000000
          -198 -627 rmoveto
          -73 callsubr
          4 10 rmoveto
          -72 callsubr
          endchar
        </CharString>
        <CharString name="Gcommaaccent">
          241 -615 145 66 9 384 12 432 9 hstem
          7 38 11 24 2 43 398 28 26 49 vstem
          64 -470 rmoveto
          49 callsubr
          303 426 rmoveto
          -73 callsubr
          4 10 rmoveto
          -72 callsubr
          endchar
        </CharString>
        <CharString name="Gdotaccent">
          241 -404 9 384 12 432 9 67 53 hstemhm
          7 38 37 43 384 46 -32 28 26 49 hintmask 0001001000000000
          509 527 rmoveto
          -20 callsubr
          hintmask 1110110110000000
          -142 -571 rmoveto
          -73 callsubr
          4 10 rmoveto
          -72 callsubr
          endchar
        </CharString>
        <CharString name="H">
          208 -12 24 172 18 37 -20 210 14 hstem
          248 39 52 50 vstem
          492 18 rmoveto
          -71 callsubr
          endchar
        </CharString>
        <CharString name="Hbar">
          258 -12 24 172 18 17 20 64 17 -2 14 97 14 hstemhm
          248 39 52 50 hintmask 11101111
          554 318 rmoveto
          7 1 18 9 0 3 0 1 -1 0 -2 0 rrcurveto
          hintmask 11110111
          -27 0 -24 -12 -261 0 -32 0 -3 1 -47 0 rrcurveto
          -3 -25 -11 -4 -1 1 0 2 hvcurveto
          9 0 51 -2 38 0 rrcurveto
          45 0 164 3 90 12 rrcurveto
          hintmask 11100111
          -62 -300 rmoveto
          -71 callsubr
          endchar
        </CharString>
        <CharString name="Hcircumflex">
          208 -12 24 172 18 17 20 190 14 57 83 hstemhm
          248 39 52 50 -49 159 hintmask 00001001
          469 583 rmoveto
          28 callsubr
          hintmask 11110110
          23 -565 rmoveto
          -71 callsubr
          endchar
        </CharString>
        <CharString name="I">
          31 -6 9 385 10 77 12 hstem
          38 35 97 28 103 23 vstem
          282 398 rmoveto
          -70 callsubr
          -209 -317 rmoveto
          -69 callsubr
          endchar
        </CharString>
        <CharString name="IJ">
          520 -424 14 404 9 385 10 77 12 hstemhm
          38 35 86 39 -28 28 103 23 169 28 103 23 hintmask 1111110111000000
          502 -29 rmoveto
          -40 -98 -39 -101 -74 -110 -28 -41 -29 -31 -41 0 -34 0 -19 34 0 55 1 121 58 66 130 67 rrcurveto
          34 17 40 11 41 10 rrcurveto
          -429 110 rmoveto
          0 27 10 5 0 2 0 2 -2 0 -1 0 -2 0 -12 -18 -16 -16 -6 -6 -6 -5 0 -4 0 -47 44 -27 39 0 87 0 48 61 28 57 rrcurveto
          35 70 rlineto
          153 50 104 112 35 44 27 1 72 9 23 7 rrcurveto
          -46 -70 rlineto
          -45 -68 -46 -87 -35 -76 -20 -40 -17 -39 -16 -40 -39 -8 -41 -10 -43 -19 -159 -70 -67 -108 0 -88 0 -72 29 -34 47 0 62 0 47 51 28 39 rrcurveto
          60 84 61 118 55 114 36 9 36 11 31 17 47 25 32 29 37 49 1 2 0 0 0 1 0 1 -1 1 -1 0 -1 0 -1 0 -2 -3 rrcurveto
          -4 -6 -19 -24 -26 -23 -18 -15 -24 -18 -23 -12 -29 -15 -31 -8 -33 -8 rrcurveto
          55 117 rlineto
          60 127 34 80 78 94 5 6 9 3 0 3 0 2 -1 1 -3 0 -13 0 -37 -5 -13 -5 -33 -12 -40 -5 -37 -2 11 17 17 26 0 17 rrcurveto
          21 -20 7 -22 -32 -80 -24 -41 -30 59 -4 45 vhcurveto
          -61 -76 -90 -81 -121 -38 42 80 36 60 56 80 4 6 10 3 0 3 0 2 -1 1 -3 0 -13 0 -37 -5 -13 -5 -33 -12 -40 -5 -37 -2 rrcurveto
          11 17 17 26 0 17 rrcurveto
          21 -20 7 -22 vhcurveto
          hintmask 1111101111000000
          -32 -80 -24 -41 -30 59 -4 45 hvcurveto
          -20 -25 -55 -56 -20 -16 -5 -4 -3 -4 0 -2 0 -1 1 -1 1 0 2 0 8 6 2 2 33 28 52 50 18 23 27 1 72 9 23 7 rrcurveto
          -58 -81 -57 -94 -60 -126 -29 -62 -27 -39 -38 0 -35 0 -33 42 0 36 rrcurveto
          209 317 rmoveto
          -70 callsubr
          323 hmoveto
          -70 callsubr
          endchar
        </CharString>
        <CharString name="Iacute">
          31 -6 9 385 10 77 12 13 80 hstem
          38 35 97 28 103 23 25 140 vstem
          360 508 rmoveto
          22 callsubr
          -197 -179 rmoveto
          -70 callsubr
          -209 -317 rmoveto
          -69 callsubr
          endchar
        </CharString>
        <CharString name="Ibreve">
          31 -6 9 385 10 77 12 29 14 hstem
          38 35 97 28 103 23 47 24 vstem
          411 516 rmoveto
          46 callsubr
          -129 -118 rmoveto
          -70 callsubr
          -209 -317 rmoveto
          -69 callsubr
          endchar
        </CharString>
        <CharString name="Icircumflex">
          31 -6 9 385 10 77 12 13 83 hstem
          38 35 97 28 103 23 17 159 vstem
          470 583 rmoveto
          28 callsubr
          -188 -185 rmoveto
          -70 callsubr
          -209 -317 rmoveto
          -69 callsubr
          endchar
        </CharString>
        <CharString name="Idieresis">
          31 -6 9 385 10 77 12 22 53 hstem
          38 35 97 28 103 23 54 46 30 46 vstem
          378 527 rmoveto
          -20 callsubr
          76 hmoveto
          -20 callsubr
          -172 -129 rmoveto
          -70 callsubr
          -209 -317 rmoveto
          -69 callsubr
          endchar
        </CharString>
        <CharString name="Idotaccent">
          31 -6 9 385 10 77 12 22 53 hstem
          38 35 97 28 103 23 73 46 vstem
          397 527 rmoveto
          -20 callsubr
          -115 -129 rmoveto
          -70 callsubr
          -209 -317 rmoveto
          -69 callsubr
          endchar
        </CharString>
        <CharString name="Igrave">
          31 -6 9 385 10 77 12 13 121 hstem
          38 35 97 28 103 23 22 65 vstem
          411 501 rmoveto
          -38 callsubr
          -129 -103 rmoveto
          -70 callsubr
          -209 -317 rmoveto
          -69 callsubr
          endchar
        </CharString>
        <CharString name="Imacron">
          31 -6 9 385 10 77 12 40 14 hstem
          38 35 97 28 103 23 11 177 vstem
          339 541 rmoveto
          45 callsubr
          -57 -143 rmoveto
          -70 callsubr
          -209 -317 rmoveto
          -69 callsubr
          endchar
        </CharString>
        <CharString name="Iogonek">
          31 -113 8 99 9 385 10 77 12 hstem
          -4 31 11 35 97 28 103 23 vstem
          104 3 rmoveto
          47 callsubr
          178 395 rmoveto
          -70 callsubr
          -209 -317 rmoveto
          -69 callsubr
          endchar
        </CharString>
        <CharString name="Iota">
          -67 424 19 -9 9 hstemhm
          hintmask 10000000
          121 124 rmoveto
          68 callsubr
          hintmask 01000000
          69 callsubr
          endchar
        </CharString>
        <CharString name="Iotadieresis">
          -67 424 19 -9 9 66 53 hstemhm
          290 46 30 46 hintmask 00111000
          290 527 rmoveto
          -20 callsubr
          76 hmoveto
          -20 callsubr
          hintmask 10000000
          -245 -403 rmoveto
          68 callsubr
          hintmask 01000000
          69 callsubr
          endchar
        </CharString>
        <CharString name="Iotatonos">
          -67 397 114 -87 19 -9 9 hstemhm
          157 118 hintmask 10010000
          160 402 rmoveto
          67 callsubr
          hintmask 01000000
          -136 -378 rmoveto
          68 callsubr
          hintmask 00100000
          69 callsubr
          endchar
        </CharString>
        <CharString name="Itilde">
          31 -6 9 385 10 77 12 12 17 31 17 hstemhm
          38 35 97 28 103 23 -4 206 hintmask 0001100010000000
          401 564 rmoveto
          29 callsubr
          hintmask 1110011100000000
          -119 -166 rmoveto
          -70 callsubr
          -209 -317 rmoveto
          -69 callsubr
          endchar
        </CharString>
        <CharString name="J">
          38 -424 14 798 10 77 12 hstem
          -167 39 295 28 103 23 vstem
          176 -29 rmoveto
          -68 callsubr
          227 447 rmoveto
          -67 callsubr
          -124 -20 rmoveto
          -70 callsubr
          endchar
        </CharString>
        <CharString name="Jcircumflex">
          38 -424 14 798 10 77 12 13 83 hstemhm
          -167 39 295 28 103 23 -10 159 hintmask 00010001
          440 583 rmoveto
          28 callsubr
          hintmask 11101110
          -264 -612 rmoveto
          -68 callsubr
          227 447 rmoveto
          -67 callsubr
          -124 -20 rmoveto
          -70 callsubr
          endchar
        </CharString>
        <CharString name="K">
          93 -103 11 99 -21 258 -21 206 14 hstem
          250 41 vstem
          185 224 rmoveto
          -66 callsubr
          29 196 rmoveto
          -65 callsubr
          endchar
        </CharString>
        <CharString name="Kappa">
          93 -103 11 78 21 216 21 185 14 hstem
          250 41 vstem
          185 224 rmoveto
          -66 callsubr
          29 196 rmoveto
          -65 callsubr
          endchar
        </CharString>
        <CharString name="Kcommaaccent">
          93 -195 145 -53 11 78 21 216 21 185 14 hstemhm
          152 24 74 41 hintmask 10000100
          160 -50 rmoveto
          49 callsubr
          hintmask 01111010
          25 274 rmoveto
          -66 callsubr
          29 196 rmoveto
          -65 callsubr
          endchar
        </CharString>
        <CharString name="L">
          70 -152 25 56 -20 79 21 119 27 269 19 hstem
          47 30 263 39 vstem
          241 391 rmoveto
          -64 callsubr
          -43 -302 rmoveto
          -63 callsubr
          endchar
        </CharString>
        <CharString name="Lacute">
          70 -152 25 36 20 59 21 119 27 269 19 57 80 hstemhm
          47 30 242 140 -119 39 hintmask 0000010100000000
          330 508 rmoveto
          22 callsubr
          hintmask 1111101010000000
          -208 -186 rmoveto
          -64 callsubr
          -43 -302 rmoveto
          -63 callsubr
          endchar
        </CharString>
        <CharString name="Lambda">
          -7 11 -8 17 438 -20 hstemhm
          346 44 13 61 hintmask 10111000
          453 415 rmoveto
          1 5 10 17 0 9 rrcurveto
          1 vlineto
          2 -2 2 -2 vhcurveto
          -5 0 -11 -7 -6 -2 -27 -11 -2 3 -36 -42 -174 -203 -100 -94 -84 -73 -9 -8 -14 -7 -9 -3 -4 -1 -4 -2 0 -4 0 -3 3 -1 3 0 rrcurveto
          10 0 9 3 8 1 19 2 12 3 12 9 29 24 50 54 56 64 rrcurveto
          202 237 rlineto
          6 6 6 8 2 0 1 0 0 -1 0 -2 0 -32 -57 -179 0 -113 rrcurveto
          hintmask 01111000
          -53 6 -28 41 vhcurveto
          19 0 25 7 26 15 46 27 33 28 37 49 1 2 0 0 0 1 0 1 -1 1 -1 0 -1 0 -1 0 -2 -3 -4 -6 -19 -24 -26 -23 rrcurveto
          -29 -25 -47 -33 -27 0 -19 0 -13 18 0 58 rrcurveto
          0 72 32 171 31 83 rrcurveto
          endchar
        </CharString>
        <CharString name="Lcaron">
          70 -152 25 36 20 59 21 119 27 148 145 -24 19 hstemhm
          47 30 263 39 102 24 hintmask 0000100010000000
          489 448 rmoveto
          49 callsubr
          hintmask 1111011100000000
          -248 -57 rmoveto
          -64 callsubr
          -43 -302 rmoveto
          -63 callsubr
          endchar
        </CharString>
        <CharString name="Lcommaaccent">
          70 -195 145 -102 25 36 20 59 21 119 27 269 19 hstemhm
          47 30 81 24 158 39 hintmask 1000000100000000
          166 -50 rmoveto
          49 callsubr
          hintmask 0111111010000000
          75 441 rmoveto
          -64 callsubr
          -43 -302 rmoveto
          -63 callsubr
          endchar
        </CharString>
        <CharString name="Ldot">
          70 -152 25 36 20 59 21 119 27 19 53 197 19 hstemhm
          47 30 263 39 -17 46 hintmask 0000100010000000
          362 192 rmoveto
          -20 callsubr
          hintmask 1111011100000000
          -121 199 rmoveto
          -64 callsubr
          -43 -302 rmoveto
          -63 callsubr
          endchar
        </CharString>
        <CharString name="Lslash">
          70 -152 25 36 20 59 21 119 27 45 24 200 19 hstem
          47 30 263 39 vstem
          327 275 rmoveto
          -36 -21 -34 -18 -46 -12 -15 -4 -19 -14 0 -4 0 -1 1 -1 2 0 7 0 58 14 87 51 96 56 5 3 0 5 0 1 -1 2 -2 0 rrcurveto
          -12 0 -54 -35 -37 -22 rrcurveto
          -86 116 rmoveto
          -64 callsubr
          -43 -302 rmoveto
          -63 callsubr
          endchar
        </CharString>
        <CharString name="M">
          271 -151 24 134 -21 422 24 -7 18 -17 24 hstemhm
          232 43 131 40 15 41 117 45 hintmask 1101011110000000
          268 353 rmoveto
          -62 callsubr
          hintmask 1110011110000000
          -61 callsubr
          hintmask 1100111110000000
          -60 callsubr
          hintmask 1110011110000000
          -59 callsubr
          endchar
        </CharString>
        <CharString name="Mu">
          271 -151 24 113 21 401 24 -7 18 -17 24 hstemhm
          232 43 131 40 15 41 117 45 hintmask 1101011110000000
          268 353 rmoveto
          -62 callsubr
          hintmask 1110011110000000
          -61 callsubr
          hintmask 1100111110000000
          -60 callsubr
          hintmask 1110011110000000
          -59 callsubr
          endchar
        </CharString>
        <CharString name="N">
          141 5 -21 420 32 hstem
          85 35 177 41 vstem
          355 18 rmoveto
          -58 callsubr
          endchar
        </CharString>
        <CharString name="Nacute">
          141 -16 25 395 32 64 80 hstem
          85 35 177 41 70 140 vstem
          419 508 rmoveto
          22 callsubr
          -183 -559 rmoveto
          -58 callsubr
          endchar
        </CharString>
        <CharString name="Ncaron">
          141 -16 25 395 32 hstem
          85 35 177 41 vstem
          hintmask 00000000
          452 514 rmoveto
          48 callsubr
          -97 -496 rmoveto
          -58 callsubr
          endchar
        </CharString>
        <CharString name="Ncommaaccent">
          141 -195 145 34 25 395 32 hstem
          85 35 39 24 114 41 vstem
          167 -50 rmoveto
          49 callsubr
          188 68 rmoveto
          -58 callsubr
          endchar
        </CharString>
        <CharString name="Ntilde">
          141 -16 25 395 32 63 17 31 17 hstem
          85 35 177 41 35 206 vstem
          454 564 rmoveto
          29 callsubr
          -99 -546 rmoveto
          -58 callsubr
          endchar
        </CharString>
        <CharString name="Nu">
          141 -16 25 395 32 hstem
          85 35 177 41 vstem
          355 18 rmoveto
          -58 callsubr
          endchar
        </CharString>
        <CharString name="O">
          166 -12 30 408 17 hstem
          77 41 322 28 36 31 vstem
          535 315 rmoveto
          -57 callsubr
          endchar
        </CharString>
        <CharString name="OE">
          472 -12 21 -21 30 408 17 -12 12 hstemhm
          77 41 322 28 -20 50 6 31 76 34 2 56 55 20 64 24 hintmask 1001001011110000
          584 -12 rmoveto
          -76 callsubr
          hintmask 0110110100000000
          -49 327 rmoveto
          -57 callsubr
          endchar
        </CharString>
        <CharString name="Oacute">
          166 -12 30 408 17 57 80 hstemhm
          77 41 254 140 -72 28 36 31 hintmask 00101000
          383 508 rmoveto
          22 callsubr
          hintmask 11010110
          33 -262 rmoveto
          -57 callsubr
          endchar
        </CharString>
        <CharString name="Obreve">
          166 -12 30 408 17 73 14 hstem
          77 41 270 24 28 28 36 31 vstem
          428 516 rmoveto
          46 callsubr
          107 -201 rmoveto
          -57 callsubr
          endchar
        </CharString>
        <CharString name="Ocircumflex">
          166 -12 30 408 17 57 83 hstemhm
          77 41 223 159 -60 28 36 31 hintmask 00101000
          470 583 rmoveto
          28 callsubr
          hintmask 11010110
          65 -268 rmoveto
          -57 callsubr
          endchar
        </CharString>
        <CharString name="Odieresis">
          166 -12 30 408 17 66 53 hstemhm
          77 41 260 46 16 28 -14 46 4 31 hintmask 00101010
          378 527 rmoveto
          -20 callsubr
          76 hmoveto
          -20 callsubr
          hintmask 11010101
          81 -212 rmoveto
          -57 callsubr
          endchar
        </CharString>
        <CharString name="Ograve">
          166 -12 30 408 17 57 121 hstem
          77 41 245 65 12 28 36 31 vstem
          428 501 rmoveto
          -38 callsubr
          107 -186 rmoveto
          -57 callsubr
          endchar
        </CharString>
        <CharString name="Ohorn">
          166 -12 30 376 24 8 17 13 -20 hstemhm
          77 41 322 28 36 31 70 6 hintmask 11011111
          77 125 rmoveto
          54 callsubr
          hintmask 11101111
          55 callsubr
          endchar
        </CharString>
        <CharString name="Ohungarumlaut">
          166 -12 30 408 17 56 80 -80 87 hstemhm
          77 41 295 140 -113 28 36 31 hintmask 00010100
          480 583 rmoveto
          52 callsubr
          hintmask 00100100
          -56 -76 rmoveto
          22 callsubr
          hintmask 11001011
          -8 -261 rmoveto
          -57 callsubr
          endchar
        </CharString>
        <CharString name="Omacron">
          166 -12 30 408 17 84 14 hstemhm
          77 41 234 177 -89 28 36 31 hintmask 00101000
          356 541 rmoveto
          45 callsubr
          hintmask 11010110
          179 -226 rmoveto
          -57 callsubr
          endchar
        </CharString>
        <CharString name="Omega">
          288 -54 22 25 -21 11 26 419 15 hstemhm
          102 42 449 40 hintmask 10111100
          158 9 rmoveto
          70 callsubr
          hintmask 11011100
          71 callsubr
          endchar
        </CharString>
        <CharString name="Omegatonos">
          288 -54 22 4 21 -10 26 388 114 -83 15 hstemhm
          102 42 60 118 271 40 hintmask 00010010
          207 402 rmoveto
          67 callsubr
          hintmask 10101101
          -146 -493 rmoveto
          70 callsubr
          hintmask 11001101
          71 callsubr
          endchar
        </CharString>
        <CharString name="Omicron">
          166 -12 30 408 17 hstem
          77 41 322 28 36 31 vstem
          535 315 rmoveto
          -57 callsubr
          endchar
        </CharString>
        <CharString name="Omicrontonos">
          166 -12 30 379 114 -85 17 hstemhm
          77 41 53 118 151 28 36 31 hintmask 01001000
          174 402 rmoveto
          67 callsubr
          hintmask 10110110
          264 -187 rmoveto
          -57 callsubr
          endchar
        </CharString>
        <CharString name="Oslash">
          166 -12 30 408 17 hstem
          77 41 322 28 36 31 vstem
          603 387 rmoveto
          37 callsubr
          -68 -72 rmoveto
          -57 callsubr
          endchar
        </CharString>
        <CharString name="Oslashacute">
          166 -12 30 408 17 57 80 hstemhm
          77 41 225 140 -43 28 36 31 hintmask 00101000
          354 508 rmoveto
          22 callsubr
          hintmask 11010110
          130 -190 rmoveto
          37 callsubr
          -68 -72 rmoveto
          -57 callsubr
          endchar
        </CharString>
        <CharString name="Otilde">
          166 -12 30 408 17 56 17 31 17 hstemhm
          77 41 219 206 -103 28 36 31 hintmask 00110100
          418 564 rmoveto
          29 callsubr
          hintmask 11001011
          117 -249 rmoveto
          -57 callsubr
          endchar
        </CharString>
        <CharString name="P">
          106 5 -21 333 20 78 28 hstem
          203 41 221 42 vstem
          182 182 rmoveto
          -56 callsubr
          -132 -165 rmoveto
          -55 callsubr
          endchar
        </CharString>
        <CharString name="Phi">
          121 56 21 347 20 -12 8 hstemhm
          89 36 315 37 hintmask 10011000
          227 78 rmoveto
          41 82 42 82 62 105 42 -15 26 -34 0 -44 0 -75 -78 -102 -117 0 rrcurveto
          -6 0 -6 0 -6 1 rrcurveto
          -54 -18 rmoveto
          -34 -54 -14 -4 -22 -2 rrcurveto
          -4 -2 -3 -2 -2 2 -2 6 hvcurveto
          3 0 15 3 17 1 58 4 -8 -2 27 59 115 4 145 103 0 111 0 50 -32 39 -57 11 rrcurveto
          hintmask 11011000
          30 50 rlineto
          5 8 38 1 0 6 0 1 -1 4 -4 0 -14 0 -22 -5 -22 0 rrcurveto
          hintmask 10111000
          -28 0 -2 1 -24 0 rrcurveto
          -4 -4 -2 -2 -2 1 -2 3 12 9 -3 -13 hvcurveto
          0 -4 -6 -15 -10 -20 -112 -6 -144 -102 0 -109 0 -51 33 -37 51 -12 rrcurveto
          -48 120 rmoveto
          66 68 110 127 5 9 -1 0 vhcurveto
          -145 -268 rlineto
          -39 16 -25 34 0 43 rrcurveto
          endchar
        </CharString>
        <CharString name="Pi">
          110 -14 17 446 -20 hstem
          246 53 vstem
          116 381 rmoveto
          6 0 -1 25 123 6 rrcurveto
          10 hlineto
          -54 -130 -94 -174 -65 -100 -11 -17 -14 1 0 -3 0 -3 1 0 6 0 55 0 2 6 4 7 26 46 132 244 53 125 47 1 54 0 52 2 rrcurveto
          -49 -117 -24 -42 -68 -134 -41 -81 -20 -24 0 -22 rrcurveto
          -6 7 -5 6 42 45 14 9 1 -2 1 -1 vhcurveto
          -4 0 -15 -8 -13 0 -7 0 -5 3 0 5 0 11 5 18 22 44 rrcurveto
          167 335 rlineto
          17 1 17 1 16 2 26 3 18 4 21 14 7 5 -8 0 -2 0 -2 0 -2 -1 -23 -3 -132 -16 -186 11 -78 -14 -26 -5 -21 -12 -11 -11 rrcurveto
          -7 -7 -4 -5 0 -2 0 -2 1 -1 2 0 rrcurveto
          endchar
        </CharString>
        <CharString name="Psi">
          209 135 26 264 18 -9 9 31 21 hstemhm
          178 46 4 43 343 33 hintmask 11011110
          217 443 rmoveto
          -19 0 -41 -11 -33 -34 -7 -7 -4 -5 0 -2 0 -2 1 -1 2 0 2 0 3 4 6 6 30 30 27 4 13 0 29 0 2 -21 0 -17 rrcurveto
          0 -45 -50 -66 0 -54 0 -45 44 -37 43 -5 -64 -117 -13 -14 -35 -4 rrcurveto
          -4 -2 -3 -2 -2 2 -2 6 hvcurveto
          3 0 15 3 17 1 66 4 -21 -3 45 88 rrcurveto
          26 51 rlineto
          102 11 117 93 87 141 22 37 13 23 0 25 0 26 -23 4 -8 0 -14 0 -12 -8 -9 -7 -4 -3 -1 -2 0 -1 0 -1 1 -1 1 0 rrcurveto
          2 0 1 2 6 0 8 0 19 -5 0 -22 -1 -25 -11 -20 -23 -38 -95 -156 -107 -46 -60 -5 49 96 38 67 63 104 5 8 38 1 0 6 rrcurveto
          hintmask 10111110
          1 -1 3 -4 vhcurveto
          -14 -26 -2 -22 -30 -16 -13 hflex
          -4 -4 -2 -2 hvcurveto
          0 -3 12 1 11 -3 8 -2 7 -4 0 -6 0 -12 -89 -165 -46 -84 -35 10 -20 27 0 32 0 54 47 68 0 41 rrcurveto
          27 -16 23 -38 vhcurveto
          endchar
        </CharString>
        <CharString name="Q">
          166 -186 26 148 30 408 17 hstem
          77 41 145 38 139 28 36 31 114 14 vstem
          477 -186 rmoveto
          131 55 114 8 3 -2 3 -5 hvcurveto
          -4 0 -2 -4 -1 -5 -6 -29 -57 -64 -85 0 -95 0 -68 79 -23 91 108 47 112 120 0 138 rrcurveto
          48 -17 81 -21 -8 -18 -24 -3 vhcurveto
          0 -1 33 -59 0 -60 0 -116 -91 -111 -104 -38 -7 33 -4 37 0 42 0 19 1 20 2 21 rrcurveto
          1 -1 1 -2 -8 -27 -16 -4 vhcurveto
          0 -37 6 -63 16 -62 -16 -4 -17 -2 -16 0 -71 0 -47 55 0 80 0 58 29 60 31 46 45 67 61 42 79 0 rrcurveto
          27 50 -15 -58 -3 2 -2 3 hvcurveto
          3 0 4 11 5 9 5 10 6 7 0 4 0 27 -50 27 -34 0 -84 0 -82 -45 -59 -72 -41 -50 -41 -84 0 -68 0 -88 72 -48 74 0 rrcurveto
          21 0 24 5 24 8 44 -132 67 -55 74 0 rrcurveto
          endchar
        </CharString>
        <CharString name="R">
          76 -133 11 127 -21 439 20 hstem
          447 37 vstem
          158 207 rmoveto
          -54 callsubr
          52 22 rmoveto
          -53 callsubr
          -169 -255 rmoveto
          -52 callsubr
          endchar
        </CharString>
        <CharString name="Racute">
          76 -133 11 106 21 418 20 57 80 hstemhm
          403 140 -96 37 hintmask 00011000
          414 508 rmoveto
          22 callsubr
          hintmask 11100100
          -375 -370 rmoveto
          -54 callsubr
          52 22 rmoveto
          -53 callsubr
          -169 -255 rmoveto
          -52 callsubr
          endchar
        </CharString>
        <CharString name="Rcaron">
          76 -133 11 106 21 418 20 hstem
          447 37 vstem
          hintmask 00000000
          447 514 rmoveto
          48 callsubr
          -289 -307 rmoveto
          -54 callsubr
          52 22 rmoveto
          -53 callsubr
          -169 -255 rmoveto
          -52 callsubr
          endchar
        </CharString>
        <CharString name="Rcommaaccent">
          76 -195 145 -83 11 106 21 418 20 hstemhm
          150 24 273 37 hintmask 10001000
          158 -50 rmoveto
          49 callsubr
          hintmask 01110100
          257 vmoveto
          -54 callsubr
          52 22 rmoveto
          -53 callsubr
          -169 -255 rmoveto
          -52 callsubr
          endchar
        </CharString>
        <CharString name="Rho">
          106 -16 21 312 20 78 28 hstem
          203 41 221 42 vstem
          182 182 rmoveto
          -56 callsubr
          -132 -165 rmoveto
          -55 callsubr
          endchar
        </CharString>
        <CharString name="S">
          62 -17 21 417 22 hstem
          38 36 135 35 68 41 62 35 vstem
          38 68 rmoveto
          -51 callsubr
          endchar
        </CharString>
        <CharString name="Sacute">
          62 -17 21 417 22 57 80 hstemhm
          38 36 135 35 68 41 -7 140 -71 35 hintmask 00100010
          357 508 rmoveto
          22 callsubr
          hintmask 11011101
          -438 -509 rmoveto
          -51 callsubr
          endchar
        </CharString>
        <CharString name="Scaron">
          62 -17 21 417 22 hstem
          38 36 135 35 68 41 62 35 vstem
          hintmask 00000000
          390 514 rmoveto
          48 callsubr
          -352 -446 rmoveto
          -51 callsubr
          endchar
        </CharString>
        <CharString name="Scedilla">
          62 -145 5 67 26 30 21 417 22 hstem
          38 36 94 19 22 35 68 41 62 35 vstem
          156 hmoveto
          24 callsubr
          -118 68 rmoveto
          -51 callsubr
          endchar
        </CharString>
        <CharString name="Scircumflex">
          62 -17 21 417 22 57 83 hstemhm
          38 36 135 35 68 41 -38 159 -59 35 hintmask 00100010
          444 583 rmoveto
          28 callsubr
          hintmask 11011101
          -406 -515 rmoveto
          -51 callsubr
          endchar
        </CharString>
        <CharString name="Scommaaccent">
          62 -195 145 33 21 417 22 hstem
          38 36 50 24 61 35 68 41 62 35 vstem
          132 -50 rmoveto
          49 callsubr
          -94 118 rmoveto
          -51 callsubr
          endchar
        </CharString>
        <CharString name="Sigma">
          151 -14 19 -5 29 391 23 hstemhm
          216 45 -15 42 118 33 79 47 hintmask 01101110
          16 -12 rmoveto
          19 0 86 12 31 0 rrcurveto
          hintmask 10101110
          44 0 43 -14 44 0 rrcurveto
          92 64 64 49 11 -9 8 -5 -4 -25 -11 -6 hvcurveto
          0 -3 10 -5 0 -14 0 -14 -5 -60 -90 0 rrcurveto
          hintmask 01101110
          -63 0 -24 24 -69 0 -21 0 -53 -6 -35 -5 50 76 82 73 75 52 22 15 13 6 0 8 rrcurveto
          hintmask 01110110
          0 7 -27 32 0 112 rrcurveto
          14 vlineto
          6 135 1 90 23 9 -7 -6 vhcurveto
          0 -27 -23 -29 0 -5 0 -2 1 -1 1 0 7 0 1 7 12 7 12 7 1 11 20 37 8 15 7 6 0 7 rrcurveto
          1 -2 2 -7 vhcurveto
          -298 hlineto
          -13 0 -4 -7 -7 -6 -7 -5 -11 -5 0 -9 rrcurveto
          hintmask 01101110
          0 -80 30 -86 0 -10 0 -6 -12 -11 -12 -9 -117 -88 -93 -115 0 -14 rrcurveto
          -3 2 -1 2 vhcurveto
          endchar
        </CharString>
        <CharString name="T">
          50 7 -21 428 21 81 21 7 8 hstem
          333 43 vstem
          143 -1 rmoveto
          -50 callsubr
          endchar
        </CharString>
        <CharString name="Tau">
          50 -14 21 407 21 81 21 7 8 hstem
          333 43 vstem
          143 -1 rmoveto
          -50 callsubr
          endchar
        </CharString>
        <CharString name="Tbar">
          50 -14 21 313 24 70 21 81 21 7 8 hstem
          333 43 vstem
          426 348 rmoveto
          -35 0 -119 -2 -44 -2 rrcurveto
          -8 -30 -18 -5 -1 1 0 1 hvcurveto
          84 4 39 -2 77 2 4 0 6 4 8 5 9 5 9 4 0 4 0 1 -1 1 -1 0 rrcurveto
          -283 -349 rmoveto
          -50 callsubr
          endchar
        </CharString>
        <CharString name="Tcaron">
          50 -14 21 407 21 81 21 7 8 hstem
          333 43 vstem
          hintmask 00000000
          370 544 rmoveto
          48 callsubr
          -227 -545 rmoveto
          -50 callsubr
          endchar
        </CharString>
        <CharString name="Tcommaaccent">
          50 -145 5 67 26 33 21 407 21 81 21 7 8 hstem
          131 19 183 43 vstem
          119 hmoveto
          24 callsubr
          24 -1 rmoveto
          -50 callsubr
          endchar
        </CharString>
        <CharString name="Theta">
          166 -12 30 177 26 205 17 hstem
          77 41 79 204 39 28 36 31 vstem
          535 315 rmoveto
          -57 callsubr
          -182 -94 rmoveto
          -98 callsubr
          endchar
        </CharString>
        <CharString name="Thorn">
          44 8 -21 342 28 68 18 hstem
          237 41 144 42 vstem
          140 97 rmoveto
          45 83 93 149 89 0 37 0 18 -28 0 -27 0 -108 -236 -57 -46 -12 rrcurveto
          71 141 rmoveto
          28 47 39 69 0 39 0 27 -19 23 -42 0 -19 0 -41 -11 -33 -34 -7 -7 -4 -5 0 -2 0 -2 1 -1 2 0 2 0 3 4 6 6 rrcurveto
          30 30 30 4 13 0 19 0 18 -10 0 -26 0 -18 0 -15 -179 -339 -10 -19 -5 -5 0 -3 0 -2 3 -1 2 0 2 0 1 4 20 2 rrcurveto
          26 2 -1 0 3 8 9 26 12 27 13 25 41 12 290 69 0 132 0 42 -30 21 -39 0 -71 0 -61 -53 -52 -66 rrcurveto
          endchar
        </CharString>
        <CharString name="U">
          194 -8 24 413 14 hstem
          101 47 101 42 69 38 vstem
          291 394 rmoveto
          -49 callsubr
          endchar
        </CharString>
        <CharString name="Uacute">
          194 -8 24 413 14 57 80 hstemhm
          101 47 101 42 69 38 -11 140 hintmask 00100010
          398 508 rmoveto
          22 callsubr
          hintmask 11011100
          -226 -183 rmoveto
          -49 callsubr
          endchar
        </CharString>
        <CharString name="Ubreve">
          194 -8 24 413 14 73 14 hstemhm
          101 47 101 42 69 38 -9 24 hintmask 00100010
          429 516 rmoveto
          46 callsubr
          hintmask 11011100
          -138 -122 rmoveto
          -49 callsubr
          endchar
        </CharString>
        <CharString name="Ucircumflex">
          194 -8 24 413 14 57 83 hstemhm
          101 47 101 42 65 159 -155 38 hintmask 00100100
          485 583 rmoveto
          28 callsubr
          hintmask 11011010
          -194 -189 rmoveto
          -49 callsubr
          endchar
        </CharString>
        <CharString name="Udieresis">
          194 -8 24 413 14 66 53 hstemhm
          101 47 101 42 69 38 -5 46 30 46 hintmask 00100011
          393 527 rmoveto
          -20 callsubr
          76 hmoveto
          -20 callsubr
          hintmask 11011100
          -178 -133 rmoveto
          -49 callsubr
          endchar
        </CharString>
        <CharString name="Ugrave">
          194 -8 24 413 14 57 121 hstemhm
          101 47 101 42 69 38 -20 65 hintmask 00100010
          443 501 rmoveto
          -38 callsubr
          hintmask 11011100
          -152 -107 rmoveto
          -49 callsubr
          endchar
        </CharString>
        <CharString name="Uhorn">
          188 -8 24 378 26 9 14 13 -20 hstemhm
          101 47 101 42 69 38 234 6 hintmask 11011111
          566 394 rmoveto
          61 callsubr
          hintmask 10101110
          -294 -26 rmoveto
          -49 callsubr
          endchar
        </CharString>
        <CharString name="Uhungarumlaut">
          194 -8 24 413 14 56 80 -80 87 hstemhm
          101 47 101 42 69 38 16 140 hintmask 00010001
          481 583 rmoveto
          52 callsubr
          hintmask 00100001
          -56 -76 rmoveto
          22 callsubr
          hintmask 11001110
          -253 -182 rmoveto
          -49 callsubr
          endchar
        </CharString>
        <CharString name="Umacron">
          194 -8 24 413 14 84 14 hstemhm
          101 47 101 42 62 177 -170 38 hintmask 00100100
          357 541 rmoveto
          45 callsubr
          hintmask 11011010
          -66 -147 rmoveto
          -49 callsubr
          endchar
        </CharString>
        <CharString name="Uogonek">
          194 -113 8 97 24 413 14 hstemhm
          86 31 -16 47 101 42 69 38 hintmask 10010000
          194 3 rmoveto
          47 callsubr
          hintmask 01101110
          97 391 rmoveto
          -49 callsubr
          endchar
        </CharString>
        <CharString name="Upsilon">
          194 -483 15 460 24 413 14 hstem
          -112 49 170 47 96 40 vstem
          291 -84 rmoveto
          -42 callsubr
          181 316 rmoveto
          -41 callsubr
          endchar
        </CharString>
        <CharString name="Upsilon1">
          106 5 -21 440 19 hstem
          279 36 271 40 vstem
          250 135 rmoveto
          90 callsubr
          endchar
        </CharString>
        <CharString name="Upsilondieresis">
          194 -483 15 460 24 413 14 66 53 hstem
          -112 49 170 47 96 40 103 46 30 46 vstem
          393 527 rmoveto
          -20 callsubr
          76 hmoveto
          -20 callsubr
          -178 -611 rmoveto
          -42 callsubr
          181 316 rmoveto
          -41 callsubr
          endchar
        </CharString>
        <CharString name="Upsilontonos">
          194 -483 15 460 24 381 114 -82 14 hstemhm
          -112 49 137 118 -85 47 96 40 hintmask 00100100
          77 402 rmoveto
          67 callsubr
          hintmask 11011011
          117 -586 rmoveto
          -42 callsubr
          181 316 rmoveto
          -41 callsubr
          endchar
        </CharString>
        <CharString name="Uring">
          194 -8 24 413 14 57 11 68 12 hstemhm
          101 47 101 42 69 38 -9 17 62 18 hintmask 0011000110000000
          439 579 rmoveto
          33 callsubr
          -50 -45 rmoveto
          38 callsubr
          hintmask 1100111000000000
          -98 -140 rmoveto
          -49 callsubr
          endchar
        </CharString>
        <CharString name="Utilde">
          194 -8 24 413 14 56 17 31 17 hstemhm
          101 47 101 42 47 206 -184 38 hintmask 00110010
          419 564 rmoveto
          29 callsubr
          hintmask 11001101
          -128 -170 rmoveto
          -49 callsubr
          endchar
        </CharString>
        <CharString name="V">
          105 4 -21 442 18 -8 12 hstemhm
          231 44 hintmask 11010000
          181 81 rmoveto
          -48 callsubr
          hintmask 10110000
          -47 callsubr
          hintmask 11010000
          -46 callsubr
          endchar
        </CharString>
        <CharString name="W">
          287 -28 10 27 -21 147 27 263 19 -7 10 hstemhm
          239 45 306 35 hintmask 11110110
          221 444 rmoveto
          -45 callsubr
          hintmask 11101110
          -44 callsubr
          endchar
        </CharString>
        <CharString name="Wacute">
          287 -28 10 6 21 126 27 263 19 -7 10 53 80 hstemhm
          239 45 86 140 80 35 hintmask 0000010100000000
          381 508 rmoveto
          22 callsubr
          hintmask 1111001010000000
          -279 -133 rmoveto
          -45 callsubr
          hintmask 1110101010000000
          -44 callsubr
          endchar
        </CharString>
        <CharString name="Wcircumflex">
          287 -28 10 6 21 126 27 263 19 -7 10 53 83 hstemhm
          239 45 55 159 92 35 hintmask 0000010100000000
          468 583 rmoveto
          28 callsubr
          hintmask 1111001010000000
          -247 -139 rmoveto
          -45 callsubr
          hintmask 1110101010000000
          -44 callsubr
          endchar
        </CharString>
        <CharString name="Wdieresis">
          287 -28 10 6 21 126 27 263 19 -7 10 62 53 hstemhm
          239 45 92 46 30 46 92 35 hintmask 0000010110000000
          376 527 rmoveto
          -20 callsubr
          76 hmoveto
          -20 callsubr
          hintmask 1111001001000000
          -231 -83 rmoveto
          -45 callsubr
          hintmask 1110101001000000
          -44 callsubr
          endchar
        </CharString>
        <CharString name="Wgrave">
          287 -28 10 6 21 126 27 263 19 -7 10 53 121 hstemhm
          239 45 77 65 164 35 hintmask 0000010100000000
          426 501 rmoveto
          -38 callsubr
          hintmask 1111001010000000
          -205 -57 rmoveto
          -45 callsubr
          hintmask 1110101010000000
          -44 callsubr
          endchar
        </CharString>
        <CharString name="X">
          131 -53 24 25 25 396 26 hstem
          563 42 vstem
          26 41 rmoveto
          -43 callsubr
          endchar
        </CharString>
        <CharString name="Xi">
          141 -14 22 14 22 143 22 2 22 154 22 12 22 hstem
          114 44 rmoveto
          -14 0 -43 -3 -46 -37 -7 -6 -3 -2 0 -2 0 -1 1 -1 1 0 2 0 6 6 5 4 22 15 9 5 30 0 93 0 41 -36 98 0 rrcurveto
          14 0 43 3 46 37 7 6 3 2 0 2 0 1 -1 1 -1 0 -2 0 -6 -6 -5 -4 -22 -15 -9 -5 -30 0 -98 0 -41 36 -93 0 rrcurveto
          234 143 rmoveto
          14 0 43 3 46 37 7 6 3 2 0 2 0 1 -1 1 -1 0 -2 0 -6 -6 -5 -4 -22 -15 -9 -5 -30 0 -55 0 -28 24 -56 0 rrcurveto
          -14 0 -43 -3 -46 -37 -7 -6 -3 -2 0 -2 0 -1 1 -1 1 0 2 0 6 6 5 4 22 15 9 5 30 0 55 0 28 -24 56 0 rrcurveto
          -154 211 rmoveto
          -7 -7 -4 -5 0 -2 0 -2 1 -1 2 0 2 0 3 4 6 6 21 21 21 9 30 0 79 0 41 -34 78 0 14 0 43 3 46 37 rrcurveto
          7 6 3 2 0 2 0 1 -1 1 -1 0 -2 0 -6 -6 -5 -4 -22 -15 -9 -5 -30 0 -77 0 -43 34 -78 0 -28 0 -54 -13 -30 -32 rrcurveto
          endchar
        </CharString>
        <CharString name="Y">
          194 -483 15 460 24 413 14 hstem
          -112 49 170 47 96 40 vstem
          291 -84 rmoveto
          -42 callsubr
          181 316 rmoveto
          -41 callsubr
          endchar
        </CharString>
        <CharString name="Yacute">
          194 -483 15 460 24 413 14 57 80 hstem
          -112 49 170 47 96 40 97 140 vstem
          398 508 rmoveto
          22 callsubr
          -226 -661 rmoveto
          -42 callsubr
          181 316 rmoveto
          -41 callsubr
          endchar
        </CharString>
        <CharString name="Ycircumflex">
          194 -483 15 460 24 413 14 57 83 hstem
          -112 49 170 47 96 40 52 159 vstem
          471 583 rmoveto
          28 callsubr
          -180 -667 rmoveto
          -42 callsubr
          181 316 rmoveto
          -41 callsubr
          endchar
        </CharString>
        <CharString name="Ydieresis">
          194 -483 15 460 24 413 14 66 53 hstem
          -112 49 170 47 96 40 89 46 30 46 vstem
          379 527 rmoveto
          -20 callsubr
          76 hmoveto
          -20 callsubr
          -164 -611 rmoveto
          -42 callsubr
          181 316 rmoveto
          -41 callsubr
          endchar
        </CharString>
        <CharString name="Ygrave">
          194 -483 15 460 24 413 14 57 121 hstem
          -112 49 170 47 96 40 74 65 vstem
          429 501 rmoveto
          -38 callsubr
          -138 -585 rmoveto
          -42 callsubr
          181 316 rmoveto
          -41 callsubr
          endchar
        </CharString>
        <CharString name="Z">
          103 -89 24 55 -20 49 -21 17 30 346 18 1 21 hstemhm
          568 15 hintmask 11101110
          397 409 rmoveto
          -40 callsubr
          hintmask 11011110
          -39 callsubr
          endchar
        </CharString>
        <CharString name="Zacute">
          103 -89 24 35 20 8 21 -4 30 346 18 1 21 69 80 hstemhm
          333 140 95 15 hintmask 0000001100000000
          344 508 rmoveto
          22 callsubr
          hintmask 1110110010000000
          -66 -168 rmoveto
          -40 callsubr
          hintmask 1101110010000000
          -39 callsubr
          endchar
        </CharString>
        <CharString name="Zcaron">
          103 -89 24 35 20 8 21 -4 30 346 18 1 21 hstemhm
          568 15 hintmask 11101110
          397 409 rmoveto
          -40 callsubr
          hintmask 11011110
          -39 callsubr
          -20 105 rmoveto
          48 callsubr
          endchar
        </CharString>
        <CharString name="Zdotaccent">
          103 -89 24 35 20 8 21 -4 30 346 18 1 21 78 53 hstemhm
          375 46 147 15 hintmask 0000001100000000
          375 527 rmoveto
          -20 callsubr
          hintmask 1110110010000000
          22 -118 rmoveto
          -40 callsubr
          hintmask 1101110010000000
          -39 callsubr
          endchar
        </CharString>
        <CharString name="Zeta">
          103 -89 24 35 20 8 21 -4 30 346 18 1 21 hstemhm
          568 15 hintmask 11101110
          397 409 rmoveto
          -40 callsubr
          hintmask 11011110
          -39 callsubr
          endchar
        </CharString>
        <CharString name="a">
          -8 0 17 202 12 hstem
          31 39 95 38 65 13 vstem
          217 84 rmoveto
          -37 callsubr
          -10 135 rmoveto
          -36 callsubr
          -2 12 rmoveto
          -35 callsubr
          endchar
        </CharString>
        <CharString name="aacute">
          -8 0 17 202 12 43 80 hstemhm
          31 39 95 38 -11 140 -64 13 hintmask 00100100
          203 282 rmoveto
          22 callsubr
          hintmask 11011010
          -105 -267 rmoveto
          -37 callsubr
          -10 135 rmoveto
          -36 callsubr
          -2 12 rmoveto
          -35 callsubr
          endchar
        </CharString>
        <CharString name="abreve">
          -8 0 17 202 12 59 14 hstem
          31 39 95 38 5 24 36 13 vstem
          248 290 rmoveto
          46 callsubr
          -31 -206 rmoveto
          -37 callsubr
          -10 135 rmoveto
          -36 callsubr
          -2 12 rmoveto
          -35 callsubr
          endchar
        </CharString>
        <CharString name="acircumflex">
          -8 0 17 202 12 43 83 hstemhm
          31 39 91 159 -155 38 65 13 hintmask 00101000
          290 357 rmoveto
          28 callsubr
          hintmask 11010110
          -73 -273 rmoveto
          -37 callsubr
          -10 135 rmoveto
          -36 callsubr
          -2 12 rmoveto
          -35 callsubr
          endchar
        </CharString>
        <CharString name="acute">
          -156 273 80 hstem
          118 140 vstem
          129 281 rmoveto
          22 callsubr
          endchar
        </CharString>
        <CharString name="acutecomb">
          -63 274 80 hstem
          111 140 vstem
          122 282 rmoveto
          22 callsubr
          endchar
        </CharString>
        <CharString name="adieresis">
          -8 0 17 202 12 52 53 hstemhm
          31 39 95 38 -5 46 24 13 -7 46 hintmask 00100101
          198 301 rmoveto
          -20 callsubr
          76 hmoveto
          -20 callsubr
          hintmask 11011010
          -57 -217 rmoveto
          -37 callsubr
          -10 135 rmoveto
          -36 callsubr
          -2 12 rmoveto
          -35 callsubr
          endchar
        </CharString>
        <CharString name="ae">
          55 -4 10 -6 17 202 12 hstemhm
          31 38 115 37 122 32 hintmask 01111100
          266 187 rmoveto
          39 callsubr
          hintmask 10111100
          40 callsubr
          -7 -7 rmoveto
          41 callsubr
          hintmask 01111100
          42 callsubr
          -25 -76 rmoveto
          -26 callsubr
          endchar
        </CharString>
        <CharString name="aeacute">
          55 -4 10 -6 17 202 12 43 80 hstemhm
          31 38 115 37 13 140 -31 32 hintmask 00010010
          245 282 rmoveto
          22 callsubr
          hintmask 01101101
          -98 -164 rmoveto
          39 callsubr
          hintmask 10101101
          40 callsubr
          -7 -7 rmoveto
          41 callsubr
          hintmask 01101101
          42 callsubr
          -25 -76 rmoveto
          -26 callsubr
          endchar
        </CharString>
        <CharString name="afii57929">
          -314 234 145 hstem
          70 24 vstem
          78 379 rmoveto
          49 callsubr
          endchar
        </CharString>
        <CharString name="agrave">
          -8 0 17 202 12 43 121 hstemhm
          31 39 95 38 -20 65 20 13 hintmask 00100100
          248 275 rmoveto
          -38 callsubr
          hintmask 11011010
          -31 -191 rmoveto
          -37 callsubr
          -10 135 rmoveto
          -36 callsubr
          -2 12 rmoveto
          -35 callsubr
          endchar
        </CharString>
        <CharString name="alpha">
          29 -2 19 205 9 hstemhm
          31 38 126 29 -1 29 hintmask 11110000
          195 60 rmoveto
          72 callsubr
          hintmask 11101000
          73 callsubr
          hintmask 11110000
          13 vmoveto
          74 callsubr
          hintmask 11101000
          75 callsubr
          endchar
        </CharString>
        <CharString name="alphatonos">
          29 -2 19 205 9 40 114 hstemhm
          31 38 126 29 -2 118 -117 29 hintmask 00100100
          225 276 rmoveto
          67 callsubr
          hintmask 11011000
          -127 -316 rmoveto
          72 callsubr
          hintmask 11010010
          73 callsubr
          hintmask 11011000
          13 vmoveto
          74 callsubr
          hintmask 11010010
          75 callsubr
          endchar
        </CharString>
        <CharString name="amacron">
          -8 0 17 202 12 70 14 hstemhm
          31 39 95 38 -31 177 -81 13 hintmask 00100100
          176 315 rmoveto
          45 callsubr
          hintmask 11011010
          41 -231 rmoveto
          -37 callsubr
          -10 135 rmoveto
          -36 callsubr
          -2 12 rmoveto
          -35 callsubr
          endchar
        </CharString>
        <CharString name="ampersand">
          194 -15 22 97 14 74 5 46 10 30 20 119 20 hstem
          76 36 108 13 26 28 21 25 78 22 vstem
          251 283 rmoveto
          31 26 -4 -13 -8 -3 -5 -11 hvcurveto
          -17 0 -16 17 -10 13 rrcurveto
          82 -10 rmoveto
          21 -25 9 -20 vhcurveto
          -10 0 -20 -2 -17 -3 -5 11 -3 12 0 12 rrcurveto
          51 37 38 60 32 49 -25 -34 -1 1 -1 1 vhcurveto
          2 0 2 5 6 11 5 9 5 4 0 5 rrcurveto
          28 -48 19 -39 -51 -75 -42 -78 vhcurveto
          0 -11 1 -10 3 -8 -73 -24 -75 -60 0 -89 0 -83 73 -52 72 0 105 0 84 91 18 52 26 -14 24 -10 29 0 13 0 12 8 16 18 rrcurveto
          7 7 3 5 0 1 0 1 -1 1 -1 0 -1 0 -4 -7 -6 -6 -9 -9 -6 -5 -13 0 -58 0 -64 79 -78 0 rrcurveto
          -30 -28 -16 -20 -29 23 -2 10 hvcurveto
          4 hlineto
          7 7 1 2 hvcurveto
          0 5 -23 9 0 18 0 14 11 13 13 0 30 0 26 -28 34 -21 -11 -65 -47 -71 -88 0 -71 0 -72 52 0 81 0 52 29 75 88 14 rrcurveto
          11 -21 24 -17 23 0 rrcurveto
          24 22 12 18 hvcurveto
          endchar
        </CharString>
        <CharString name="anoteleia">
          -95 161 53 hstem
          145 46 vstem
          145 179 rmoveto
          -20 callsubr
          endchar
        </CharString>
        <CharString name="aogonek">
          -8 -113 8 105 17 202 12 hstem
          31 39 39 31 25 38 65 13 vstem
          217 3 rmoveto
          47 callsubr
          81 vmoveto
          -37 callsubr
          -10 135 rmoveto
          -36 callsubr
          -2 12 rmoveto
          -35 callsubr
          endchar
        </CharString>
        <CharString name="aring">
          -8 0 17 202 12 43 11 68 12 hstem
          31 39 95 38 5 17 43 13 6 18 vstem
          258 353 rmoveto
          33 callsubr
          -50 -45 rmoveto
          38 callsubr
          9 -224 rmoveto
          -37 callsubr
          -10 135 rmoveto
          -36 callsubr
          -2 12 rmoveto
          -35 callsubr
          endchar
        </CharString>
        <CharString name="aringacute">
          -8 0 17 202 12 43 11 68 12 9 80 hstemhm
          31 39 95 38 5 17 22 140 -119 13 6 18 hintmask 0000100010000000
          258 382 rmoveto
          22 callsubr
          hintmask 1111011101100000
          -119 -98 rmoveto
          33 callsubr
          -50 -45 rmoveto
          38 callsubr
          9 -224 rmoveto
          -37 callsubr
          -10 135 rmoveto
          -36 callsubr
          -2 12 rmoveto
          -35 callsubr
          endchar
        </CharString>
        <CharString name="asciicircum">
          -61 272 172 hstem
          109 227 vstem
          218 428 rmoveto
          -100 -151 -9 1 0 -2 0 -1 1 0 0 0 4 0 20 11 2 4 32 50 30 40 27 34 32 -71 51 -71 0 0 5 0 23 10 0 6 rrcurveto
          0 4 -48 50 -41 96 -2 5 0 1 -1 0 -2 0 -19 -8 -5 -8 rrcurveto
          endchar
        </CharString>
        <CharString name="asciitilde">
          6 130 14 51 16 hstem
          312 26 vstem
          103 150 rmoveto
          9 19 18 26 20 0 45 0 11 -65 45 0 43 0 41 40 3 37 rrcurveto
          1 0 2 -2 -8 -16 -9 -5 -22 -13 -30 -23 vhcurveto
          -45 0 -13 67 -46 0 -31 0 -35 -32 -19 -27 -3 -4 -6 -10 0 -1 0 -1 1 0 0 0 2 0 4 5 4 2 6 3 7 2 1 2 rrcurveto
          endchar
        </CharString>
        <CharString name="asterisk">
          -99 223 12 -7 29 65 18 -16 23 55 36 hstemhm
          108 25 24 8 97 38 hintmask 00011111
          159 293 rmoveto
          -8 6 -18 14 0 8 rrcurveto
          2 1 1 3 5 18 -1 0 vhcurveto
          hintmask 00101111
          58 -1 rmoveto
          -10 -16 -11 -16 -11 -15 -7 5 -7 4 -7 6 rrcurveto
          33 vlineto
          60 -11 rmoveto
          12 -23 25 -33 0 -17 rrcurveto
          hintmask 10001111
          -2 -1 -2 -2 vhcurveto
          -5 0 -28 12 -27 19 10 20 6 10 10 16 rrcurveto
          hintmask 00101111
          -12 28 rmoveto
          -46 3 rlineto
          1 23 1 36 4 0 rrcurveto
          5 0 14 -27 21 -35 rrcurveto
          23 13 rmoveto
          -33 57 -10 28 -9 0 -23 0 3 -46 -3 -48 rrcurveto
          hintmask 01011111
          -10 1 -8 2 -8 0 -18 0 -9 -10 0 -7 0 -7 24 -21 26 -17 0 -5 -1 -11 0 -5 0 -32 14 -4 5 0 6 0 7 21 7 11 rrcurveto
          hintmask 10101111
          35 -21 34 -16 15 0 0 0 20 7 0 11 0 1 0 1 -1 2 -13 19 -17 29 -17 29 rrcurveto
          59 hlineto
          8 0 7 -1 5 0 rrcurveto
          6 8 10 5 2 -1 2 -5 hvcurveto
          -93 hlineto
          14 22 12 20 22 29 1 1 0 1 0 1 0 5 -7 14 -4 0 -10 0 -9 -32 -29 -48 rrcurveto
          -54 -83 rmoveto
          hintmask 01001111
          -3 -5 -7 -8 -3 0 -3 0 -1 12 0 12 4 -3 9 -5 4 -3 rrcurveto
          endchar
        </CharString>
        <CharString name="at">
          149 -15 20 90 20 -11 15 160 4 94 20 hstemhm
          74 33 78 37 74 37 145 33 hintmask 1011111110000000
          300 144 rmoveto
          -93 callsubr
          hintmask 1101111110000000
          56 -29 rmoveto
          -13 -10 9 11 hvcurveto
          0 24 16 32 10 17 15 25 11 15 18 18 3 3 4 3 0 2 0 1 0 2 -3 0 -8 0 -8 -3 -4 -2 -3 -1 -8 -4 -5 -5 rrcurveto
          -7 19 -23 2 -19 0 rrcurveto
          -62 -75 -71 -66 hvcurveto
          hintmask 1011111110000000
          -24 17 -18 23 vhcurveto
          26 0 30 17 16 11 0 -2 -1 -3 0 -2 rrcurveto
          hintmask 1101111110000000
          -17 15 -13 21 93 86 100 88 74 -74 40 -61 -141 -161 -111 -168 -72 63 -61 78 155 86 98 0 1 -1 0 -1 vhcurveto
          -6 0 -15 -8 -7 -6 -52 -48 -63 -17 -79 0 rrcurveto
          -64 -61 53 78 117 83 124 157 60 71 -39 -73 hvcurveto
          -47 -40 -103 -82 vhcurveto
          endchar
        </CharString>
        <CharString name="atilde">
          -8 0 17 202 12 42 17 31 17 hstemhm
          31 39 87 206 -198 38 65 13 hintmask 00110100
          238 338 rmoveto
          29 callsubr
          hintmask 11001011
          -21 -254 rmoveto
          -37 callsubr
          -10 135 rmoveto
          -36 callsubr
          -2 12 rmoveto
          -35 callsubr
          endchar
        </CharString>
        <CharString name="b">
          17 -10 20 219 20 441 24 hstem
          68 37 200 34 129 40 vstem
          141 175 rmoveto
          -34 callsubr
          -78 27 rmoveto
          -33 callsubr
          158 122 rmoveto
          -32 callsubr
          endchar
        </CharString>
        <CharString name="backslash">
          -136 -48 -21 hstem
          24 212 vstem
          24 532 rmoveto
          195 -600 1 -1 rlineto
          3 13 9 2 hvcurveto
          -194 600 -1 0 rlineto
          -6 -11 -8 -2 hvcurveto
          endchar
        </CharString>
        <CharString name="bar">
          -52 -31 -21 hstem
          162 19 vstem
          162 -50 rmoveto
          -1 0 -1 1 vhcurveto
          2 0 -2 2 7 3 7 3 4 0 0 3 rrcurveto
          531 vlineto
          1 0 1 -1 vhcurveto
          -2 0 1 -2 -7 -3 -7 -3 -3 0 0 -3 rrcurveto
          endchar
        </CharString>
        <CharString name="beta">
          53 -14 17 224 23 -17 10 173 30 hstemhm
          -211 41 504 32 28 32 hintmask 10111110
          353 416 rmoveto
          24 17 -12 -30 hvcurveto
          0 -43 -33 -50 -27 -20 -24 -17 -18 -1 -12 0 rrcurveto
          hintmask 11011110
          -27 0 -5 7 -14 0 rrcurveto
          -5 -11 -12 -6 -4 6 -1 6 hvcurveto
          hintmask 10111110
          15 0 24 6 19 0 rrcurveto
          18 28 -27 -41 -82 -65 -80 -85 hvcurveto
          -65 0 -17 57 -8 0 -2 0 -1 -3 0 -1 0 -6 3 -5 1 -9 0 -6 -1 -8 0 -7 rrcurveto
          -17 33 -12 21 72 146 53 140 vhcurveto
          0 17 -13 33 -44 11 63 18 54 87 0 37 0 22 -4 42 -39 0 -215 0 -218 -583 -105 -352 -26 -88 -30 -122 0 -4 0 -2 1 -1 2 0 rrcurveto
          9 0 1 2 8 2 8 2 11 2 1 7 2 21 7 68 33 118 rrcurveto
          45 161 229 739 207 0 rrcurveto
          endchar
        </CharString>
        <CharString name="braceleft">
          -44 -71 8 271 25 266 8 hstem
          61 35 54 32 vstem
          182 -63 rmoveto
          -42 -44 29 36 hvcurveto
          0 85 86 37 0 62 0 15 -3 14 -14 9 6 3 32 16 15 11 77 58 -14 112 72 51 32 23 30 1 42 0 rrcurveto
          6 4 2 3 2 -2 1 -3 hvcurveto
          -50 0 -43 -9 -31 -19 -91 -60 15 -83 -58 -71 -15 -18 -25 -18 -11 0 -7 0 -12 4 -13 0 rrcurveto
          -16 -15 -16 -3 -3 1 -6 5 hvcurveto
          21 0 3 3 7 0 10 0 13 -22 0 -12 0 -74 -89 -30 0 -80 rrcurveto
          -51 68 -10 53 8 2 2 2 2 -2 2 -8 vhcurveto
          endchar
        </CharString>
        <CharString name="braceright">
          -44 231 499 rmoveto
          42 44 -29 -36 hvcurveto
          0 -85 -86 -37 0 -62 0 -15 3 -14 14 -9 -6 -3 -32 -16 -15 -11 -77 -58 14 -112 -72 -51 -32 -23 -30 -1 -42 0 rrcurveto
          -6 -4 -2 -3 -2 2 -1 3 hvcurveto
          50 0 43 9 31 19 91 60 -15 83 58 71 15 18 25 18 11 0 7 0 12 -4 13 0 rrcurveto
          16 15 16 3 3 -1 6 -5 hvcurveto
          -21 0 -3 -3 -7 0 -10 0 -13 22 0 12 0 74 89 30 0 80 rrcurveto
          51 -68 10 -53 -8 -2 -2 -2 -2 2 -2 8 vhcurveto
          endchar
        </CharString>
        <CharString name="bracketleft">
          -44 -71 8 562 8 hstem
          22 53 vstem
          182 -63 rmoveto
          -57 -50 10 8 hvcurveto
          0 3 3 7 6 12 rrcurveto
          265 502 rlineto
          7 13 64 7 37 0 rrcurveto
          6 4 2 3 2 -2 1 -3 hvcurveto
          -133 hlineto
          -7 0 -6 -11 -7 -15 rrcurveto
          -263 -500 rlineto
          -5 -10 -19 -34 0 -4 rrcurveto
          -3 3 -1 2 vhcurveto
          155 hlineto
          8 2 2 2 2 -2 2 -8 hvcurveto
          endchar
        </CharString>
        <CharString name="bracketright">
          -44 231 499 rmoveto
          57 50 -10 -8 hvcurveto
          0 -3 -3 -7 -6 -12 rrcurveto
          -265 -502 rlineto
          -7 -13 -64 -7 -37 0 rrcurveto
          -6 -4 -2 -3 -2 2 -1 3 hvcurveto
          133 hlineto
          7 0 6 11 7 15 rrcurveto
          263 500 rlineto
          5 10 19 34 0 4 rrcurveto
          3 -3 1 -2 vhcurveto
          -155 hlineto
          -8 -2 -2 -2 -2 2 -2 8 hvcurveto
          endchar
        </CharString>
        <CharString name="breve">
          -88 290 14 hstem
          150 24 vstem
          190 290 rmoveto
          46 callsubr
          endchar
        </CharString>
        <CharString name="brokenbar">
          -52 -31 -21 322 -21 hstem
          162 19 vstem
          162 251 rmoveto
          -1 0 -1 1 vhcurveto
          2 0 -2 2 7 3 7 3 4 0 0 3 rrcurveto
          230 vlineto
          1 0 1 -1 vhcurveto
          -2 0 1 -2 -7 -3 -7 -3 -3 0 0 -3 rrcurveto
          -294 vmoveto
          -237 vlineto
          -1 0 -1 1 vhcurveto
          2 0 -2 2 7 3 7 3 4 0 0 3 rrcurveto
          237 vlineto
          1 0 1 -1 vhcurveto
          -2 0 1 -2 -7 -3 -7 -3 -3 0 0 -3 rrcurveto
          endchar
        </CharString>
        <CharString name="bullet">
          -60 92 158 hstem
          88 157 vstem
          173 250 rmoveto
          -48 -37 -42 -48 -38 31 -30 40 32 54 20 66 39 -32 33 -40 hvcurveto
          endchar
        </CharString>
        <CharString name="c">
          -80 -11 12 213 20 hstem
          34 38 125 33 vstem
          72 60 rmoveto
          -31 callsubr
          endchar
        </CharString>
        <CharString name="cacute">
          -80 -11 12 213 20 40 80 hstemhm
          34 38 84 140 -99 33 hintmask 00101000
          167 282 rmoveto
          22 callsubr
          hintmask 11010100
          -214 -291 rmoveto
          -31 callsubr
          endchar
        </CharString>
        <CharString name="caron">
          -88 213 306 rmoveto
          48 callsubr
          endchar
        </CharString>
        <CharString name="ccaron">
          -80 -11 12 213 20 hstem
          34 38 125 33 vstem
          hintmask 00000000
          200 288 rmoveto
          48 callsubr
          -128 -228 rmoveto
          -31 callsubr
          endchar
        </CharString>
        <CharString name="ccedilla">
          -80 -145 5 67 26 36 12 213 20 hstem
          34 38 48 19 58 33 vstem
          108 hmoveto
          24 callsubr
          -36 60 rmoveto
          -31 callsubr
          endchar
        </CharString>
        <CharString name="ccircumflex">
          -80 -11 12 213 20 40 83 hstemhm
          34 38 53 159 -87 33 hintmask 00101000
          254 357 rmoveto
          28 callsubr
          hintmask 11010100
          -182 -297 rmoveto
          -31 callsubr
          endchar
        </CharString>
        <CharString name="cdotaccent">
          -80 -11 12 213 20 49 53 hstemhm
          34 38 125 33 -32 46 hintmask 00100100
          198 301 rmoveto
          -20 callsubr
          hintmask 11011000
          -126 -241 rmoveto
          -31 callsubr
          endchar
        </CharString>
        <CharString name="cedilla">
          -114 -145 5 67 26 hstem
          98 19 vstem
          86 hmoveto
          24 callsubr
          endchar
        </CharString>
        <CharString name="cent">
          -5 42 16 286 15 hstem
          67 50 225 38 vstem
          147 66 rmoveto
          -18 9 -12 26 0 24 0 75 86 144 80 0 8 0 6 0 7 -2 rrcurveto
          -157 -300 rmoveto
          62 1 47 16 43 36 22 18 30 41 0 12 0 2 -2 0 -1 0 -3 0 -19 -40 -30 -25 -30 -25 -42 -20 -39 0 -10 0 -10 1 -8 3 rrcurveto
          54 99 52 90 53 87 16 -6 10 -11 0 -11 0 -15 -5 -2 0 -3 0 -3 1 -1 2 0 6 0 6 6 11 5 13 6 4 -2 0 13 rrcurveto
          0 20 -26 19 -26 5 rrcurveto
          48 76 rlineto
          18 28 29 25 0 6 0 1 -1 0 -1 0 -20 0 -21 -20 -24 -42 rrcurveto
          -42 -73 rlineto
          -123 -2 -124 -137 0 -107 0 -41 34 -28 33 -2 -31 -54 -33 -59 -31 -62 -2 -4 -1 -4 0 -4 0 -2 0 -1 1 0 3 0 7 7 2 5 rrcurveto
          endchar
        </CharString>
        <CharString name="chi">
          -51 -251 11 hstem
          60 38 260 6 vstem
          136 66 rmoveto
          -32 130 -6 11 0 10 0 2 0 1 -2 0 -5 0 -18 -11 -10 -7 -3 -2 0 -1 0 -1 0 -1 1 -1 1 0 3 0 3 -8 38 -152 rrcurveto
          -70 -73 -140 -144 rlineto
          -4 -5 -2 -3 0 -2 0 -2 2 -1 3 0 10 0 19 8 4 5 rrcurveto
          138 155 43 48 rlineto
          13 -50 18 -63 13 -42 23 -74 53 -44 69 0 19 0 17 1 26 14 47 26 22 27 34 48 1 2 0 0 0 1 0 2 -2 0 -2 0 rrcurveto
          -1 0 -2 -1 -2 -3 -4 -6 -18 -25 -24 -24 -28 -27 -37 -24 -32 0 -56 0 -32 34 -31 78 -25 63 -16 61 -13 58 50 54 47 50 62 78 rrcurveto
          59 74 -2 3 9 21 rrcurveto
          3 vlineto
          1 -2 1 -1 vhcurveto
          -1 0 -1 0 -1 -3 -1 -3 -13 -32 -43 -51 -84 -98 -33 -36 -48 -50 rrcurveto
          endchar
        </CharString>
        <CharString name="circumflex">
          -88 272 83 hstem
          103 159 vstem
          232 355 rmoveto
          28 callsubr
          endchar
        </CharString>
        <CharString name="club">
          212 -8 15 98 192 146 -20 hstemhm
          196 188 -110 24 hintmask 11110000
          394 105 rmoveto
          56 34 33 64 37 -14 58 -64 hvcurveto
          -15 0 -17 -1 -25 -13 19 21 16 32 0 20 rrcurveto
          48 -36 39 -58 -55 -39 -43 -51 vhcurveto
          0 -24 10 -19 18 -23 -24 12 -16 0 -14 0 rrcurveto
          -41 -40 -36 -58 -58 33 -38 59 hvcurveto
          hintmask 11101000
          51 0 15 35 27 3 -3 -65 -23 -32 -23 -22 -7 -8 -15 -8 -3 -1 -6 -3 -11 2 0 -5 0 -3 2 -6 3 0 6 0 73 3 37 0 rrcurveto
          26 0 44 -3 5 0 rrcurveto
          hintmask 11110000
          3 2 8 3 hvcurveto
          0 3 -8 0 -6 2 -8 2 -11 5 -10 13 rrcurveto
          hintmask 11101000
          -20 23 -20 25 -3 66 rrcurveto
          38 -4 -14 -33 72 0 rrcurveto
          endchar
        </CharString>
        <CharString name="colon">
          -112 -4 64 102 64 hstem
          56 61 26 61 vstem
          143 180 rmoveto
          -106 callsubr
          -87 -166 rmoveto
          -106 callsubr
          endchar
        </CharString>
        <CharString name="comma">
          -154 -134 176 hstem
          63 37 vstem
          80 42 rmoveto
          -99 callsubr
          endchar
        </CharString>
        <CharString name="copyright">
          222 -12 16 68 11 255 18 74 13 hstem
          103 42 53 33 212 25 69 41 vstem
          145 164 rmoveto
          1 131 105 135 132 0 rrcurveto
          101 53 -66 -103 -138 -109 -119 -130 -101 -52 77 83 hvcurveto
          253 279 rmoveto
          -155 -140 -142 -143 -98 67 -72 108 156 144 137 149 98 -72 71 -108 hvcurveto
          -31 -105 rmoveto
          34 0 37 -20 5 -24 0 -2 1 -3 2 0 2 0 2 4 2 2 10 12 6 1 0 9 rrcurveto
          6 -30 33 -51 -78 -111 -85 -107 -54 37 -38 56 61 70 40 11 15 1 4 -3 vhcurveto
          -6 0 -46 -59 -61 0 rrcurveto
          -40 -36 38 45 87 65 85 71 hvcurveto
          endchar
        </CharString>
        <CharString name="currency">
          126 82 17 272 20 hstem
          142 34 243 34 vstem
          176 245 rmoveto
          63 36 63 70 vhcurveto
          2 hlineto
          77 58 -69 -74 -71 -42 -58 -65 -78 -58 72 74 hvcurveto
          -34 -17 rmoveto
          0 -39 14 -39 29 -29 -8 -6 -29 -26 0 -4 0 -3 2 -2 2 0 4 0 14 18 22 17 26 -23 31 -10 32 0 39 0 40 15 31 25 rrcurveto
          11 -13 21 -27 9 0 7 0 16 9 0 7 0 4 -33 33 -8 9 24 27 15 35 0 39 0 38 -15 34 -24 26 26 24 16 8 0 5 rrcurveto
          0 2 -3 0 -2 1 -2 1 -1 0 -1 0 -5 0 -5 -9 -29 -25 -27 25 -35 16 -37 0 -36 0 -44 -20 -26 -21 -22 23 -8 19 -7 0 rrcurveto
          -7 0 -4 -4 -5 -4 -6 -5 -5 -3 0 -2 0 -4 23 -19 18 -23 -22 -26 -16 -33 0 -41 rrcurveto
          endchar
        </CharString>
        <CharString name="d">
          27 0 17 202 12 420 14 hstem
          31 39 119 33 345 22 vstem
          265 163 rmoveto
          -30 callsubr
          13 87 rmoveto
          -29 callsubr
          5 11 rmoveto
          -28 callsubr
          endchar
        </CharString>
        <CharString name="dagger">
          -9 5 -21 255 22 189 -20 hstem
          63 302 vstem
          296 422 rmoveto
          -27 -61 -26 -55 -26 -50 -5 -1 -2 0 -3 0 -51 0 -31 9 -21 0 -4 0 -7 -6 -7 -4 -7 -4 -6 -3 0 -5 0 -4 60 -3 44 0 rrcurveto
          11 0 9 1 10 0 -44 -84 -41 -70 -40 -65 -8 -13 -14 -14 0 -3 0 -2 1 -1 2 0 3 0 2 3 9 3 21 8 14 -8 4 10 rrcurveto
          22 51 44 93 47 93 24 2 23 2 23 0 12 0 20 -2 5 0 rrcurveto
          8 21 7 10 4 -21 1 -16 hvcurveto
          -29 0 -28 -3 -32 -2 39 76 65 109 0 6 0 3 -1 0 -2 0 -4 0 -35 -16 -5 -12 rrcurveto
          endchar
        </CharString>
        <CharString name="daggerdbl">
          -9 5 -21 189 22 79 22 154 -20 hstem
          296 422 rmoveto
          -21 -47 -21 -44 -20 -41 -52 0 -32 9 -21 0 -4 0 -7 -6 -7 -4 -7 -4 -6 -3 0 -5 0 -4 60 -3 44 0 8 0 7 1 7 0 rrcurveto
          -42 -82 rlineto
          -52 0 -31 9 -21 0 -4 0 -7 -6 -7 -4 -7 -4 -6 -3 0 -5 0 -4 60 -3 44 0 7 0 6 1 7 0 -31 -56 -29 -50 -29 -47 rrcurveto
          -8 -13 -14 -14 0 -3 0 -2 1 -1 2 0 3 0 2 3 9 3 21 8 14 -8 4 10 16 39 30 63 34 69 27 2 25 2 25 0 rrcurveto
          12 0 20 -2 5 0 rrcurveto
          8 21 7 10 4 -21 1 -16 hvcurveto
          -31 0 -29 -4 -36 -1 rrcurveto
          41 82 rlineto
          27 2 25 2 25 0 12 0 20 -2 5 0 rrcurveto
          8 21 7 10 4 -20 1 -16 hvcurveto
          -31 0 -31 -4 -35 -1 38 71 48 80 0 5 0 3 -1 0 -2 0 -4 0 -35 -16 -5 -12 rrcurveto
          endchar
        </CharString>
        <CharString name="dcaron">
          27 0 17 202 12 272 145 3 14 hstem
          31 39 119 33 345 22 72 24 vstem
          669 648 rmoveto
          49 callsubr
          -404 -485 rmoveto
          -30 callsubr
          13 87 rmoveto
          -29 callsubr
          5 11 rmoveto
          -28 callsubr
          endchar
        </CharString>
        <CharString name="dcroat">
          27 0 17 202 12 131 20 269 14 hstem
          31 39 119 33 345 22 vstem
          438 386 rmoveto
          50 callsubr
          -173 -223 rmoveto
          -30 callsubr
          13 87 rmoveto
          -29 callsubr
          5 11 rmoveto
          -28 callsubr
          endchar
        </CharString>
        <CharString name="degree">
          -147 310 14 102 16 hstem
          129 24 87 25 vstem
          153 383 rmoveto
          16 callsubr
          -24 -14 rmoveto
          17 callsubr
          endchar
        </CharString>
        <CharString name="delta">
          -28 -4 12 686 21 hstemhm
          31 40 137 30 -4 28 227 26 hintmask 11110100
          441 715 rmoveto
          81 callsubr
          hintmask 11101100
          103 72 105 85 hvcurveto
          hintmask 11110100
          82 callsubr
          -218 -491 rmoveto
          hintmask 11101100
          83 callsubr
          endchar
        </CharString>
        <CharString name="diamond">
          49 7 -21 460 -20 hstem
          69 318 vstem
          211 421 rmoveto
          -20 -29 -23 -37 -31 -43 -63 -88 -5 -6 0 -7 0 -11 23 -13 108 -182 5 -9 2 -10 5 0 10 0 18 7 9 14 41 63 19 23 73 104 rrcurveto
          3 4 2 3 0 5 0 6 -9 20 -55 88 -67 104 -5 19 -5 0 -9 0 -1 -1 -9 -6 -10 -7 -2 -6 -4 -5 rrcurveto
          endchar
        </CharString>
        <CharString name="dieresis">
          -138 283 53 hstem
          140 46 30 46 vstem
          140 301 rmoveto
          -20 callsubr
          76 hmoveto
          -20 callsubr
          endchar
        </CharString>
        <CharString name="divide">
          12 72 43 35 24 38 43 hstem
          144 45 31 45 vstem
          172 115 rmoveto
          43 callsubr
          76 140 rmoveto
          43 callsubr
          21 -81 rmoveto
          -57 0 -88 3 -24 0 -3 0 -1 -6 -4 -7 -3 -5 -5 -4 0 -2 0 -1 1 0 1 0 8 0 33 2 29 0 48 0 103 -4 13 0 rrcurveto
          3 0 0 6 3 7 3 7 2 2 0 2 0 1 -1 0 -1 0 -7 0 -43 -1 -10 0 rrcurveto
          endchar
        </CharString>
        <CharString name="dollar">
          66 -17 21 417 22 hstem
          38 36 135 35 68 41 62 35 vstem
          267 212 rmoveto
          23 -30 22 -32 0 -36 0 -42 -46 -68 -84 0 -6 0 -7 1 -8 1 rrcurveto
          118 262 rmoveto
          -19 24 -16 24 0 24 0 38 33 43 64 0 6 0 6 0 5 -1 rrcurveto
          -320 -352 rmoveto
          0 -31 24 -46 69 -7 rrcurveto
          -65 -113 rlineto
          -1 -2 -1 -1 0 -1 0 -1 1 -1 1 0 6 0 22 14 4 8 rrcurveto
          52 96 rlineto
          88 1 115 76 0 83 0 41 -34 37 -30 35 rrcurveto
          83 160 rlineto
          26 -8 17 -18 0 -17 0 -2 1 -1 2 0 2 0 0 1 7 5 9 7 14 7 0 5 0 5 -17 36 -47 6 27 51 10 17 0 5 rrcurveto
          1 -1 0 -1 vhcurveto
          -3 0 -6 1 -1 0 -1 0 -5 -7 -35 -67 -67 -1 -94 -54 0 -69 0 -33 23 -30 24 -31 rrcurveto
          -112 -216 rlineto
          -34 10 -36 24 0 52 0 9 9 9 0 2 0 2 -2 0 -1 0 -2 0 -12 -18 -16 -16 -6 -6 -6 -5 0 -4 rrcurveto
          endchar
        </CharString>
        <CharString name="dotaccent">
          -98 283 53 hstem
          176 46 vstem
          176 301 rmoveto
          -20 callsubr
          endchar
        </CharString>
        <CharString name="dotbelowcomb">
          -106 -85 53 hstem
          44 46 vstem
          44 -67 rmoveto
          -20 callsubr
          endchar
        </CharString>
        <CharString name="dotlessi">
          -127 -4 17 200 11 hstem
          44 40 34 34 vstem
          62 196 rmoveto
          -19 callsubr
          endchar
        </CharString>
        <CharString name="e">
          -97 -8 13 214 14 hstem
          30 39 122 32 vstem
          78 95 rmoveto
          -27 callsubr
          4 9 rmoveto
          -26 callsubr
          endchar
        </CharString>
        <CharString name="eacute">
          -97 -8 13 214 14 41 80 hstemhm
          30 39 90 140 -108 32 hintmask 00101000
          170 282 rmoveto
          22 callsubr
          hintmask 11010100
          -211 -256 rmoveto
          -27 callsubr
          4 9 rmoveto
          -26 callsubr
          endchar
        </CharString>
        <CharString name="ebreve">
          -97 -8 13 214 14 57 14 hstemhm
          30 39 106 24 -8 32 hintmask 00101000
          215 290 rmoveto
          46 callsubr
          hintmask 11010100
          -137 -195 rmoveto
          -27 callsubr
          4 9 rmoveto
          -26 callsubr
          endchar
        </CharString>
        <CharString name="ecaron">
          -97 -8 13 214 14 hstem
          30 39 122 32 vstem
          hintmask 00000000
          203 288 rmoveto
          48 callsubr
          -125 -193 rmoveto
          -27 callsubr
          4 9 rmoveto
          -26 callsubr
          endchar
        </CharString>
        <CharString name="ecircumflex">
          -97 -8 13 214 14 41 83 hstemhm
          30 39 59 159 -96 32 hintmask 00101000
          257 357 rmoveto
          28 callsubr
          hintmask 11010100
          -179 -262 rmoveto
          -27 callsubr
          4 9 rmoveto
          -26 callsubr
          endchar
        </CharString>
        <CharString name="edieresis">
          -97 -8 13 214 14 50 53 hstemhm
          30 39 96 46 -20 32 18 46 hintmask 00101010
          165 301 rmoveto
          -20 callsubr
          76 hmoveto
          -20 callsubr
          hintmask 11010100
          -163 -206 rmoveto
          -27 callsubr
          4 9 rmoveto
          -26 callsubr
          endchar
        </CharString>
        <CharString name="edotaccent">
          -97 -8 13 214 14 50 53 hstemhm
          30 39 122 32 -22 46 hintmask 00100100
          201 301 rmoveto
          -20 callsubr
          hintmask 11011000
          -123 -206 rmoveto
          -27 callsubr
          4 9 rmoveto
          -26 callsubr
          endchar
        </CharString>
        <CharString name="egrave">
          -97 -8 13 214 14 41 121 hstemhm
          30 39 81 65 -24 32 hintmask 00101000
          215 275 rmoveto
          -38 callsubr
          hintmask 11010100
          -137 -180 rmoveto
          -27 callsubr
          4 9 rmoveto
          -26 callsubr
          endchar
        </CharString>
        <CharString name="eight">
          16 -12 26 299 9 105 16 hstem
          28 44 134 35 76 32 45 44 vstem
          242 241 rmoveto
          31 -35 44 -26 0 -52 rrcurveto
          -48 -59 -66 -98 -72 -16 37 25 vhcurveto
          0 63 77 56 93 46 rrcurveto
          196 160 rmoveto
          25 -24 17 -37 -54 -117 -61 -70 vhcurveto
          0 -31 18 -17 11 -14 -75 -37 -132 -52 0 -95 rrcurveto
          -45 43 -33 65 111 102 100 70 vhcurveto
          0 45 -46 37 -23 24 16 7 75 34 0 3 0 1 -1 0 0 0 -9 0 -51 -27 -37 -11 -19 18 -13 17 0 27 rrcurveto
          43 57 51 50 37 9 -23 -16 -30 -28 -38 -17 vhcurveto
          -5 0 -2 2 -3 0 rrcurveto
          -4 -2 -2 -2 -3 2 -2 5 37 61 43 45 hvcurveto
          endchar
        </CharString>
        <CharString name="ellipsis">
          255 -8 64 -62 64 -61 64 hstemhm
          81 61 133 61 140 61 hintmask 00100100
          476 15 rmoveto
          -106 callsubr
          hintmask 10001000
          -201 -5 rmoveto
          -106 callsubr
          hintmask 01010000
          -194 2 rmoveto
          -106 callsubr
          endchar
        </CharString>
        <CharString name="emacron">
          -97 -8 13 214 14 68 14 hstemhm
          30 39 70 177 -125 32 hintmask 00101000
          143 315 rmoveto
          45 callsubr
          hintmask 11010100
          -65 -220 rmoveto
          -27 callsubr
          4 9 rmoveto
          -26 callsubr
          endchar
        </CharString>
        <CharString name="emdash">
          369 154 20 hstem
          440 174 rmoveto
          -57 0 -259 3 -24 0 -3 0 -1 -6 -4 -7 -3 -5 -5 -4 0 -2 0 -1 1 0 1 0 18 1 226 1 29 0 48 0 257 -4 13 0 rrcurveto
          3 0 0 6 3 7 3 7 2 2 0 2 0 1 -1 0 -1 0 -7 0 -229 -1 -10 0 rrcurveto
          endchar
        </CharString>
        <CharString name="endash">
          169 154 20 hstem
          340 174 rmoveto
          -57 0 -159 3 -24 0 -3 0 -1 -6 -4 -7 -3 -5 -5 -4 0 -2 0 -1 1 0 1 0 18 1 126 1 29 0 48 0 157 -4 13 0 rrcurveto
          3 0 0 6 3 7 3 7 2 2 0 2 0 1 -1 0 -1 0 -7 0 -129 -1 -10 0 rrcurveto
          endchar
        </CharString>
        <CharString name="eng">
          0 -180 20 88 -20 99 -21 221 21 -14 14 hstemhm
          -61 25 155 34 98 36 hintmask 11110111
          84 124 rmoveto
          -43 -80 -22 -27 0 -10 0 -8 12 -13 9 0 6 0 5 18 15 25 rrcurveto
          35 65 rlineto
          0 1 21 38 2 4 3 6 78 64 27 0 13 0 6 -7 0 -18 0 -58 -93 -163 -7 -11 -57 -95 -46 -15 -26 0 -39 0 -19 28 0 18 rrcurveto
          0 12 7 21 0 5 0 2 0 2 -3 0 -4 0 -4 -13 -4 -6 -10 -18 -7 -12 0 -13 0 -14 9 -32 41 0 72 0 69 68 38 53 rrcurveto
          30 43 89 155 0 51 0 16 -6 20 -23 0 -26 0 -44 -22 -55 -47 10 18 10 19 0 10 rrcurveto
          hintmask 11101111
          13 -10 11 -17 vhcurveto
          -29 0 -33 -25 -1 -1 -3 -2 0 -1 0 -1 0 -1 1 -1 1 0 1 0 1 1 3 2 12 8 14 7 14 0 8 0 4 -6 0 -7 rrcurveto
          0 -13 -27 -49 -8 -15 rrcurveto
          endchar
        </CharString>
        <CharString name="eogonek">
          -97 -113 8 97 13 214 14 hstemhm
          0 31 -1 39 122 32 hintmask 11101100
          78 95 rmoveto
          91 64 54 29 0 25 0 13 -9 7 -17 0 -31 0 -97 -60 -33 -102 -8 -6 -10 -8 -4 -4 -1 -1 0 -1 0 -1 0 -1 0 -1 1 0 rrcurveto
          1 0 12 11 7 5 -2 -9 -2 -8 0 -8 0 -33 26 -12 31 -2 rrcurveto
          hintmask 11110100
          -57 -29 -30 -17 0 -31 rrcurveto
          -24 25 -4 18 14 30 9 2 1 -2 0 -2 vhcurveto
          -2 0 -8 -4 -10 0 -18 0 -14 13 0 16 0 30 31 19 34 19 30 0 25 8 21 10 47 24 50 40 37 48 1 2 0 0 0 1 rrcurveto
          1 -1 1 -1 vhcurveto
          -1 0 -1 0 -2 -3 -4 -6 -19 -24 -26 -23 -36 -31 -54 -35 -44 0 rrcurveto
          hintmask 11101100
          -34 -15 13 32 hvcurveto
          0 12 3 16 6 17 rrcurveto
          4 9 rmoveto
          -26 callsubr
          endchar
        </CharString>
        <CharString name="epsilon">
          -87 -10 15 119 22 74 14 hstem
          24 38 29 26 vstem
          127 5 rmoveto
          76 callsubr
          endchar
        </CharString>
        <CharString name="epsilontonos">
          -87 -10 15 119 22 74 14 37 114 hstem
          24 38 29 26 68 118 vstem
          188 276 rmoveto
          67 callsubr
          -158 -371 rmoveto
          76 callsubr
          endchar
        </CharString>
        <CharString name="equal">
          89 142 25 34 25 hstemhm
          92 289 -262 289 hintmask 10100000
          289 163 rmoveto
          -95 callsubr
          hintmask 01010000
          27 59 rmoveto
          -95 callsubr
          endchar
        </CharString>
        <CharString name="estimated">
          129 -6 23 402 23 hstem
          85 39 248 39 vstem
          137 186 rmoveto
          32 101 110 132 64 0 17 0 12 -10 0 -16 0 -47 -115 -74 -120 -86 rrcurveto
          59 -192 rmoveto
          35 0 70 4 76 69 17 15 15 18 17 22 1 2 0 0 0 1 0 1 -1 1 -1 0 -1 0 -1 0 -2 -3 -4 -6 -19 -24 -26 -23 rrcurveto
          -44 -39 -37 -15 -58 0 -56 0 -53 36 0 55 0 23 4 22 6 22 131 96 146 91 0 54 0 17 -15 9 -15 0 -66 0 -170 -119 -49 -167 rrcurveto
          -18 -13 -58 -44 0 -2 rrcurveto
          -1 1 -1 1 10 61 50 0 vhcurveto
          -5 -20 -3 -20 0 -19 0 -55 54 -37 57 0 rrcurveto
          endchar
        </CharString>
        <CharString name="eta">
          -24 13 -21 215 19 -12 14 hstemhm
          99 17 3 34 93 36 hintmask 10111100
          133 156 rmoveto
          77 callsubr
          hintmask 11011100
          78 callsubr
          endchar
        </CharString>
        <CharString name="etatonos">
          -24 -8 21 194 19 -12 14 43 114 hstemhm
          99 17 3 34 59 118 -84 36 hintmask 00010010
          215 276 rmoveto
          67 callsubr
          hintmask 10101101
          -179 -220 rmoveto
          77 callsubr
          hintmask 11001101
          78 callsubr
          endchar
        </CharString>
        <CharString name="eth">
          -55 -8 12 198 17 hstem
          29 39 167 22 vstem
          235 206 rmoveto
          -7 7 -9 6 -18 0 rrcurveto
          -58 -114 -93 -84 -35 26 -15 27 57 118 69 154 hvcurveto
          0 74 -24 98 -45 79 18 9 19 10 17 6 3 1 3 1 0 2 0 2 -4 1 -4 0 -5 0 -7 -4 -45 -19 -14 24 -17 22 -18 18 rrcurveto
          -3 3 -6 1 -4 0 -8 0 -16 -11 0 -2 0 -2 3 -1 3 -3 18 -18 16 -21 16 -24 -49 -25 -22 -6 0 -4 0 -3 4 -7 6 0 rrcurveto
          7 0 -6 0 67 36 36 -58 39 -90 0 -98 rrcurveto
          -4 -48 rmoveto
          -17 -93 -76 -61 -38 0 rrcurveto
          -23 -9 19 30 58 66 91 50 hvcurveto
          22 0 20 -17 5 -27 rrcurveto
          endchar
        </CharString>
        <CharString name="exclam">
          -97 -4 64 332 15 hstemhm
          77 61 -16 19 hintmask 11010000
          141 106 rmoveto
          -107 callsubr
          hintmask 10100000
          -64 -92 rmoveto
          -106 callsubr
          endchar
        </CharString>
        <CharString name="exclamdbl">
          48 249 85 rmoveto
          11 43 38 62 23 37 41 67 86 116 42 0 4 0 1 -1 1 0 rrcurveto
          1 1 1 3 9 -18 6 -6 hvcurveto
          -11 0 -17 0 -7 -7 -37 -37 -65 -80 -40 -70 -34 -59 -33 -85 0 -5 0 -5 4 -2 4 0 6 0 4 4 1 3 rrcurveto
          -69 -87 rmoveto
          -106 callsubr
          -39 108 rmoveto
          -107 callsubr
          -64 -92 rmoveto
          -106 callsubr
          endchar
        </CharString>
        <CharString name="exclamdown">
          -96 -170 15 332 64 hstemhm
          144 19 -16 61 hintmask 00000000
          hintmask 00000000
          144 131 rmoveto
          -11 -43 -18 -36 -22 -38 -24 -40 -80 -129 -42 0 -4 0 -1 1 -1 0 rrcurveto
          -1 -1 -1 -3 -9 24 -3 6 hvcurveto
          11 0 16 4 5 5 35 38 49 78 25 50 21 40 32 81 0 5 0 5 -4 2 -4 0 rrcurveto
          -6 0 -4 -4 -1 -3 rrcurveto
          64 92 rmoveto
          15 callsubr
          endchar
        </CharString>
        <CharString name="f">
          -114 -598 25 1307 20 hstem
          -442 32 952 34 vstem
          38 33 rmoveto
          -25 callsubr
          225 169 rmoveto
          -24 callsubr
          endchar
        </CharString>
        <CharString name="five">
          -4 -21 22 240 24 119 32 hstem
          -1 39 262 39 vstem
          77 -21 rmoveto
          113 149 87 108 35 -18 56 -74 hvcurveto
          -29 0 -26 -9 -26 -11 35 53 21 41 20 50 9 -1 31 -4 16 0 36 0 43 5 38 12 32 10 15 24 0 2 0 3 -2 0 -1 0 rrcurveto
          -2 0 0 -5 -5 -2 -40 -16 -46 -1 -22 0 -89 0 8 13 -14 0 -11 0 -2 -3 -3 -8 -46 -123 -60 -68 0 -5 0 -1 0 -3 4 0 rrcurveto
          7 0 6 6 8 3 18 9 18 5 22 0 rrcurveto
          55 35 -35 -51 -89 -91 -65 -97 -57 -17 28 18 hvcurveto
          0 38 33 8 0 9 0 0 0 1 -2 0 -1 0 -1 0 -2 -2 -25 -25 -41 -18 0 -33 rrcurveto
          -37 48 -9 30 vhcurveto
          endchar
        </CharString>
        <CharString name="florin">
          -95 -243 20 685 19 hstem
          -185 34 vstem
          70 48 rmoveto
          -58 -119 -68 -152 -47 0 -22 0 -26 10 0 40 0 69 91 64 130 88 rrcurveto
          49 32 rmoveto
          78 57 72 50 16 10 6 4 12 8 0 2 0 1 -1 1 -1 0 -1 0 -1 0 -2 -1 -10 -6 -84 -57 -76 -53 132 246 34 120 63 0 rrcurveto
          24 0 -1 -28 5 0 rrcurveto
          7 22 22 8 8 -13 9 -22 hvcurveto
          -111 0 -117 -272 -72 -144 -147 -101 -116 -76 0 -79 0 -38 26 -14 27 0 103 0 84 210 64 113 rrcurveto
          endchar
        </CharString>
        <CharString name="four">
          24 -2 -21 223 21 37 -20 208 -20 hstem
          88 42 vstem
          425 258 rmoveto
          -4 0 -36 -12 -50 -11 45 83 42 75 14 22 8 13 13 6 0 7 0 1 0 1 -3 0 -9 0 -14 -14 -17 -10 -13 -8 -2 -6 -11 -19 rrcurveto
          -90 -158 rlineto
          -26 -4 -28 -3 -28 0 -34 0 -52 6 0 26 0 34 79 50 45 38 37 31 38 31 0 8 0 0 0 1 -1 0 -6 0 -31 -15 -3 -4 rrcurveto
          -12 -16 -14 -13 -16 -14 -72 -58 -86 -50 0 -45 0 -28 51 -3 22 0 32 0 45 2 50 8 rrcurveto
          -83 -147 rlineto
          -23 -41 -26 -38 0 -3 0 -2 1 -2 4 0 6 0 2 11 41 5 9 1 2 14 8 18 23 50 37 72 37 69 25 5 25 8 25 9 rrcurveto
          5 2 21 13 0 3 0 0 -1 1 -1 0 rrcurveto
          endchar
        </CharString>
        <CharString name="fraction">
          0 -34 -21 495 7 hstem
          -23 -55 rmoveto
          7 0 13 5 4 4 rrcurveto
          445 486 rlineto
          1 0 2 0 3 -4 2 -3 hvcurveto
          -5 0 -6 -3 -5 -6 rrcurveto
          -445 -484 rlineto
          -3 -2 -2 -2 0 -3 0 -1 1 -1 2 0 rrcurveto
          endchar
        </CharString>
        <CharString name="g">
          -24 -533 19 474 -20 60 17 202 13 hstem
          -411 34 408 38 210 6 vstem
          272 161 rmoveto
          -23 callsubr
          -531 -694 rmoveto
          -22 callsubr
          endchar
        </CharString>
        <CharString name="gamma">
          -68 -382 24 hstem
          -165 35 214 31 vstem
          71 -21 rmoveto
          -9 -68 -11 -70 -43 -93 -26 -57 -41 -49 -39 0 -22 0 -10 13 0 21 0 60 72 95 129 148 rrcurveto
          3 23 rmoveto
          -34 -38 -205 -211 0 -84 0 -31 12 -20 34 0 31 0 70 43 52 110 29 61 21 87 19 96 49 54 93 122 113 78 9 5 11 6 0 2 rrcurveto
          1 0 2 -2 vhcurveto
          -3 0 -8 -4 -10 -5 -63 -43 -70 -59 -114 -133 4 37 3 32 0 27 0 35 -5 27 -7 10 -5 7 -3 2 -4 0 -3 0 -17 -11 -8 -5 rrcurveto
          -3 -2 0 -1 0 -1 0 -1 1 -1 1 0 3 0 2 2 2 0 2 0 2 -2 2 -4 8 -16 1 -25 0 -29 0 -36 -6 -60 -4 -24 rrcurveto
          endchar
        </CharString>
        <CharString name="gbreve">
          -24 -533 19 454 20 40 17 202 13 58 14 hstem
          -411 34 408 38 138 24 48 6 vstem
          247 290 rmoveto
          46 callsubr
          25 -129 rmoveto
          -23 callsubr
          -531 -694 rmoveto
          -22 callsubr
          endchar
        </CharString>
        <CharString name="gcaron">
          -24 -533 19 454 20 40 17 202 13 hstem
          -411 34 408 38 210 6 vstem
          hintmask 00000000
          235 288 rmoveto
          48 callsubr
          37 -127 rmoveto
          -23 callsubr
          -531 -694 rmoveto
          -22 callsubr
          endchar
        </CharString>
        <CharString name="gcircumflex">
          -24 -533 19 454 20 40 17 202 13 42 83 hstemhm
          -411 34 408 38 91 159 -40 6 hintmask 0000100100000000
          289 357 rmoveto
          28 callsubr
          hintmask 1111011010000000
          -17 -196 rmoveto
          -23 callsubr
          -531 -694 rmoveto
          -22 callsubr
          endchar
        </CharString>
        <CharString name="gcommaaccent">
          -24 -533 19 454 20 40 17 202 13 42 113 hstemhm
          -411 34 408 38 196 23 -9 6 hintmask 0000100100000000
          228 282 rmoveto
          51 callsubr
          hintmask 1111011010000000
          44 -121 rmoveto
          -23 callsubr
          -531 -694 rmoveto
          -22 callsubr
          endchar
        </CharString>
        <CharString name="gdotaccent">
          -24 -533 19 454 20 40 17 202 13 51 53 hstem
          -411 34 408 38 164 46 0 6 vstem
          233 301 rmoveto
          -20 callsubr
          39 -140 rmoveto
          -23 callsubr
          -531 -694 rmoveto
          -22 callsubr
          endchar
        </CharString>
        <CharString name="germandbls">
          19 -397 16 367 8 227 12 329 20 hstem
          -304 34 360 31 106 36 43 42 82 33 vstem
          67 199 rmoveto
          1 0 27 22 18 0 6 0 6 -1 9 -3 rrcurveto
          -161 -313 rlineto
          -58 -112 -83 -173 -68 0 -17 0 -17 13 0 22 0 2 2 1 0 1 0 1 -1 1 -1 0 -2 0 -1 -3 -15 -8 -6 -3 -10 -4 0 -3 rrcurveto
          -16 18 -20 26 vhcurveto
          113 0 84 181 67 122 117 212 88 198 97 137 58 81 27 28 24 0 8 0 7 -14 0 -12 0 -24 -4 -17 -15 -20 -102 -135 -82 -28 0 -65 rrcurveto
          0 -43 79 30 0 -74 rrcurveto
          -76 -94 -90 -49 -29 -13 24 24 vhcurveto
          0 7 1 3 0 3 0 2 -1 0 0 flex1
          -6 -25 -33 -9 hvcurveto
          1 -19 46 -10 21 0 73 0 117 103 0 78 0 82 -85 -22 0 42 0 57 105 63 59 77 18 26 18 28 0 34 0 9 -5 19 -13 0 rrcurveto
          -36 0 -71 -42 -68 -95 -58 -81 -47 -90 -24 -44 -6 2 -6 1 -5 0 -21 0 -34 -27 -6 -4 -3 -2 0 -1 0 -1 0 -1 1 -1 1 0 rrcurveto
          1 0 1 1 3 2 rrcurveto
          endchar
        </CharString>
        <CharString name="grave">
          -188 273 121 hstem
          141 65 vstem
          206 274 rmoveto
          -38 callsubr
          endchar
        </CharString>
        <CharString name="gravecomb">
          -84 274 121 hstem
          125 65 vstem
          190 275 rmoveto
          -38 callsubr
          endchar
        </CharString>
        <CharString name="greater">
          -69 213 177 rmoveto
          0 -12 -1 1 -153 -121 -2 -1 -5 -5 0 -2 0 -2 2 -2 1 0 6 0 114 97 53 36 5 4 10 11 0 10 0 15 -62 103 -5 0 rrcurveto
          -5 0 -4 -3 -6 -3 -5 -3 -10 -1 0 -4 0 -9 67 -96 0 -13 rrcurveto
          endchar
        </CharString>
        <CharString name="guillemotleft">
          -1 -6 -21 252 -21 hstem
          104 28 50 27 vstem
          343 224 rmoveto
          -7 0 -47 -42 -99 -73 -6 -5 -2 -7 0 -6 0 -16 38 -86 2 -3 1 -2 1 0 2 0 2 0 29 4 0 4 0 4 -48 84 0 22 rrcurveto
          0 10 11 10 120 91 4 3 2 3 0 1 0 4 -1 0 -2 0 rrcurveto
          -63 15 rmoveto
          -6 0 -114 -97 -53 -36 -2 -2 -1 -3 0 -4 0 -6 25 -98 9 -18 1 -2 1 0 2 0 4 0 4 1 7 2 8 2 8 0 0 4 rrcurveto
          0 10 -41 98 0 16 0 9 0 -3 144 115 2 1 5 5 0 2 0 2 -2 2 -1 0 rrcurveto
          endchar
        </CharString>
        <CharString name="guillemotright">
          -75 10 -13 rmoveto
          7 0 47 42 99 73 6 5 2 7 0 6 0 16 -38 86 -2 3 -1 2 -1 0 -2 0 -2 0 -29 -4 0 -4 0 -4 48 -84 0 -22 rrcurveto
          0 -10 -11 -10 -120 -91 -4 -3 -2 -3 0 -1 0 -4 1 0 2 0 rrcurveto
          63 -15 rmoveto
          6 0 114 97 53 36 2 2 1 3 0 4 0 6 -25 98 -9 18 -1 2 -1 0 -2 0 -4 0 -4 -1 -7 -2 -8 -2 -8 0 0 -4 rrcurveto
          0 -10 41 -98 0 -16 0 -9 0 3 -144 -115 -2 -1 -5 -5 0 -2 0 -2 2 -2 1 0 rrcurveto
          endchar
        </CharString>
        <CharString name="h">
          21 -4 17 221 20 436 24 hstem
          26 41 147 41 33 35 145 40 vstem
          221 324 rmoveto
          -32 callsubr
          -50 -42 rmoveto
          -21 callsubr
          endchar
        </CharString>
        <CharString name="hbar">
          21 -4 17 221 20 260 20 156 24 hstem
          26 41 147 41 33 35 145 40 vstem
          396 538 rmoveto
          50 callsubr
          -175 -214 rmoveto
          -32 callsubr
          -50 -42 rmoveto
          -21 callsubr
          endchar
        </CharString>
        <CharString name="hcircumflex">
          21 -4 17 221 20 436 24 46 83 hstemhm
          26 41 147 41 33 35 97 159 -111 40 hintmask 0001000100000000
          549 843 rmoveto
          28 callsubr
          hintmask 1110111010000000
          -328 -519 rmoveto
          -32 callsubr
          -50 -42 rmoveto
          -21 callsubr
          endchar
        </CharString>
        <CharString name="heart">
          159 443 -20 hstem
          445 443 rmoveto
          106 callsubr
          endchar
        </CharString>
        <CharString name="hookabovecomb">
          -114 378 12 hstem
          175 18 36 18 vstem
          247 356 rmoveto
          65 callsubr
          endchar
        </CharString>
        <CharString name="hungarumlaut">
          -75 273 80 -80 87 hstemhm
          194 140 hintmask 01100000
          261 357 rmoveto
          52 callsubr
          hintmask 10100000
          -56 -76 rmoveto
          22 callsubr
          endchar
        </CharString>
        <CharString name="hyphen">
          -46 149 26 hstem
          84 204 vstem
          240 175 rmoveto
          -98 callsubr
          endchar
        </CharString>
        <CharString name="i">
          -127 -4 17 200 11 91 53 hstem
          44 40 34 34 27 46 vstem
          179 333 rmoveto
          -20 callsubr
          -117 -137 rmoveto
          -19 callsubr
          endchar
        </CharString>
        <CharString name="iacute">
          -127 -4 17 200 11 82 80 hstemhm
          44 40 34 34 -15 140 hintmask 00100100
          148 314 rmoveto
          22 callsubr
          hintmask 11011000
          -205 -187 rmoveto
          -19 callsubr
          endchar
        </CharString>
        <CharString name="ibreve">
          -127 -4 17 200 11 98 14 hstem
          44 40 34 34 1 24 vstem
          193 322 rmoveto
          46 callsubr
          -131 -126 rmoveto
          -19 callsubr
          endchar
        </CharString>
        <CharString name="icircumflex">
          -127 -4 17 200 11 82 83 hstemhm
          44 40 22 159 -147 34 hintmask 00101000
          235 389 rmoveto
          28 callsubr
          hintmask 11010100
          -173 -193 rmoveto
          -19 callsubr
          endchar
        </CharString>
        <CharString name="idieresis">
          -127 -4 17 200 11 91 53 hstemhm
          44 40 34 34 -9 46 30 46 hintmask 00100110
          143 333 rmoveto
          -20 callsubr
          76 hmoveto
          -20 callsubr
          hintmask 11011000
          -157 -137 rmoveto
          -19 callsubr
          endchar
        </CharString>
        <CharString name="igrave">
          -127 -4 17 200 11 82 121 hstemhm
          44 40 34 34 -24 65 hintmask 00100100
          193 307 rmoveto
          -38 callsubr
          hintmask 11011000
          -131 -111 rmoveto
          -19 callsubr
          endchar
        </CharString>
        <CharString name="ij">
          47 -500 14 482 17 213 -20 7 11 91 53 hstemhm
          -326 40 330 40 34 34 27 46 141 46 hintmask 1100111111000000
          197 -25 rmoveto
          -156 -278 rlineto
          -40 -71 -83 -112 -86 0 -74 0 -44 61 0 66 rrcurveto
          0 67 51 159 432 108 rrcurveto
          107 222 rmoveto
          -35 -76 -31 -71 -35 -64 -106 -25 -423 -93 0 -240 0 -75 60 -53 72 0 118 0 91 112 52 89 rrcurveto
          164 283 rlineto
          29 8 28 9 26 12 58 26 41 34 37 49 1 2 0 0 0 1 0 1 -1 1 -1 0 -1 0 -1 0 -2 -3 -4 -6 -19 -24 -26 -23 rrcurveto
          -29 -25 -27 -16 -47 -18 -17 -6 -18 -6 -21 -5 33 57 30 57 30 57 7 9 6 10 8 12 rrcurveto
          hintmask 1101111111000000
          2 4 4 6 0 6 rrcurveto
          hintmask 1110111111000000
          8 -9 5 -6 vhcurveto
          -16 0 -16 -17 -6 -12 rrcurveto
          hintmask 0000100001000000
          62 136 rmoveto
          -20 callsubr
          hintmask 0101101110000000
          -187 hmoveto
          -20 callsubr
          -117 -137 rmoveto
          -19 callsubr
          endchar
        </CharString>
        <CharString name="imacron">
          -127 -4 17 200 11 109 14 hstemhm
          44 40 33 177 -176 34 hintmask 00101000
          121 347 rmoveto
          45 callsubr
          hintmask 11010100
          -59 -151 rmoveto
          -19 callsubr
          endchar
        </CharString>
        <CharString name="iogonek">
          -127 -113 8 101 17 200 11 91 53 hstem
          -24 31 37 40 34 34 27 46 vstem
          84 3 rmoveto
          47 callsubr
          95 330 rmoveto
          -20 callsubr
          -117 -137 rmoveto
          -19 callsubr
          endchar
        </CharString>
        <CharString name="iota">
          -127 -4 17 200 11 hstem
          44 40 34 34 vstem
          62 196 rmoveto
          -19 callsubr
          endchar
        </CharString>
        <CharString name="iotadieresis">
          -127 -4 17 200 11 59 53 hstemhm
          44 40 34 34 -23 46 30 46 hintmask 00100110
          129 301 rmoveto
          -20 callsubr
          76 hmoveto
          -20 callsubr
          hintmask 11011000
          -143 -105 rmoveto
          -19 callsubr
          endchar
        </CharString>
        <CharString name="iotadieresistonos">
          -127 -4 17 200 11 59 53 35 114 hstemhm
          44 40 34 34 -23 46 23 118 -111 46 hintmask 0001000100000000
          201 376 rmoveto
          67 callsubr
          hintmask 0010001010000000
          -169 -175 rmoveto
          -20 callsubr
          76 hmoveto
          -20 callsubr
          hintmask 1100110000000000
          -143 -105 rmoveto
          -19 callsubr
          endchar
        </CharString>
        <CharString name="iotatonos">
          -127 -4 17 200 11 47 114 hstem
          44 40 34 34 3 118 vstem
          158 276 rmoveto
          67 callsubr
          -193 -180 rmoveto
          -19 callsubr
          endchar
        </CharString>
        <CharString name="itilde">
          -127 -4 17 200 11 81 17 31 17 hstemhm
          44 40 18 206 -190 34 hintmask 00110100
          183 370 rmoveto
          29 callsubr
          hintmask 11001010
          -121 -174 rmoveto
          -19 callsubr
          endchar
        </CharString>
        <CharString name="j">
          -140 -500 14 696 13 92 53 hstem
          -513 40 589 45 18 46 vstem
          179 333 rmoveto
          -20 callsubr
          -169 -354 rmoveto
          -18 callsubr
          139 244 rmoveto
          -17 callsubr
          endchar
        </CharString>
        <CharString name="jcircumflex">
          -140 -500 14 696 13 83 83 hstemhm
          -513 40 579 159 -149 45 hintmask 00101000
          235 389 rmoveto
          28 callsubr
          hintmask 11010100
          -225 -410 rmoveto
          -18 callsubr
          139 244 rmoveto
          -17 callsubr
          endchar
        </CharString>
        <CharString name="k">
          -27 -9 17 195 22 465 24 hstem
          17 41 33 34 343 40 vstem
          221 324 rmoveto
          -32 callsubr
          -130 -260 rmoveto
          -16 callsubr
          endchar
        </CharString>
        <CharString name="kappa">
          -27 -6 16 106 11 86 11 hstem
          117 32 vstem
          118 224 rmoveto
          -20 0 -19 -11 -16 -11 -3 -2 0 -1 0 -1 0 -1 1 -1 1 0 1 0 1 1 3 2 12 8 10 6 14 0 9 0 5 -6 0 -9 rrcurveto
          0 -12 -15 -28 -18 -34 -19 -36 -5 -8 -16 -28 -16 -28 -16 -22 0 -8 0 -2 2 0 2 0 3 0 6 2 5 1 8 2 11 -1 3 6 rrcurveto
          14 32 22 44 20 35 5 1 6 2 6 0 7 0 15 -3 16 -25 23 -38 -20 -56 51 0 22 0 33 23 45 41 17 16 25 26 17 22 rrcurveto
          1 2 0 0 0 1 0 1 -1 1 -1 0 -1 0 -1 0 -2 -3 -4 -6 -26 -30 -24 -22 -28 -26 -37 -30 -15 0 -41 0 15 51 -18 35 rrcurveto
          -6 12 -19 19 -17 0 -10 0 -10 -1 -8 -2 rrcurveto
          158 92 rlineto
          5 3 1 3 0 2 0 3 -1 1 -8 0 -6 0 -8 -1 -5 -3 rrcurveto
          -140 -91 rlineto
          18 29 12 22 0 14 0 15 -11 11 -20 0 rrcurveto
          endchar
        </CharString>
        <CharString name="kcommaaccent">
          -27 -195 145 41 17 195 22 465 24 hstemhm
          17 41 11 24 -2 34 343 40 hintmask 10000100
          77 -50 rmoveto
          49 callsubr
          hintmask 01111011
          144 374 rmoveto
          -32 callsubr
          -130 -260 rmoveto
          -16 callsubr
          endchar
        </CharString>
        <CharString name="kgreenlandic">
          -27 -9 17 11 -21 205 22 -11 10 hstemhm
          122 30 hintmask 01011000
          152 196 rmoveto
          22 -12 6 -20 vhcurveto
          -14 0 -15 -3 -13 -9 -6 -4 -12 -8 0 -2 0 -1 0 -1 2 0 1 0 1 0 2 1 12 8 10 9 15 0 9 0 10 -7 0 -9 rrcurveto
          0 -8 -15 -25 -23 -41 -27 -48 -22 -38 -10 -22 -3 -5 -2 -2 0 -3 0 -6 3 -2 4 0 6 0 8 4 4 0 5 0 7 2 3 6 rrcurveto
          5 13 14 24 13 25 rrcurveto
          0 -1 -5 -3 hvcurveto
          hintmask 10101000
          -44 25 -29 56 vhcurveto
          83 0 66 71 7 7 18 16 15 17 15 20 1 2 0 0 0 1 0 1 -1 1 -1 0 -1 0 -1 0 -2 -3 -4 -6 -19 -24 -26 -23 rrcurveto
          -39 -34 -44 -29 -47 0 rrcurveto
          -62 -5 52 22 63 88 60 51 hvcurveto
          9 0 4 -2 1 0 rrcurveto
          11 21 15 4 2 -10 1 -6 hvcurveto
          -33 0 -78 -29 -56 -59 rrcurveto
          12 23 13 24 0 12 rrcurveto
          endchar
        </CharString>
        <CharString name="l">
          -96 -11 14 687 24 hstem
          47 38 380 40 vstem
          218 324 rmoveto
          -32 callsubr
          -57 -55 rmoveto
          -15 callsubr
          endchar
        </CharString>
        <CharString name="lacute">
          -96 -11 14 687 24 46 80 hstemhm
          47 38 366 140 -126 40 hintmask 00101000
          462 768 rmoveto
          22 callsubr
          hintmask 11010100
          -363 -513 rmoveto
          -32 callsubr
          -57 -55 rmoveto
          -15 callsubr
          endchar
        </CharString>
        <CharString name="lambda">
          74 2 -21 17 16 598 22 hstemhm
          256 34 -34 27 hintmask 01101000
          315 -2 rmoveto
          25 0 51 38 22 18 22 18 20 21 22 29 1 2 0 0 0 1 0 1 -1 1 -1 0 -1 0 -1 0 -2 -3 -4 -6 -19 -24 -26 -23 rrcurveto
          -18 -15 -49 -42 -25 0 -36 0 -12 92 0 97 rrcurveto
          hintmask 10110000
          0 85 7 90 0 35 rrcurveto
          63 -4 158 -86 -68 -63 -83 -17 -1 2 0 1 vhcurveto
          8 0 19 10 3 6 14 39 22 24 37 0 49 0 32 -52 0 -161 rrcurveto
          -177 vlineto
          -65 -56 -90 -74 -87 -66 -8 -6 -7 -20 0 -11 0 -5 1 -3 3 0 4 0 -1 2 250 229 rrcurveto
          -76 0 -138 59 vhcurveto
          endchar
        </CharString>
        <CharString name="lcaron">
          -96 -11 14 520 145 22 24 hstem
          47 38 380 40 76 24 vstem
          589 668 rmoveto
          49 callsubr
          -371 -344 rmoveto
          -32 callsubr
          -57 -55 rmoveto
          -15 callsubr
          endchar
        </CharString>
        <CharString name="lcommaaccent">
          -96 -195 145 39 14 687 24 hstemhm
          44 24 -21 38 380 40 hintmask 10010000
          52 -50 rmoveto
          49 callsubr
          hintmask 01101100
          166 374 rmoveto
          -32 callsubr
          -57 -55 rmoveto
          -15 callsubr
          endchar
        </CharString>
        <CharString name="ldot">
          123 -11 14 158 53 476 24 hstem
          47 38 119 46 215 40 vstem
          204 179 rmoveto
          -20 callsubr
          14 145 rmoveto
          -32 callsubr
          -57 -55 rmoveto
          -15 callsubr
          endchar
        </CharString>
        <CharString name="less">
          -69 33 276 hstem
          88 30 vstem
          118 165 rmoveto
          0 12 1 -1 153 121 2 1 5 5 0 2 0 2 -2 2 -1 0 -6 0 -114 -97 -53 -36 -5 -4 -10 -11 0 -10 0 -15 62 -103 5 0 rrcurveto
          5 0 4 3 6 3 5 3 10 1 0 4 0 9 -67 96 0 13 rrcurveto
          endchar
        </CharString>
        <CharString name="lira">
          98 -152 25 56 -20 79 21 119 27 34 16 -9 11 -7 19 33 16 -9 11 -7 19 136 24 hstemhm
          47 30 421 39 hintmask 1111010000111000
          291 196 rmoveto
          hintmask 1111001000111000
          30 2 58 1 36 1 14 1 14 13 0 3 0 2 -1 0 -1 0 rrcurveto
          hintmask 1111010010111000
          -57 -7 -57 -4 -29 -1 rrcurveto
          28 52 rlineto
          hintmask 1111000001111000
          42 2 42 1 36 1 14 1 14 13 0 3 0 2 -1 0 -1 0 rrcurveto
          hintmask 1111000010111000
          -40 -5 -50 -5 -51 -2 50 102 12 46 54 0 29 0 22 -24 0 -16 0 -3 -1 -4 0 -1 0 -2 1 0 1 0 3 0 7 7 10 6 rrcurveto
          9 6 9 1 0 5 0 20 -19 29 -35 0 -98 0 -65 -115 -27 -58 rrcurveto
          hintmask 1111100100111000
          -22 0 -20 -1 -20 0 rrcurveto
          -3 -21 -11 -2 -2 1 -1 2 hvcurveto
          19 2 27 1 32 2 rrcurveto
          -23 -51 rlineto
          -13 0 -6 -1 -46 0 rrcurveto
          -3 -21 -11 -2 -2 1 -1 2 hvcurveto
          16 2 17 0 48 3 -13 -23 -13 -27 -16 -25 -8 19 -10 17 -16 0 rrcurveto
          -45 -92 -99 -48 -17 16 -3 15 hvcurveto
          46 0 48 42 32 39 52 -169 138 -52 91 0 55 0 46 19 29 34 11 13 3 8 0 4 0 2 -1 1 -1 0 -5 0 -3 -10 -10 -10 rrcurveto
          -23 -22 -26 -14 -47 0 -116 0 -133 110 -38 114 rrcurveto
          14 19 27 39 24 41 rrcurveto
          -93 -107 rmoveto
          -63 callsubr
          endchar
        </CharString>
        <CharString name="logicalnot">
          44 152 23 hstem
          84 254 vstem
          257 173 rmoveto
          -70 0 -63 2 -24 0 rrcurveto
          -6 -10 -19 -3 -1 1 0 1 hvcurveto
          55 0 85 3 63 0 -12 -27 -15 -25 -8 -15 -4 -8 4 0 3 0 0 0 36 5 1 2 18 32 26 49 0 2 0 2 -1 2 -5 0 rrcurveto
          -7 0 -58 -1 -10 0 rrcurveto
          endchar
        </CharString>
        <CharString name="longs">
          -154 -397 16 602 12 457 24 hstem
          -304 34 746 35 vstem
          511 688 rmoveto
          53 callsubr
          endchar
        </CharString>
        <CharString name="lozenge">
          49 -14 40 380 40 hstem
          60 39 259 35 vstem
          212 421 rmoveto
          103 callsubr
          -56 -283 rmoveto
          104 callsubr
          endchar
        </CharString>
        <CharString name="lslash">
          -96 -11 14 687 24 hstem
          47 38 380 40 vstem
          271 479 rmoveto
          -26 -15 -29 -10 -34 -13 -8 -3 -14 -14 0 -4 0 -1 1 0 2 0 6 0 54 21 53 31 61 35 73 55 0 4 0 0 0 1 -2 0 rrcurveto
          -19 0 -31 -37 -87 -50 rrcurveto
          -53 -155 rmoveto
          -32 callsubr
          -57 -55 rmoveto
          -15 callsubr
          endchar
        </CharString>
        <CharString name="m">
          54 -182 11 110 -20 95 -21 196 23 4 14 hstemhm
          119 33 53 33 -4 33 64 46 hintmask 1111111010000000
          66 197 rmoveto
          -14 callsubr
          hintmask 1111110110000000
          -13 callsubr
          hintmask 1111111010000000
          -12 callsubr
          endchar
        </CharString>
</ttFont>
